# Blender 4.1.1
# www.blender.org
mtllib Mushroom.mtl
o Mushroom_Cube.049
v -0.646928 0.799112 -0.280024
v -0.280024 0.804992 0.644329
v -0.446761 1.972992 -0.462208
v -0.446768 1.972985 0.462207
v -0.647704 0.801983 0.280024
v -0.282448 0.795485 -0.644330
v -0.515438 0.803372 0.511112
v -0.513782 0.798089 -0.511112
v -0.689065 0.799963 -0.000000
v -0.492184 2.030536 -0.000000
v -0.707571 1.783752 -0.472354
v -0.915081 1.253513 -0.446591
v -0.449493 1.777199 0.695194
v -0.432749 1.447299 0.885041
v -0.691062 1.778031 0.461445
v -0.892166 1.403606 0.436277
v -0.466584 1.775225 -0.720771
v -0.452222 1.204363 -0.917603
v -0.613668 1.686384 0.620798
v -0.719956 1.449992 0.720278
v -0.635322 1.692250 -0.642713
v -0.748444 1.243150 -0.745706
v -0.963374 1.281478 -0.000000
v -0.763030 1.742459 -0.000000
v -0.623797 0.349223 -0.307906
v -0.385968 0.351748 0.640610
v -0.624748 0.348149 0.250888
v -0.271921 0.345217 -0.625208
v -0.501911 0.354203 0.497145
v -0.505663 0.348363 -0.506435
v -0.678693 0.348720 -0.002133
v -0.231564 0.733285 0.648441
v -0.269526 0.441462 0.686438
v -0.174313 0.697444 0.329903
v -0.202927 0.476762 0.387082
v -0.379909 0.090798 -0.381965
v -0.379909 0.083278 0.377700
v -0.404751 0.042760 -0.002133
v -0.543728 0.209886 -0.360595
v -0.358423 0.208487 0.541957
v -0.543666 0.206850 0.356330
v -0.358790 0.206100 -0.546222
v -0.495054 0.274733 0.492916
v -0.494600 0.270488 -0.497181
v -0.591004 0.196743 -0.002133
v -0.598656 1.237330 -0.286330
v -0.493497 1.247006 -0.490803
v -0.636817 1.220827 -0.000000
v -0.288965 1.316460 0.596122
v -0.493767 1.291933 0.490803
v -0.599306 1.244985 0.286329
v -0.288785 1.233454 -0.596122
v -0.814523 1.079581 -0.393422
v -0.865981 1.133105 -0.000000
v -0.395883 1.303401 0.809023
v -0.674844 1.067569 -0.669691
v -0.668243 1.297446 0.665435
v -0.813460 1.237337 0.393422
v -0.398737 1.038256 -0.809855
v -0.806170 1.511339 -0.000000
v -0.749960 1.517830 -0.423951
v -0.648661 1.470471 -0.650132
v -0.420314 1.607282 0.751858
v -0.646698 1.566295 0.650132
v -0.748466 1.586066 0.423951
v -0.422925 1.491955 -0.751859
v 0.641638 0.793655 -0.280024
v 0.280024 0.804992 0.644329
v 0.477309 1.946365 -0.462208
v 0.477302 1.946372 0.462207
v 0.640835 0.794897 0.280024
v 0.277563 0.793300 -0.644330
v 0.506664 0.796192 0.511112
v 0.508366 0.793657 -0.511112
v 0.683777 0.794152 -0.000000
v 0.527815 1.999496 -0.000000
v 0.017736 2.015049 0.546540
v 0.017622 2.014580 -0.546541
v 0.000000 0.804992 0.686470
v -0.002180 0.789510 -0.686471
v 0.022685 2.098082 -0.000000
v 0.723543 1.749860 -0.472354
v 0.910105 1.229320 -0.446591
v 0.465948 1.754811 0.695194
v 0.433111 1.429869 0.885041
v 0.706988 1.744465 0.461445
v 0.890743 1.372928 0.436277
v 0.482556 1.752550 -0.720771
v 0.445590 1.191435 -0.917603
v 0.624053 1.660001 0.620798
v 0.720204 1.421918 0.720278
v 0.646094 1.664509 -0.642713
v 0.742688 1.221299 -0.745706
v 0.959058 1.255702 -0.000000
v 0.777119 1.705610 -0.000000
v -0.003789 1.147101 -0.981319
v 0.007884 1.752285 -0.787445
v 0.000254 1.440484 0.944006
v 0.009314 1.782975 0.757504
v 0.621070 0.347610 -0.307906
v 0.383682 0.351684 0.640610
v 0.620728 0.345771 0.250888
v 0.269642 0.344631 -0.625208
v 0.496037 0.352611 0.497145
v 0.502920 0.347048 -0.506435
v 0.675926 0.346938 -0.002133
v 0.000000 0.348532 0.724442
v -0.000917 0.344974 -0.665959
v 0.231564 0.733285 0.648441
v 0.000000 0.768083 0.683289
v 0.267510 0.440899 0.686438
v 0.000000 0.401789 0.730486
v 0.174313 0.697444 0.329903
v 0.000000 0.723464 0.356135
v 0.201336 0.476414 0.387082
v -0.000227 0.444916 0.343604
v 0.379909 0.090798 -0.381965
v 0.379909 0.083278 0.377700
v 0.404751 0.042760 -0.002133
v 0.000000 0.032426 0.402542
v 0.000000 0.044312 -0.406807
v 0.000000 -0.022365 -0.002133
v 0.542832 0.209477 -0.360595
v 0.358423 0.208463 0.541957
v 0.542854 0.206344 0.356330
v 0.358053 0.205878 -0.546222
v 0.492194 0.273863 0.492916
v 0.492841 0.269719 -0.497181
v 0.590840 0.196663 -0.002133
v 0.000000 0.196069 -0.593830
v 0.000000 0.197135 0.589565
v 0.593312 1.221155 -0.286330
v 0.487857 1.232170 -0.490803
v 0.632316 1.207397 -0.000000
v -0.001967 1.208584 -0.634681
v 0.283469 1.303262 0.596122
v 0.487483 1.271012 0.490803
v -0.002738 1.317573 0.634681
v 0.592584 1.224232 0.286329
v 0.283749 1.226095 -0.596122
v 0.804870 1.057809 -0.393422
v 0.858029 1.110736 -0.000000
v -0.005221 1.004281 -0.862169
v 0.389911 1.286006 0.809023
v -0.003106 1.299860 0.861135
v 0.664266 1.048400 -0.669691
v 0.662212 1.269949 0.665435
v 0.805793 1.207368 0.393422
v 0.387978 1.027519 -0.809855
v 0.808381 1.485381 -0.000000
v 0.752354 1.494315 -0.423951
v 0.649626 1.450058 -0.650132
v 0.000411 1.457072 -0.807979
v 0.003928 1.607442 0.807979
v 0.427224 1.589960 0.751858
v 0.651509 1.541134 0.650132
v 0.753773 1.558091 0.423951
v 0.424681 1.478593 -0.751859
v -0.329379 1.183259 0.326190
v -0.329379 0.938834 0.277571
v -0.329379 0.866071 0.326190
v -0.329379 0.817452 0.398954
v -0.286463 1.231878 0.410453
v -0.250082 1.183259 0.347438
v -0.225772 1.110495 0.305332
v -0.217236 1.024665 0.290547
v -0.225772 0.938834 0.305332
v -0.250082 0.866071 0.347438
v -0.286463 0.817452 0.410453
v -0.329379 1.248950 0.484784
v -0.255047 1.231878 0.441869
v -0.192032 1.183259 0.405487
v -0.149927 1.110495 0.381178
v -0.135141 1.024665 0.372641
v -0.149927 0.938834 0.381178
v -0.192032 0.866071 0.405487
v -0.255047 0.817452 0.441869
v -0.243548 1.231878 0.484784
v -0.170785 1.183259 0.484784
v -0.122166 1.110495 0.484784
v -0.105093 1.024665 0.484784
v -0.122166 0.938834 0.484784
v -0.170785 0.866071 0.484784
v -0.243548 0.817452 0.484784
v -0.255047 1.231878 0.527699
v -0.192032 1.183259 0.564081
v -0.149927 1.110495 0.588391
v -0.135141 1.024665 0.596927
v -0.149927 0.938834 0.588391
v -0.192032 0.866071 0.564081
v -0.255047 0.817452 0.527699
v -0.286463 1.231878 0.559115
v -0.250082 1.183259 0.622130
v -0.225772 1.110495 0.664236
v -0.217236 1.024665 0.679021
v -0.225772 0.938834 0.664236
v -0.250082 0.866071 0.622131
v -0.286463 0.817452 0.559115
v -0.329379 1.231878 0.570615
v -0.329379 1.183259 0.643378
v -0.329379 1.110495 0.691997
v -0.329379 1.024665 0.709070
v -0.329379 0.938834 0.691997
v -0.329379 0.866071 0.643378
v -0.329379 0.817452 0.570615
v -0.372294 1.231878 0.559115
v -0.408675 1.183259 0.622130
v -0.432985 1.110495 0.664236
v -0.441521 1.024665 0.679021
v -0.432985 0.938834 0.664236
v -0.408675 0.866071 0.622131
v -0.372294 0.817452 0.559115
v -0.403710 1.231878 0.527699
v -0.466725 1.183259 0.564081
v -0.508830 1.110495 0.588391
v -0.523616 1.024665 0.596927
v -0.508830 0.938834 0.588391
v -0.466725 0.866071 0.564081
v -0.403710 0.817452 0.527699
v -0.415209 1.231878 0.484784
v -0.487972 1.183259 0.484784
v -0.536591 1.110495 0.484784
v -0.553664 1.024665 0.484784
v -0.536591 0.938834 0.484784
v -0.487972 0.866071 0.484784
v -0.415209 0.817452 0.484784
v -0.403710 1.231878 0.441869
v -0.466725 1.183259 0.405487
v -0.508830 1.110495 0.381178
v -0.523616 1.024665 0.372641
v -0.508830 0.938834 0.381178
v -0.466725 0.866071 0.405487
v -0.403710 0.817452 0.441869
v -0.329379 0.800379 0.484784
v -0.372294 1.231878 0.410453
v -0.408675 1.183259 0.347438
v -0.432985 1.110495 0.305332
v -0.441521 1.024665 0.290547
v -0.432985 0.938834 0.305332
v -0.408675 0.866071 0.347438
v -0.372294 0.817452 0.410453
v -0.329379 1.231878 0.398954
v -0.329379 1.110495 0.277571
v -0.329379 1.024665 0.260498
v -0.329379 0.898517 0.304191
v -0.282786 0.829039 0.383739
v -0.243288 0.894057 0.326823
v -0.216895 0.980403 0.297249
v -0.329379 0.795249 0.459331
v -0.248679 0.822444 0.417203
v -0.180265 0.881870 0.388657
v -0.134552 0.964480 0.378038
v -0.236194 0.813434 0.462916
v -0.157197 0.865223 0.473123
v -0.104412 0.942729 0.488398
v -0.248679 0.804425 0.508628
v -0.180265 0.848575 0.557588
v -0.134552 0.920978 0.598758
v -0.282786 0.797829 0.542092
v -0.243288 0.836388 0.619422
v -0.216895 0.905055 0.679548
v -0.329379 0.795415 0.554341
v -0.329379 0.831928 0.642054
v -0.329379 0.899227 0.709119
v -0.375971 0.797829 0.542092
v -0.415469 0.836388 0.619422
v -0.441862 0.905055 0.679548
v -0.410078 0.804425 0.508628
v -0.478492 0.848575 0.557588
v -0.524205 0.920978 0.598758
v -0.422563 0.813434 0.462916
v -0.501560 0.865223 0.473123
v -0.554345 0.942729 0.488398
v -0.410078 0.822444 0.417203
v -0.478492 0.881870 0.388657
v -0.524205 0.964480 0.378038
v -0.375971 0.829039 0.383739
v -0.415469 0.894057 0.326823
v -0.441862 0.980403 0.297249
v -0.329379 0.831453 0.371490
v -0.329379 0.986231 0.267678
v 0.240233 1.188172 0.359794
v 0.211981 0.945447 0.310869
v 0.239234 0.871193 0.348312
v 0.280210 0.820304 0.406532
v 0.323417 1.234860 0.406767
v 0.317657 1.188916 0.332508
v 0.313681 1.117967 0.281431
v 0.312095 1.032814 0.261314
v 0.313140 0.946420 0.275218
v 0.316658 0.871938 0.321026
v 0.322112 0.820707 0.391765
v 0.330085 1.248802 0.492903
v 0.367091 1.234427 0.414914
v 0.398355 1.188117 0.347562
v 0.419118 1.116923 0.301101
v 0.426219 1.031683 0.282604
v 0.418577 0.945375 0.294887
v 0.397356 0.871138 0.336080
v 0.365785 0.820274 0.399912
v 0.400834 1.233274 0.443793
v 0.460705 1.185987 0.400924
v 0.500582 1.114141 0.370821
v 0.514395 1.028671 0.358069
v 0.500041 0.942593 0.364607
v 0.459705 0.869009 0.389442
v 0.399529 0.819122 0.428791
v 0.415606 1.231711 0.485665
v 0.488000 1.183099 0.478294
v 0.536245 1.110366 0.471910
v 0.552996 1.024586 0.467486
v 0.535704 0.938819 0.465696
v 0.487000 0.866120 0.466812
v 0.414300 0.817559 0.470664
v 0.407448 1.230156 0.529311
v 0.472926 1.180225 0.558941
v 0.516550 1.106611 0.577281
v 0.531679 1.020522 0.581539
v 0.516009 0.935064 0.571067
v 0.471927 0.863246 0.547459
v 0.406143 0.816003 0.514310
v 0.378547 1.229025 0.563036
v 0.419523 1.178136 0.621256
v 0.446775 1.103882 0.658700
v 0.456155 1.017568 0.669666
v 0.446235 0.932335 0.652486
v 0.418524 0.861158 0.609774
v 0.377241 0.814873 0.548035
v 0.336645 1.228622 0.577803
v 0.342099 1.177392 0.648542
v 0.345617 1.102910 0.694351
v 0.346662 1.016516 0.708254
v 0.345076 0.931362 0.688137
v 0.341100 0.860413 0.637061
v 0.335340 0.814470 0.562802
v 0.292972 1.229055 0.569656
v 0.261401 1.178191 0.633488
v 0.240180 1.103955 0.674681
v 0.232538 1.017647 0.686964
v 0.239639 0.932407 0.668467
v 0.260402 0.861213 0.622006
v 0.291666 0.814903 0.554654
v 0.259228 1.230208 0.540777
v 0.199051 1.180321 0.580127
v 0.158716 1.106737 0.604961
v 0.144362 1.020658 0.611500
v 0.158175 0.935189 0.598747
v 0.198052 0.863342 0.568645
v 0.257923 0.816055 0.525775
v 0.244456 1.231771 0.498905
v 0.171756 1.183209 0.502757
v 0.123053 1.110511 0.503872
v 0.105761 1.024743 0.502082
v 0.122512 0.938963 0.497658
v 0.170757 0.866231 0.491275
v 0.243151 0.817618 0.483903
v 0.328672 0.800527 0.476665
v 0.252614 1.233326 0.455259
v 0.186830 1.186083 0.422109
v 0.142748 1.114266 0.398501
v 0.127078 1.028807 0.388029
v 0.142207 0.942718 0.392287
v 0.185831 0.869105 0.410627
v 0.251309 0.819174 0.440257
v 0.281516 1.234457 0.421534
v 0.212522 1.116995 0.317082
v 0.202602 1.031761 0.299902
v 0.329379 0.898517 0.304191
v 0.282786 0.829039 0.383739
v 0.243288 0.894057 0.326823
v 0.216895 0.980403 0.297249
v 0.329379 0.795249 0.459331
v 0.248679 0.822444 0.417203
v 0.180265 0.881870 0.388657
v 0.134552 0.964480 0.378038
v 0.236194 0.813434 0.462916
v 0.157197 0.865223 0.473123
v 0.104412 0.942729 0.488398
v 0.248679 0.804425 0.508628
v 0.180265 0.848575 0.557588
v 0.134552 0.920978 0.598758
v 0.282786 0.797829 0.542092
v 0.243288 0.836388 0.619422
v 0.216895 0.905055 0.679548
v 0.329379 0.795415 0.554341
v 0.329379 0.831928 0.642054
v 0.329379 0.899227 0.709119
v 0.375971 0.797829 0.542092
v 0.415469 0.836388 0.619422
v 0.441862 0.905055 0.679548
v 0.410078 0.804425 0.508628
v 0.478492 0.848575 0.557588
v 0.524205 0.920978 0.598758
v 0.422563 0.813434 0.462916
v 0.501560 0.865223 0.473123
v 0.554345 0.942729 0.488398
v 0.410078 0.822444 0.417203
v 0.478492 0.881870 0.388657
v 0.524205 0.964480 0.378038
v 0.375971 0.829039 0.383739
v 0.415469 0.894057 0.326823
v 0.441862 0.980403 0.297249
v 0.329379 0.831453 0.371490
v 0.329379 0.986231 0.267678
v -0.176722 0.392671 0.614770
v 0.176722 0.392671 0.614770
v 0.000000 0.392671 0.654829
v -0.152091 0.392671 0.491767
v 0.152091 0.392671 0.491767
v 0.000000 0.392671 0.459053
v -0.141294 0.495139 0.614770
v -0.121600 0.495139 0.491767
v 0.000000 0.495139 0.654829
v 0.141294 0.495139 0.614770
v 0.000000 0.495139 0.459053
v 0.121600 0.495139 0.491767
v 0.088343 0.621534 0.603413
v 0.214475 0.717122 0.591483
v 0.102281 0.675849 0.503821
v 0.100542 0.750795 0.662958
v -0.011652 0.709522 0.575295
v -0.107906 0.593971 0.577951
v 0.017945 0.713202 0.579517
v -0.093329 0.674261 0.468557
v -0.109352 0.735739 0.662432
v -0.220626 0.696798 0.551472
v 0.182623 0.687899 0.529486
v 0.006813 0.641631 0.592336
v 0.189796 0.744446 0.649434
v 0.021505 0.682536 0.517940
v 0.227543 0.808910 0.571460
v 0.113610 0.842582 0.642935
v 0.001416 0.801309 0.555272
v 0.115349 0.767637 0.483797
v 0.092263 0.616377 0.538731
v 0.011723 0.738407 0.636698
v 0.176408 0.647332 0.604477
v 0.090958 0.672586 0.658083
v -0.009836 0.687783 0.502787
v -0.199222 0.615783 0.564320
v -0.013916 0.734520 0.649236
v -0.180827 0.676108 0.482796
v 0.017522 0.824644 0.567060
v -0.102787 0.846768 0.649975
v -0.207073 0.807413 0.539015
v -0.086763 0.785290 0.456100
v -0.100256 0.598674 0.502134
v -0.200782 0.721589 0.627159
v -0.013306 0.627674 0.585354
v -0.112273 0.644783 0.647540
v 0.155564 0.643547 0.554673
v 0.033705 0.639474 0.545944
v 0.158365 0.685333 0.643347
v 0.028972 0.680961 0.634089
v 0.195691 0.779686 0.509463
v 0.034573 0.774323 0.497917
v 0.202864 0.836233 0.629410
v 0.024791 0.830195 0.616675
v -0.034478 0.630565 0.526119
v -0.166596 0.621915 0.511002
v -0.039852 0.664999 0.634291
v -0.179025 0.655790 0.618247
v -0.008512 0.799122 0.490330
v -0.169021 0.786827 0.470339
v -0.012592 0.845859 0.636779
v -0.188976 0.832308 0.614702
vn 0.3287 -0.7264 0.6035
vn 0.3393 -0.8764 0.3418
vn 0.6009 -0.7353 0.3136
vn 0.8367 0.5413 -0.0837
vn 0.8202 0.5356 0.2010
vn 0.8167 0.5328 0.2217
vn 0.7918 -0.5013 -0.3489
vn 0.3625 -0.8578 -0.3643
vn 0.3501 -0.5034 -0.7900
vn 0.2559 0.5037 -0.8252
vn 0.2791 0.4913 -0.8251
vn 0.0107 0.5035 -0.8639
vn 0.6218 0.5388 0.5684
vn 0.2880 0.5924 0.7524
vn 0.3310 0.5717 0.7507
vn 0.4338 -0.9010 -0.0057
vn -0.0246 -0.8887 0.4578
vn -0.0306 -0.9995 0.0002
vn 0.6059 0.4603 -0.6488
vn 0.7978 0.4818 -0.3625
vn 0.7837 0.4679 -0.4085
vn -0.0247 -0.8829 -0.4689
vn 0.8359 0.5372 -0.1125
vn 0.0083 0.6405 0.7679
vn 0.0088 0.6257 0.7800
vn 0.9152 -0.4006 0.0448
vn 0.8228 -0.5628 0.0790
vn 0.8015 -0.5329 0.2714
vn 0.6536 -0.3367 0.6778
vn 0.9068 -0.3216 0.2724
vn -0.0092 -0.4701 -0.8825
vn -0.0126 -0.6314 -0.7753
vn 0.2372 -0.6357 -0.7346
vn 0.6083 -0.5340 -0.5873
vn 0.2844 -0.4599 -0.8412
vn 0.8689 -0.4340 -0.2381
vn 0.5611 -0.6472 -0.5160
vn 0.7830 -0.6080 -0.1311
vn 0.2599 -0.2880 0.9217
vn 0.5792 -0.5164 0.6307
vn -0.0042 -0.3033 0.9529
vn 0.2114 -0.5004 0.8396
vn -0.0001 -0.0374 0.9993
vn 0.3204 -0.0336 0.9467
vn 0.2705 0.2092 0.9397
vn 0.7061 -0.0325 0.7074
vn 0.6883 0.1252 0.7146
vn 0.2996 -0.0723 -0.9513
vn 0.0187 -0.0430 -0.9989
vn 0.3028 0.0606 -0.9511
vn 0.9990 -0.0437 -0.0039
vn 0.9472 -0.0235 -0.3197
vn 0.9365 0.2149 -0.2772
vn 0.7239 -0.0432 -0.6885
vn 0.8403 0.0860 -0.5353
vn 0.4790 0.2766 -0.8331
vn -0.0005 0.4049 -0.9144
vn 0.9454 -0.0410 0.3233
vn 0.9225 0.2201 0.3171
vn 0.9641 0.2650 -0.0172
vn -0.1272 0.9828 -0.1338
vn -0.1275 0.9827 -0.1340
vn -0.1270 0.9829 -0.1336
vn -0.9762 0.0914 -0.1966
vn -0.9796 0.0791 -0.1850
vn -0.9770 0.0886 -0.1940
vn 0.0006 -0.0102 -0.9999
vn -0.0000 0.0859 -0.9963
vn -0.0109 -0.0616 -0.9980
vn 0.1422 0.0444 -0.9888
vn -0.0800 -0.1089 -0.9908
vn -0.1426 -0.9812 -0.1300
vn -0.1213 -0.9823 -0.1428
vn -0.1560 -0.9802 -0.1218
vn 0.3609 0.8623 0.3552
vn 0.3312 0.5587 0.7604
vn 0.6604 0.3592 0.6594
vn 0.7489 0.5766 0.3266
vn 0.3698 0.8563 -0.3605
vn 0.7771 0.5329 -0.3348
vn 0.7470 0.3667 -0.5545
vn 0.3069 0.6608 -0.6849
vn -0.0001 0.6138 0.7894
vn 0.4084 0.9128 0.0072
vn -0.0000 0.9999 0.0119
vn -0.0000 0.9130 -0.4079
vn 0.7752 0.6317 -0.0026
vn -0.0001 0.6969 -0.7171
vn -0.0000 0.9150 0.4034
vn 0.9457 -0.0887 0.3126
vn -0.0003 -0.1135 0.9935
vn 0.6929 -0.0678 -0.7179
vn 0.9936 -0.1130 0.0013
vn 0.9450 -0.0858 -0.3155
vn 0.3137 -0.0884 0.9454
vn 0.3016 -0.0842 -0.9497
vn 0.0026 -0.0976 -0.9952
vn -0.5134 0.8274 -0.2275
vn -0.4844 0.8592 -0.1649
vn -0.3767 0.8213 -0.4284
vn -0.1315 0.7646 -0.6309
vn 0.0097 0.7439 -0.6682
vn 0.0099 0.7440 -0.6682
vn -0.0335 0.9993 0.0178
vn -0.0564 0.9977 0.0371
vn -0.0864 0.9923 -0.0888
vn -0.1745 0.9704 -0.1670
vn -0.3575 0.9338 -0.0129
vn -0.3611 0.9269 -0.1025
vn -0.1338 0.9721 -0.1926
vn -0.1311 0.7696 -0.6249
vn 0.0225 0.9973 0.0705
vn -0.0016 -0.0754 0.9971
vn 0.2859 -0.0609 0.9563
vn 0.4246 -0.0426 0.9044
vn 0.9015 -0.4328 -0.0053
vn 0.6541 -0.3735 -0.6577
vn -0.0115 -0.4849 -0.8745
vn 0.9050 -0.0681 0.4199
vn 0.9577 -0.1038 0.2685
vn -0.6334 -0.7081 0.3120
vn -0.3857 -0.8582 0.3388
vn -0.3614 -0.7128 0.6011
vn -0.8025 0.5544 0.2207
vn -0.8059 0.5568 0.2010
vn -0.8216 0.5642 -0.0815
vn -0.3745 -0.4870 -0.7890
vn -0.4085 -0.8379 -0.3620
vn -0.8148 -0.4623 -0.3498
vn -0.2361 0.5107 -0.8267
vn 0.0114 0.5075 -0.8616
vn -0.3140 0.5817 0.7504
vn -0.2712 0.6009 0.7519
vn -0.6065 0.5566 0.5678
vn -0.4847 -0.8746 -0.0059
vn -0.7712 0.4924 -0.4035
vn -0.7842 0.5060 -0.3591
vn -0.5904 0.4807 -0.6483
vn -0.8210 0.5605 -0.1082
vn -0.2607 0.4987 -0.8266
vn -0.9276 -0.3712 0.0425
vn -0.9173 -0.2901 0.2727
vn -0.8128 -0.5153 0.2717
vn -0.6625 -0.3158 0.6792
vn -0.2969 -0.4535 -0.8403
vn -0.2565 -0.6217 -0.7400
vn -0.6318 -0.5152 -0.5792
vn -0.5922 -0.6183 -0.5168
vn -0.8841 -0.4005 -0.2407
vn -0.7988 -0.5858 -0.1366
vn -0.5915 -0.5012 0.6316
vn -0.2681 -0.2793 0.9220
vn -0.2262 -0.4952 0.8388
vn -0.2706 0.2079 0.9400
vn -0.3211 -0.0347 0.9464
vn -0.6886 0.1197 0.7152
vn -0.3089 -0.0723 -0.9484
vn -0.4847 0.2729 -0.8310
vn -0.3027 0.0621 -0.9510
vn -0.9375 0.2053 -0.2810
vn -0.9451 -0.0267 -0.3256
vn -0.9989 -0.0467 -0.0068
vn -0.8440 0.0691 -0.5319
vn -0.7281 -0.0452 -0.6840
vn -0.9238 0.2138 0.3176
vn -0.9451 -0.0444 0.3237
vn -0.7062 -0.0352 0.7071
vn -0.9658 0.2585 -0.0192
vn 0.1270 0.9829 -0.1336
vn 0.1275 0.9827 -0.1340
vn 0.1272 0.9828 -0.1338
vn 0.9769 0.0845 -0.1961
vn 0.9744 0.0932 -0.2043
vn 0.9777 0.0818 -0.1935
vn -0.0183 -0.0432 -0.9989
vn 0.0107 -0.0616 -0.9980
vn 0.2380 -0.2159 -0.9470
vn 0.0807 -0.1095 -0.9907
vn 0.1553 -0.9803 -0.1220
vn 0.1201 -0.9824 -0.1431
vn 0.1415 -0.9813 -0.1303
vn -0.3616 0.8619 0.3554
vn -0.7512 0.5728 0.3281
vn -0.6622 0.3547 0.6600
vn -0.3706 0.8558 -0.3610
vn -0.3102 0.6589 -0.6853
vn -0.7549 0.3501 -0.5546
vn -0.3319 0.5571 0.7612
vn -0.4086 0.9127 0.0073
vn -0.7782 0.6280 -0.0031
vn -0.7817 0.5232 -0.3395
vn -0.9449 -0.0911 0.3145
vn -0.3135 -0.0902 0.9453
vn -0.3024 -0.0918 -0.9487
vn -0.6951 -0.0690 -0.7156
vn -0.9437 -0.0864 -0.3194
vn -0.9934 -0.1151 -0.0013
vn 0.3988 0.8105 -0.4289
vn 0.5071 0.8447 -0.1711
vn 0.5330 0.8141 -0.2306
vn 0.1557 0.7605 -0.6304
vn 0.1542 0.7659 -0.6242
vn 0.1208 0.9892 -0.0826
vn 0.0978 0.9945 0.0366
vn 0.0739 0.9971 0.0170
vn 0.2079 0.9674 -0.1443
vn 0.1652 0.9705 -0.1756
vn 0.3925 0.9150 -0.0936
vn 0.0230 0.9967 0.0780
vn 0.3937 0.9192 -0.0044
vn -0.2908 -0.0470 0.9556
vn -0.4264 -0.0231 0.9042
vn -0.9210 -0.3895 -0.0055
vn -0.6684 -0.3497 -0.6565
vn -0.9606 -0.0568 0.2719
vn -0.9069 -0.0256 0.4206
vn -0.0000 -0.3718 0.9283
vn -0.0000 -0.0000 1.0000
vn -0.5000 -0.0000 0.8660
vn -0.0000 -0.9122 0.4097
vn -0.0000 -0.6913 0.7226
vn -0.3613 -0.6913 0.6258
vn -0.0000 0.9122 0.4097
vn -0.2049 0.9122 0.3548
vn -0.3613 0.6913 0.6258
vn -0.0000 0.3718 0.9283
vn -0.4642 0.3718 0.8040
vn -0.4642 -0.3718 0.8040
vn -0.2048 -0.9122 0.3548
vn -0.0000 -1.0000 -0.0000
vn -0.0000 1.0000 -0.0000
vn -0.0000 0.6913 0.7226
vn -0.3548 0.9122 0.2049
vn -0.8040 0.3718 0.4642
vn -0.8040 -0.3718 0.4642
vn -0.3548 -0.9122 0.2049
vn -0.6258 0.6913 0.3613
vn -0.8660 -0.0000 0.5000
vn -0.6258 -0.6913 0.3613
vn -0.4097 -0.9122 -0.0000
vn -0.4097 0.9122 -0.0000
vn -0.7226 0.6913 -0.0000
vn -1.0000 -0.0000 -0.0000
vn -0.7226 -0.6913 -0.0000
vn -0.9283 0.3718 -0.0000
vn -0.9283 -0.3718 -0.0000
vn -0.6258 0.6913 -0.3613
vn -0.8660 -0.0000 -0.5000
vn -0.6258 -0.6913 -0.3613
vn -0.3548 -0.9122 -0.2049
vn -0.3548 0.9122 -0.2048
vn -0.8040 0.3718 -0.4642
vn -0.8040 -0.3718 -0.4642
vn -0.2049 0.9122 -0.3548
vn -0.4642 0.3718 -0.8040
vn -0.5000 -0.0000 -0.8660
vn -0.4642 -0.3718 -0.8040
vn -0.3613 -0.6913 -0.6258
vn -0.2049 -0.9122 -0.3548
vn -0.3613 0.6913 -0.6258
vn -0.0000 0.3718 -0.9283
vn -0.0000 -0.3718 -0.9283
vn -0.0000 -0.9122 -0.4097
vn -0.0000 0.9122 -0.4097
vn -0.0000 0.6913 -0.7226
vn -0.0000 -0.0000 -1.0000
vn -0.0000 -0.6913 -0.7226
vn 0.2049 0.9122 -0.3548
vn 0.3613 0.6913 -0.6258
vn 0.5000 -0.0000 -0.8660
vn 0.3613 -0.6913 -0.6258
vn 0.4642 0.3718 -0.8040
vn 0.4642 -0.3718 -0.8040
vn 0.2049 -0.9122 -0.3548
vn 0.8660 -0.0000 -0.5000
vn 0.8040 -0.3718 -0.4642
vn 0.6258 -0.6913 -0.3613
vn 0.3548 -0.9122 -0.2049
vn 0.3548 0.9122 -0.2049
vn 0.6258 0.6913 -0.3613
vn 0.8040 0.3718 -0.4642
vn 0.4097 0.9122 -0.0000
vn 0.7226 0.6913 -0.0000
vn 0.9283 0.3718 -0.0000
vn 0.9283 -0.3718 -0.0000
vn 0.4097 -0.9122 -0.0000
vn 1.0000 -0.0000 -0.0000
vn 0.7226 -0.6913 -0.0000
vn 0.8040 -0.3718 0.4642
vn 0.3548 -0.9122 0.2049
vn 0.3548 0.9122 0.2049
vn 0.6258 0.6913 0.3613
vn 0.8040 0.3718 0.4642
vn 0.8660 -0.0000 0.5000
vn 0.6258 -0.6913 0.3613
vn 0.2049 0.9122 0.3548
vn 0.3613 0.6913 0.6258
vn 0.4642 0.3718 0.8040
vn 0.5000 -0.0000 0.8660
vn 0.3613 -0.6913 0.6258
vn 0.4642 -0.3718 0.8040
vn 0.2049 -0.9122 0.3548
vn -0.0000 0.5385 0.8426
vn -0.0000 0.8158 0.5784
vn -0.2049 0.8264 0.5245
vn -0.0000 0.3843 0.9232
vn -0.3613 0.5573 0.7476
vn -0.0000 0.9811 0.1934
vn -0.7201 0.4647 0.5153
vn -0.4157 0.4058 0.8139
vn -0.3548 0.8554 0.3774
vn -0.6258 0.6084 0.4881
vn -0.4097 0.8950 0.1764
vn -0.8315 0.5451 0.1074
vn -0.6258 0.7481 -0.2208
vn -0.7226 0.6783 0.1337
vn -0.7201 0.6255 -0.3005
vn -0.3548 0.9346 -0.0246
vn -0.3613 0.7993 -0.4803
vn -0.2049 0.9636 -0.1717
vn -0.0000 0.7059 -0.7083
vn -0.4157 0.6843 -0.5990
vn -0.0000 0.9742 -0.2256
vn 0.3613 0.7993 -0.4803
vn -0.0000 0.8180 -0.5752
vn 0.4157 0.6843 -0.5990
vn 0.2049 0.9636 -0.1717
vn 0.6258 0.7481 -0.2208
vn 0.7201 0.6255 -0.3005
vn 0.3548 0.9346 -0.0246
vn 0.7226 0.6783 0.1337
vn 0.4097 0.8950 0.1764
vn 0.8315 0.5451 0.1074
vn 0.6258 0.6084 0.4881
vn 0.3548 0.8554 0.3774
vn 0.2049 0.8264 0.5245
vn 0.7201 0.4647 0.5153
vn 0.3613 0.5573 0.7476
vn 0.4157 0.4058 0.8139
vn 0.5652 -0.0316 0.8243
vn 0.0771 -0.0363 0.9964
vn 0.0704 -0.4052 0.9115
vn 0.2287 -0.9246 0.3047
vn 0.4062 -0.7137 0.5706
vn 0.0535 -0.7171 0.6949
vn 0.4106 0.6680 0.6206
vn 0.2345 0.8987 0.3707
vn 0.0344 0.8967 0.4412
vn 0.5259 0.3421 0.7787
vn 0.0727 0.3378 0.9384
vn 0.5236 -0.4009 0.7518
vn 0.0287 -0.9265 0.3752
vn -0.0032 -0.9993 -0.0362
vn 0.0031 0.9993 0.0362
vn 0.0579 0.6646 0.7450
vn -0.1740 0.8988 0.4023
vn -0.3997 0.3425 0.8503
vn -0.4020 -0.4006 0.8234
vn -0.1798 -0.9244 0.3363
vn -0.3098 0.6682 0.6764
vn -0.4318 -0.0313 0.9014
vn -0.3142 -0.7135 0.6263
vn -0.3408 -0.9189 0.1984
vn -0.3351 0.9043 0.2645
vn -0.5939 0.6779 0.4332
vn -0.7646 0.3549 0.5379
vn -0.8249 -0.0179 0.5650
vn -0.7670 -0.3881 0.5110
vn -0.5982 -0.7038 0.3832
vn -0.7182 0.6911 0.0808
vn -0.9244 0.3718 0.0851
vn -0.9970 0.0004 0.0771
vn -0.9267 -0.3712 0.0581
vn -0.7226 -0.6906 0.0307
vn -0.4114 -0.9115 -0.0014
vn -0.4056 0.9118 0.0646
vn -0.3667 0.9192 -0.1437
vn -0.8362 0.3887 -0.3870
vn -0.9020 0.0185 -0.4314
vn -0.8385 -0.3544 -0.4139
vn -0.3724 -0.9041 -0.2098
vn -0.6496 0.7042 -0.2867
vn -0.6539 -0.6775 -0.3367
vn -0.5236 0.4009 -0.7518
vn -0.5259 -0.3421 -0.7787
vn -0.4106 -0.6680 -0.6206
vn -0.2345 -0.8987 -0.3707
vn -0.2287 0.9246 -0.3047
vn -0.4063 0.7137 -0.5706
vn -0.5652 0.0316 -0.8243
vn -0.0287 0.9265 -0.3752
vn -0.0535 0.7171 -0.6949
vn -0.0704 0.4052 -0.9115
vn -0.0771 0.0363 -0.9964
vn -0.0579 -0.6646 -0.7450
vn -0.0727 -0.3378 -0.9384
vn -0.0344 -0.8967 -0.4412
vn 0.4318 0.0313 -0.9014
vn 0.3997 -0.3425 -0.8503
vn 0.3098 -0.6682 -0.6764
vn 0.1740 -0.8988 -0.4023
vn 0.1798 0.9244 -0.3363
vn 0.3142 0.7135 -0.6263
vn 0.4020 0.4006 -0.8234
vn 0.3408 0.9189 -0.1985
vn 0.5982 0.7038 -0.3832
vn 0.7670 0.3881 -0.5110
vn 0.8249 0.0179 -0.5650
vn 0.7646 -0.3549 -0.5379
vn 0.3351 -0.9043 -0.2645
vn 0.5939 -0.6779 -0.4333
vn 0.9244 -0.3718 -0.0850
vn 0.7182 -0.6911 -0.0808
vn 0.4056 -0.9118 -0.0646
vn 0.4114 0.9115 0.0014
vn 0.7226 0.6906 -0.0307
vn 0.9970 -0.0004 -0.0771
vn 0.9267 0.3712 -0.0581
vn 0.3724 0.9040 0.2098
vn 0.6539 0.6775 0.3367
vn 0.9020 -0.0185 0.4314
vn 0.6496 -0.7042 0.2867
vn 0.8385 0.3544 0.4139
vn 0.8362 -0.3887 0.3870
vn 0.3667 -0.9192 0.1437
vn -0.0000 -0.0306 -0.9995
vn 0.2204 -0.0762 -0.9724
vn 0.2375 -0.0517 -0.9700
vn 0.9392 -0.2998 0.1673
vn 0.9474 -0.2819 0.1517
vn 0.9374 -0.3036 0.1706
vn -0.9392 -0.2998 0.1673
vn -0.9286 -0.3211 0.1860
vn -0.9374 -0.3036 0.1706
vn -0.0000 -0.0280 0.9996
vn -0.2099 -0.0625 0.9757
vn -0.2285 -0.0394 0.9728
vn -0.2375 -0.0517 -0.9700
vn 0.2285 -0.0394 0.9728
vn 0.0544 0.6981 -0.7140
vn 0.0116 0.7306 -0.6828
vn -0.5171 0.5370 -0.6665
vn 0.2553 0.6325 -0.7313
vn 0.2961 0.6548 -0.6954
vn 0.3048 0.9524 0.0075
vn 0.3608 0.9312 -0.0524
vn 0.2832 0.9586 0.0300
vn -0.3373 0.9405 -0.0404
vn -0.2813 0.9586 0.0449
vn -0.3168 0.9484 -0.0086
vn -0.8946 0.3252 0.3063
vn -0.9064 0.2091 0.3671
vn -0.9122 0.0409 -0.4078
vn -0.8353 0.2231 -0.5025
vn -0.8560 0.2195 -0.4680
vn -0.4637 0.5163 -0.7200
vn -0.8048 0.5474 0.2294
vn -0.8662 0.4051 0.2925
vn -0.0745 0.3968 0.9149
vn -0.0989 0.2255 0.9692
vn 0.1840 0.1844 0.9655
vn -0.3328 0.3954 0.8561
vn -0.0366 0.5105 0.8591
vn -0.3605 0.5690 0.7391
vn 0.1897 0.3793 0.9056
vn 0.2294 0.5202 0.8227
vn -0.1525 -0.0401 -0.9875
vn 0.0719 -0.0710 -0.9949
vn 0.0513 -0.2198 -0.9742
vn 0.2904 -0.0572 -0.9552
vn 0.3061 -0.2443 -0.9201
vn 0.1023 0.0494 -0.9935
vn 0.3090 0.0752 -0.9481
vn -0.1784 0.1344 -0.9747
vn 0.9352 -0.0042 -0.3541
vn 0.9136 0.0187 -0.4062
vn 0.9438 -0.1929 -0.2685
vn 0.8841 0.1356 0.4473
vn 0.8687 0.2041 0.4513
vn 0.8631 -0.0127 0.5049
vn 0.8357 0.3947 0.3820
vn 0.8483 0.1856 -0.4960
vn 0.0419 0.7782 -0.6266
vn 0.0047 0.8078 -0.5895
vn -0.2552 0.7390 -0.6235
vn 0.2678 0.7231 -0.6367
vn 0.3121 0.7441 -0.5907
vn 0.2760 0.9487 0.1540
vn 0.3402 0.9358 0.0924
vn 0.2574 0.9510 0.1713
vn -0.4004 0.9131 0.0774
vn -0.3425 0.9245 0.1675
vn -0.3832 0.9177 0.1050
vn -0.9447 0.1694 0.2807
vn -0.9496 0.0312 0.3118
vn -0.9475 0.0380 0.3176
vn -0.9184 -0.0386 -0.3937
vn -0.8605 0.1565 -0.4849
vn -0.8838 0.1478 -0.4439
vn -0.7655 0.2389 -0.5975
vn -0.7774 0.3109 -0.5468
vn -0.8758 0.4070 0.2595
vn -0.9245 0.2444 0.2926
vn -0.1244 0.2905 0.9488
vn -0.1433 0.1125 0.9833
vn 0.1674 0.0971 0.9811
vn -0.4081 0.2789 0.8693
vn -0.4771 0.3929 0.7861
vn -0.4351 0.4451 0.7827
vn 0.1596 0.2918 0.9431
vn 0.1983 0.4348 0.8784
vn -0.1379 0.0554 -0.9889
vn 0.1156 0.0312 -0.9928
vn 0.1099 -0.1192 -0.9868
vn 0.3527 0.0505 -0.9344
vn 0.3854 -0.1335 -0.9130
vn 0.1282 0.1562 -0.9794
vn 0.3663 0.1848 -0.9120
vn -0.1746 0.2111 -0.9618
vn 0.9621 0.0590 -0.2662
vn 0.9444 0.0769 -0.3197
vn 0.9713 -0.1319 -0.1977
vn 0.8624 0.1370 0.4873
vn 0.8729 0.1967 0.4466
vn 0.8644 -0.0441 0.5009
vn 0.7998 0.2943 0.5232
vn 0.8225 0.3519 0.4469
vn 0.8832 0.2485 -0.3977
vn 0.5595 -0.6076 0.5637
vn 0.6419 0.5150 0.5681
vn 0.5984 0.4429 -0.6676
vn -0.0157 -0.6760 0.7367
vn -0.0071 -0.4880 0.8728
vn 0.0002 0.2416 0.9704
vn -0.0005 0.1128 -0.9936
vn -0.1267 0.9829 -0.1334
vn -0.9737 0.1000 -0.2048
vn -0.2370 -0.2148 -0.9475
vn -0.1770 -0.9782 -0.1089
vn 0.7066 -0.0638 0.7047
vn -0.3641 0.8158 -0.4492
vn -0.0626 0.9936 -0.0940
vn -0.5838 -0.5879 0.5600
vn -0.6275 0.5338 0.5668
vn -0.5847 0.4634 -0.6658
vn -0.8338 -0.5470 0.0754
vn 0.1267 0.9829 -0.1334
vn 0.9802 0.0722 -0.1843
vn -0.1422 0.0446 -0.9888
vn 0.1764 -0.9782 -0.1092
vn -0.7045 -0.0657 0.7066
vn 0.3848 0.8064 -0.4489
vn 0.0963 0.9912 -0.0904
vn 0.9286 -0.3211 0.1860
vn -0.9474 -0.2819 0.1517
vn -0.2204 -0.0762 -0.9724
vn 0.2099 -0.0625 0.9757
vn 0.2273 0.9700 0.0867
vn -0.3720 0.9232 -0.0962
vn -0.7479 0.6078 0.2668
vn -0.3282 0.2457 0.9121
vn -0.1602 -0.1886 -0.9689
vn 0.7640 0.4897 0.4201
vn 0.8399 0.0943 -0.5345
vn -0.2052 0.7213 -0.6615
vn 0.1938 0.9541 0.2283
vn -0.4396 0.8981 0.0114
vn -0.9211 -0.0325 -0.3880
vn -0.8179 0.4810 0.3158
vn -0.4142 0.1061 0.9040
vn 0.2503 0.3738 0.8931
vn -0.1450 -0.1083 -0.9835
vn 0.9735 -0.1253 -0.1915
vn 0.8671 -0.0504 0.4956
vn 0.8790 0.1611 -0.4487
vt 0.147707 0.231788
vt 0.118075 0.304087
vt 0.193349 0.298086
vt 0.400891 0.377735
vt 0.380492 0.257928
vt 0.332074 0.269981
vt 0.225129 0.514398
vt 0.151537 0.529635
vt 0.194550 0.589378
vt 0.303291 0.673722
vt 0.268082 0.652545
vt 0.201121 0.742966
vt 0.341734 0.169160
vt 0.291301 0.089260
vt 0.252243 0.120350
vt 0.125733 0.418356
vt 0.001953 0.265977
vt 0.001953 0.435447
vt 0.347093 0.590822
vt 0.378654 0.496654
vt 0.332542 0.500406
vt 0.049188 0.596224
vt 0.354547 0.383494
vt 0.230119 0.001953
vt 0.185994 0.027339
vt 0.284574 0.394069
vt 0.237328 0.224105
vt 0.256853 0.288905
vt 0.154055 0.704161
vt 0.266765 0.568316
vt 0.225662 0.621077
vt 0.273443 0.504385
vt 0.304151 0.578757
vt 0.189325 0.176671
vt 0.295007 0.193252
vt 0.112049 0.097598
vt 0.634766 0.582635
vt 0.661522 0.512014
vt 0.552616 0.480485
vt 0.684404 0.446589
vt 0.581060 0.424507
vt 0.662633 0.092666
vt 0.639637 0.085148
vt 0.564659 0.109427
vt 0.703179 0.302406
vt 0.695070 0.228344
vt 0.592476 0.245227
vt 0.682530 0.159274
vt 0.575749 0.183951
vt 0.559895 0.143103
vt 0.492085 0.072994
vt 0.696384 0.376784
vt 0.594716 0.373670
vt 0.597632 0.303868
vt 0.936740 0.544443
vt 0.996700 0.554518
vt 0.996700 0.469720
vt 0.976494 0.314101
vt 0.895008 0.332905
vt 0.916422 0.380585
vt 0.646840 0.021627
vt 0.637066 0.024037
vt 0.364117 0.635399
vt 0.409693 0.639524
vt 0.409693 0.575888
vt 0.992669 0.451409
vt 0.995724 0.380944
vt 0.511346 0.397360
vt 0.533784 0.440871
vt 0.563584 0.418975
vt 0.556313 0.385163
vt 0.505038 0.215290
vt 0.551982 0.223915
vt 0.557596 0.188995
vt 0.523732 0.169796
vt 0.471509 0.499633
vt 0.494678 0.306747
vt 0.398403 0.310851
vt 0.412892 0.183438
vt 0.554944 0.304630
vt 0.452703 0.119110
vt 0.423532 0.437684
vt 0.805096 0.392311
vt 0.748825 0.601598
vt 0.803293 0.142935
vt 0.804596 0.302129
vt 0.805096 0.212298
vt 0.775869 0.527379
vt 0.797408 0.077632
vt 0.783211 0.001953
vt 0.593220 0.840152
vt 0.526840 0.807024
vt 0.498623 0.858987
vt 0.450643 0.893527
vt 0.381710 0.921527
vt 0.400205 0.998047
vt 0.483718 0.524693
vt 0.455044 0.578867
vt 0.507561 0.606859
vt 0.534555 0.660694
vt 0.543265 0.734552
vt 0.606363 0.738176
vt 0.590143 0.634363
vt 0.494984 0.959833
vt 0.383095 0.509076
vt 0.052271 0.164708
vt 0.192680 0.252153
vt 0.226538 0.403735
vt 0.235873 0.560035
vt 0.112783 0.668871
vt 0.241240 0.763376
vt 0.356671 0.583664
vt 0.381710 0.567402
vt 0.882155 0.114470
vt 0.899775 0.104168
vt 0.885370 0.082301
vt 0.841933 0.126895
vt 0.863026 0.122231
vt 0.853181 0.104196
vt 0.942319 0.058946
vt 0.934246 0.049221
vt 0.917560 0.060406
vt 0.915809 0.091525
vt 0.901439 0.071389
vt 0.869302 0.093213
vt 0.836495 0.115380
vt 0.817357 0.127245
vt 0.953383 0.037357
vt 0.930019 0.076553
vt 0.928807 0.037707
vt 0.888586 0.050132
vt 0.854932 0.073077
vt 0.828422 0.105655
vt 0.907715 0.042371
vt 0.870966 0.060434
vt 0.840722 0.088048
vt 0.818436 0.099046
vt 0.927027 0.025552
vt 0.901252 0.022884
vt 0.856043 0.038421
vt 0.825648 0.074832
vt 0.877281 0.027612
vt 0.838496 0.054416
vt 0.900214 0.001953
vt 0.839569 0.015686
vt 0.807372 0.066822
vt 0.807372 0.097395
vt 0.930437 0.014204
vt 0.868170 0.002751
vt 0.818420 0.038227
vt 0.967542 0.261112
vt 0.967542 0.230538
vt 0.956478 0.228888
vt 0.956494 0.289707
vt 0.936418 0.273518
vt 0.918871 0.289513
vt 0.906743 0.325182
vt 0.897633 0.300321
vt 0.873661 0.305049
vt 0.844477 0.313729
vt 0.847887 0.302381
vt 0.821531 0.290577
vt 0.957556 0.200689
vt 0.949266 0.253102
vt 0.935344 0.312248
vt 0.874700 0.325981
vt 0.919982 0.254857
vt 0.886328 0.277802
vt 0.846107 0.290227
vt 0.946492 0.222278
vt 0.934193 0.239886
vt 0.903948 0.267500
vt 0.867199 0.285563
vt 0.938419 0.212553
vt 0.921733 0.223738
vt 0.889544 0.245633
vt 0.857354 0.267528
vt 0.905612 0.234721
vt 0.873475 0.256545
vt 0.840668 0.278712
vt 0.875139 0.223766
vt 0.859105 0.236409
vt 0.844895 0.251380
vt 0.832595 0.268988
vt 0.932981 0.201039
vt 0.911888 0.205703
vt 0.892759 0.213464
vt 0.931200 0.188884
vt 0.905425 0.186216
vt 0.881454 0.190945
vt 0.842669 0.217748
vt 0.822609 0.262378
vt 0.860216 0.201753
vt 0.829821 0.238164
vt 0.822593 0.201560
vt 0.811545 0.260728
vt 0.934610 0.177537
vt 0.904387 0.165285
vt 0.872344 0.166084
vt 0.843742 0.179018
vt 0.811545 0.230155
vt 0.952305 0.065555
vt 0.963369 0.067206
vt 0.963369 0.097779
vt 0.945093 0.089770
vt 0.932245 0.110186
vt 0.902570 0.161850
vt 0.931171 0.148916
vt 0.914698 0.126181
vt 0.840304 0.150397
vt 0.870527 0.162649
vt 0.869488 0.141717
vt 0.952321 0.126374
vt 0.893460 0.136989
vt 0.843714 0.139049
vt 0.357218 0.112822
vt 0.363133 0.090668
vt 0.353138 0.084604
vt 0.351490 0.136016
vt 0.336939 0.100833
vt 0.369452 0.068985
vt 0.302420 0.086946
vt 0.320381 0.118055
vt 0.347514 0.074354
vt 0.325371 0.080309
vt 0.347769 0.062666
vt 0.302420 0.051025
vt 0.337604 0.036473
vt 0.325614 0.056752
vt 0.320380 0.019916
vt 0.353833 0.052671
vt 0.358127 0.024905
vt 0.364083 0.047048
vt 0.387410 0.001953
vt 0.351489 0.001954
vt 0.375771 0.047302
vt 0.401964 0.037137
vt 0.381684 0.025147
vt 0.418521 0.019913
vt 0.385766 0.053366
vt 0.413533 0.057660
vt 0.436483 0.051023
vt 0.391390 0.063616
vt 0.413289 0.081218
vt 0.391135 0.075304
vt 0.436483 0.086946
vt 0.401299 0.101498
vt 0.385071 0.085299
vt 0.374821 0.090923
vt 0.418522 0.118056
vt 0.380776 0.113066
vt 0.387412 0.136017
vt 0.827316 0.561876
vt 0.826801 0.515341
vt 0.794588 0.514883
vt 0.778160 0.591256
vt 0.807713 0.604084
vt 0.865796 0.570541
vt 0.914350 0.557478
vt 0.898123 0.529504
vt 0.885158 0.602909
vt 0.914350 0.589819
vt 0.816432 0.392083
vt 0.807372 0.437731
vt 0.834988 0.434165
vt 0.813514 0.469357
vt 0.840718 0.465640
vt 0.843066 0.319477
vt 0.825399 0.346418
vt 0.849615 0.360162
vt 0.829689 0.505890
vt 0.845805 0.542450
vt 0.866844 0.524809
vt 0.842255 0.397154
vt 0.853752 0.495237
vt 0.531944 0.059221
vt 0.549357 0.053965
vt 0.548401 0.037188
vt 0.542284 0.081204
vt 0.553428 0.069598
vt 0.057005 0.638817
vt 0.042078 0.637371
vt 0.038676 0.651502
vt 0.052099 0.612309
vt 0.041074 0.621174
vt 0.035047 0.595904
vt 0.012242 0.584356
vt 0.007055 0.604166
vt 0.571074 0.001953
vt 0.548910 0.015510
vt 0.561829 0.026775
vt 0.533923 0.032723
vt 0.028803 0.613402
vt 0.025897 0.634021
vt 0.001953 0.628896
vt 0.002579 0.653329
vt 0.025871 0.654322
vt 0.568006 0.048167
vt 0.591666 0.040930
vt 0.568426 0.071369
vt 0.591666 0.067334
vt 0.561803 0.087922
vt 0.588078 0.087134
vt 0.027881 0.671525
vt 0.047586 0.662299
vt 0.001953 0.063821
vt 0.021982 0.058318
vt 0.021083 0.040205
vt 0.014295 0.088573
vt 0.026908 0.075217
vt 0.939209 0.488851
vt 0.921769 0.487249
vt 0.917859 0.502924
vt 0.933244 0.459434
vt 0.920384 0.469741
vt 0.912309 0.442118
vt 0.883765 0.431194
vt 0.878816 0.453900
vt 0.050586 0.001953
vt 0.022833 0.015781
vt 0.037002 0.029594
vt 0.004368 0.034334
vt 0.905570 0.461924
vt 0.902491 0.484065
vt 0.874143 0.479200
vt 0.874887 0.504066
vt 0.902513 0.505945
vt 0.043775 0.052296
vt 0.071848 0.044659
vt 0.044428 0.076815
vt 0.071848 0.071555
vt 0.037571 0.095955
vt 0.068762 0.094336
vt 0.905080 0.525661
vt 0.928520 0.515385
vt 0.515088 0.534074
vt 0.503437 0.063891
vt 0.951570 0.462141
vt 0.895008 0.429710
vt 0.793662 0.461567
vt 0.558838 0.911951
vt 0.553119 0.562721
vt 0.778160 0.551303
vt 0.866304 0.532826
vt 0.866844 0.333205
vt 0.583191 0.016571
vt 0.001953 0.673130
vt 0.063269 0.019919
vt 0.874143 0.526632
s 1
usemtl Texture
f 17/1/1 3/2/2 11/3/3
f 54/4/4 53/5/5 12/6/6
f 15/7/7 4/8/8 13/9/9
f 55/10/10 14/11/11 98/12/12
f 56/13/13 59/14/14 18/15/15
f 11/3/3 3/2/2 10/16/16
f 3/2/2 78/17/17 81/18/18
f 4/8/8 10/16/16 81/18/18
f 57/19/19 58/20/20 16/21/21
f 13/9/9 4/8/8 77/22/22
f 10/16/16 4/8/8 15/7/7
f 58/20/20 54/4/4 23/23/23
f 14/11/11 55/10/10 57/19/19
f 78/17/17 3/2/2 17/1/1
f 59/14/14 143/24/24 96/25/25
f 60/26/26 23/23/27 12/6/28
f 62/27/29 61/28/30 12/6/28
f 154/29/31 98/12/32 14/11/33
f 64/30/34 63/31/35 14/11/33
f 65/32/36 64/30/34 20/33/37
f 60/26/26 65/32/36 16/21/38
f 66/34/39 62/27/29 22/35/40
f 153/36/41 66/34/39 18/15/42
f 12/6/6 53/5/5 56/13/13
f 80/37/43 6/38/44 28/39/45
f 6/38/44 8/40/46 30/41/47
f 2/42/48 32/43/49 33/44/50
f 9/45/51 5/46/52 27/47/53
f 5/46/52 7/48/54 29/49/55
f 7/48/54 2/42/48 26/50/56
f 107/51/57 26/50/56 33/44/50
f 8/40/46 1/52/58 25/53/59
f 1/52/58 9/45/51 31/54/60
f 32/55/61 110/56/62 114/57/63
f 32/58/64 34/59/65 35/60/66
f 79/61/67 110/62/68 32/43/49
f 34/63/69 114/64/70 116/65/71
f 112/66/72 33/67/73 35/60/74
f 36/68/75 42/69/76 44/70/77
f 30/41/47 25/53/59 39/71/78
f 37/72/79 41/73/80 43/74/81
f 26/50/56 40/75/82 43/74/81
f 28/39/45 42/69/76 130/76/83
f 38/77/84 36/68/75 39/71/78
f 36/68/75 38/77/84 122/78/85
f 37/72/79 120/79/86 122/78/85
f 27/47/53 41/73/80 45/80/87
f 120/79/86 37/72/79 40/75/82
f 41/73/80 37/72/79 38/77/84
f 30/41/47 44/70/77 42/69/76
f 29/49/55 43/74/81 41/73/80
f 131/81/88 40/75/82 26/50/56
f 42/69/76 36/68/75 121/82/89
f 45/80/87 39/71/78 25/53/59
f 46/83/90 1/52/58 8/40/46
f 6/38/44 80/37/43 135/84/91
f 2/42/48 7/48/54 50/85/92
f 5/46/52 9/45/51 48/86/93
f 7/48/54 5/46/52 51/87/94
f 8/40/46 6/38/44 52/88/95
f 2/42/48 49/89/96 138/90/97
f 1/52/58 46/83/90 48/86/93
f 53/91/98 46/92/99 47/93/100
f 52/94/101 135/95/102 143/96/103
f 55/97/104 49/98/105 50/99/106
f 51/100/107 48/101/108 54/102/109
f 50/99/106 51/100/107 58/103/110
f 47/93/100 52/94/101 59/104/111
f 49/98/105 55/97/104 145/105/112
f 46/92/99 53/91/98 54/102/109
f 97/106/113 17/1/114 66/34/39
f 21/107/115 62/27/29 66/34/39
f 24/108/116 15/7/7 65/32/36
f 19/109/117 64/30/34 65/32/36
f 19/109/117 13/9/9 63/31/35
f 99/110/118 154/29/31 63/31/35
f 21/107/119 11/3/120 61/28/30
f 24/108/116 60/26/26 61/28/30
f 82/3/121 69/2/122 88/1/123
f 83/6/124 141/5/125 142/4/126
f 84/9/127 70/8/128 86/7/129
f 144/10/130 145/111/131 98/12/12
f 89/15/132 149/14/133 146/13/134
f 76/16/135 69/2/122 82/3/121
f 69/2/122 76/16/135 81/18/18
f 70/8/128 77/22/22 81/18/18
f 87/21/136 148/20/137 147/19/138
f 77/22/22 70/8/128 84/9/127
f 86/7/129 70/8/128 76/16/135
f 148/20/137 87/21/136 94/23/139
f 147/19/138 144/10/130 85/11/140
f 88/1/123 69/2/122 78/17/17
f 149/14/133 89/15/132 96/25/25
f 150/26/141 151/28/142 83/6/143
f 83/6/143 151/28/142 152/27/144
f 154/29/31 155/31/145 85/11/146
f 155/31/145 156/30/147 91/33/148
f 91/33/148 156/30/147 157/32/149
f 87/21/150 157/32/149 150/26/141
f 93/35/151 152/27/144 158/34/152
f 89/15/153 158/34/152 153/36/41
f 146/13/134 141/5/125 83/6/124
f 103/39/154 72/38/155 80/37/43
f 72/38/155 103/39/154 105/41/156
f 68/42/157 101/50/158 111/44/159
f 102/47/160 71/46/161 75/45/162
f 71/46/161 102/47/160 104/49/163
f 101/50/158 68/42/157 73/48/164
f 111/44/159 101/50/158 107/51/57
f 100/53/165 67/52/166 74/40/167
f 67/52/166 100/53/165 106/54/168
f 114/57/169 110/56/170 109/55/171
f 109/58/172 111/67/173 115/60/174
f 79/61/67 68/42/157 109/43/175
f 113/63/176 115/112/177 116/65/178
f 115/60/179 111/67/180 112/66/181
f 117/68/182 123/71/183 128/70/184
f 123/71/183 100/53/165 105/41/156
f 118/72/185 124/75/186 127/74/187
f 127/74/187 124/75/186 101/50/158
f 130/76/83 126/69/188 103/39/154
f 123/71/183 117/68/182 119/77/189
f 117/68/182 121/82/89 122/78/85
f 118/72/185 119/77/189 122/78/85
f 129/80/190 125/73/191 102/47/160
f 124/75/186 118/72/185 120/79/86
f 119/77/189 118/72/185 125/73/191
f 126/69/188 128/70/184 105/41/156
f 125/73/191 127/74/187 104/49/163
f 131/81/88 107/51/57 101/50/158
f 121/82/89 117/68/182 126/69/188
f 129/80/190 106/54/168 100/53/165
f 74/40/167 67/52/166 132/83/192
f 72/38/155 140/88/193 135/84/91
f 68/42/157 136/89/194 137/85/195
f 71/46/161 139/87/196 134/86/197
f 139/87/196 71/46/161 73/48/164
f 140/88/193 72/38/155 74/40/167
f 136/89/194 68/42/157 79/61/67
f 67/52/166 75/45/162 134/86/197
f 133/93/198 132/92/199 141/91/200
f 140/94/201 149/104/202 143/96/103
f 137/99/203 136/98/204 144/97/205
f 139/100/206 148/103/207 142/102/208
f 148/103/207 139/100/206 137/99/203
f 149/104/202 140/94/201 133/93/198
f 136/98/204 138/113/209 145/105/112
f 132/92/199 134/101/210 142/102/208
f 158/34/152 88/1/211 97/106/113
f 92/107/212 88/1/211 158/34/152
f 157/32/149 86/7/129 95/108/213
f 90/109/214 86/7/129 157/32/149
f 155/31/145 84/9/127 90/109/214
f 99/110/118 84/9/127 155/31/145
f 151/28/142 82/3/215 92/107/216
f 95/108/213 82/3/215 151/28/142
f 243/114/217 244/115/218 166/116/219
f 242/117/220 159/118/221 164/119/222
f 162/120/223 169/121/224 168/122/225
f 160/123/226 167/124/227 166/116/219
f 243/114/217 165/125/228 164/119/222
f 242/117/220 163/126/229 170/127/230
f 234/128/231 169/121/224 162/120/223
f 160/123/226 161/129/232 168/122/225
f 168/122/225 169/121/224 177/130/233
f 166/116/219 167/124/227 175/131/234
f 164/119/222 165/125/228 173/132/235
f 163/126/229 171/133/236 170/127/230
f 234/128/231 177/130/233 169/121/224
f 168/122/225 176/134/237 175/131/234
f 166/116/219 174/135/238 173/132/235
f 164/119/222 172/136/239 171/133/236
f 171/133/236 178/137/240 170/127/230
f 234/128/231 184/138/241 177/130/233
f 175/131/234 176/134/237 183/139/242
f 173/132/235 174/135/238 181/140/243
f 171/133/236 172/136/239 179/141/244
f 177/130/233 184/138/241 183/139/242
f 175/131/234 182/142/245 181/140/243
f 173/132/235 180/143/246 179/141/244
f 182/142/245 183/139/242 190/144/247
f 180/143/246 181/140/243 188/145/248
f 179/141/244 186/146/249 185/147/250
f 183/139/242 184/138/241 191/148/251
f 182/142/245 189/149/252 188/145/248
f 180/143/246 187/150/253 186/146/249
f 178/137/240 185/147/250 170/127/230
f 234/128/231 191/148/251 184/138/241
f 190/151/247 191/152/251 198/153/254
f 189/154/252 196/155/255 195/156/256
f 187/157/253 194/158/257 193/159/258
f 185/160/250 192/161/259 170/162/230
f 234/163/231 198/153/254 191/152/251
f 189/154/252 190/151/247 197/164/260
f 187/157/253 188/165/248 195/156/256
f 185/160/250 186/166/249 193/159/258
f 195/156/256 196/155/255 203/167/261
f 193/159/258 194/158/257 201/168/262
f 192/161/259 199/169/263 170/162/230
f 234/163/231 205/170/264 198/153/254
f 197/164/260 204/171/265 203/167/261
f 195/156/256 202/172/266 201/168/262
f 193/159/258 200/173/267 199/169/263
f 197/164/260 198/153/254 205/170/264
f 234/163/231 212/174/268 205/170/264
f 203/167/261 204/171/265 211/175/269
f 201/168/262 202/172/266 209/176/270
f 199/169/263 200/173/267 207/177/271
f 205/170/264 212/174/268 211/175/269
f 203/167/261 210/178/272 209/176/270
f 201/168/262 208/179/273 207/177/271
f 199/169/263 206/180/274 170/162/230
f 209/176/270 216/181/275 215/182/276
f 207/177/271 214/183/277 213/184/278
f 212/174/268 219/185/279 218/186/280
f 209/176/270 210/178/272 217/187/281
f 207/177/271 208/179/273 215/182/276
f 206/180/274 213/184/278 170/162/230
f 234/163/231 219/185/279 212/174/268
f 210/178/272 211/175/269 218/186/280
f 219/185/279 226/188/282 225/189/283
f 216/181/275 217/187/281 224/190/284
f 214/183/277 215/182/276 222/191/285
f 213/184/278 220/192/286 170/162/230
f 234/163/231 226/188/282 219/185/279
f 218/186/280 225/189/283 224/190/284
f 216/181/275 223/193/287 222/191/285
f 213/184/278 214/183/277 221/194/288
f 221/194/288 222/191/285 229/195/289
f 220/192/286 227/196/290 170/162/230
f 234/163/231 233/197/291 226/188/282
f 225/189/283 232/198/292 231/199/293
f 223/193/287 230/200/294 229/195/289
f 221/194/288 228/201/295 227/196/290
f 225/189/283 226/188/282 233/197/291
f 223/193/287 224/190/284 231/199/293
f 234/128/231 241/202/296 233/203/291
f 232/204/292 240/205/297 239/206/298
f 229/207/289 230/208/294 238/209/299
f 227/210/290 228/211/295 236/212/300
f 233/203/291 241/202/296 240/205/297
f 230/208/294 231/213/293 239/206/298
f 228/211/295 229/207/289 237/214/301
f 227/210/290 235/215/302 170/127/230
f 236/212/300 159/118/221 242/117/220
f 240/205/297 241/202/296 162/120/223
f 238/209/299 239/206/298 160/123/226
f 236/212/300 237/214/301 243/114/217
f 235/215/302 242/117/220 170/127/230
f 234/128/231 162/120/223 241/202/296
f 240/205/297 161/129/232 160/123/226
f 238/209/299 244/115/218 243/114/217
f 245/216/303 280/217/304 246/218/305
f 281/219/306 245/216/303 247/220/307
f 280/217/304 249/221/308 246/218/305
f 252/222/309 248/223/310 247/220/307
f 246/218/305 249/221/308 250/224/311
f 251/225/312 247/220/307 246/218/305
f 250/224/311 249/221/308 253/226/313
f 251/225/312 250/224/311 253/226/313
f 255/227/314 252/222/309 251/225/312
f 257/228/315 254/229/316 253/226/313
f 258/230/317 255/227/314 254/229/316
f 253/226/313 249/221/308 256/231/318
f 258/230/317 257/228/315 260/232/319
f 256/231/318 249/221/308 259/233/320
f 257/228/315 256/231/318 259/233/320
f 264/234/321 261/235/322 260/232/319
f 259/233/320 249/221/308 262/236/323
f 260/232/319 259/233/320 262/236/323
f 266/237/324 263/238/325 262/236/323
f 267/239/326 264/234/321 263/238/325
f 262/236/323 249/221/308 265/240/327
f 269/241/328 266/237/324 265/240/327
f 270/242/329 267/239/326 266/237/324
f 265/240/327 249/221/308 268/243/330
f 270/242/329 269/241/328 272/244/331
f 268/243/330 249/221/308 271/245/332
f 269/241/328 268/243/330 271/245/332
f 273/246/333 272/244/331 275/247/334
f 271/245/332 249/221/308 274/248/335
f 275/247/334 272/244/331 271/245/332
f 275/247/334 274/248/335 277/249/336
f 276/250/337 275/247/334 278/251/338
f 274/248/335 249/221/308 277/249/336
f 278/251/338 277/249/336 280/217/304
f 281/219/306 279/252/339 278/251/338
f 277/249/336 249/221/308 280/217/304
f 367/115/340 289/116/341 288/125/342
f 365/117/343 282/118/344 287/119/345
f 284/129/346 285/120/347 292/121/348
f 367/115/340 283/123/349 290/124/350
f 366/114/351 288/125/342 287/119/345
f 365/117/343 286/126/352 293/127/353
f 357/128/354 292/121/348 285/120/347
f 284/129/346 291/122/355 290/124/350
f 291/122/355 292/121/348 300/130/356
f 289/116/341 290/124/350 298/131/357
f 287/119/345 288/125/342 296/132/358
f 286/126/352 294/133/359 293/127/353
f 357/128/354 300/130/356 292/121/348
f 291/122/355 299/134/360 298/131/357
f 288/125/342 289/116/341 297/135/361
f 287/119/345 295/136/362 294/133/359
f 294/133/359 301/137/363 293/127/353
f 357/128/354 307/138/364 300/130/356
f 299/134/360 306/139/365 305/142/366
f 297/135/361 304/140/367 303/143/368
f 295/136/362 302/141/369 301/137/363
f 300/130/356 307/138/364 306/139/365
f 297/135/361 298/131/357 305/142/366
f 295/136/362 296/132/358 303/143/368
f 306/139/365 313/144/370 312/149/371
f 304/140/367 311/145/372 310/150/373
f 302/141/369 309/146/374 308/147/375
f 307/138/364 314/148/376 313/144/370
f 304/140/367 305/142/366 312/149/371
f 302/141/369 303/143/368 310/150/373
f 301/137/363 308/147/375 293/127/353
f 357/128/354 314/148/376 307/138/364
f 313/151/370 314/152/376 321/153/377
f 312/154/371 319/155/378 318/156/379
f 309/166/374 310/157/373 317/158/380
f 308/160/375 315/161/381 293/162/353
f 357/163/354 321/153/377 314/152/376
f 313/151/370 320/164/382 319/155/378
f 310/157/373 311/165/372 318/156/379
f 309/166/374 316/159/383 315/161/381
f 318/156/379 319/155/378 326/167/384
f 317/158/380 324/168/385 323/173/386
f 315/161/381 322/169/387 293/162/353
f 357/163/354 328/170/388 321/153/377
f 319/155/378 320/164/382 327/171/389
f 317/158/380 318/156/379 325/172/390
f 316/159/383 323/173/386 322/169/387
f 321/153/377 328/170/388 327/171/389
f 357/163/354 335/174/391 328/170/388
f 327/171/389 334/175/392 333/178/393
f 324/168/385 325/172/390 332/176/394
f 322/169/387 323/173/386 330/177/395
f 328/170/388 335/174/391 334/175/392
f 325/172/390 326/167/384 333/178/393
f 323/173/386 324/168/385 331/179/396
f 322/169/387 329/180/397 293/162/353
f 332/176/394 339/181/398 338/182/399
f 330/177/395 337/183/400 336/184/401
f 335/174/391 342/185/402 341/186/403
f 332/176/394 333/178/393 340/187/404
f 330/177/395 331/179/396 338/182/399
f 329/180/397 336/184/401 293/162/353
f 357/163/354 342/185/402 335/174/391
f 334/175/392 341/186/403 340/187/404
f 342/185/402 349/188/405 348/189/406
f 340/187/404 347/190/407 346/193/408
f 337/183/400 338/182/399 345/191/409
f 336/184/401 343/192/410 293/162/353
f 357/163/354 349/188/405 342/185/402
f 341/186/403 348/189/406 347/190/407
f 339/181/398 346/193/408 345/191/409
f 336/184/401 337/183/400 344/194/411
f 345/191/409 352/195/412 351/201/413
f 343/192/410 350/196/414 293/162/353
f 357/163/354 356/197/415 349/188/405
f 347/190/407 348/189/406 355/198/416
f 345/191/409 346/193/408 353/200/417
f 344/194/411 351/201/413 350/196/414
f 349/188/405 356/197/415 355/198/416
f 347/190/407 354/199/418 353/200/417
f 357/128/354 364/202/419 356/203/415
f 354/213/418 355/204/416 363/205/420
f 352/207/412 353/208/417 361/209/421
f 350/210/414 351/211/413 359/212/422
f 355/204/416 356/203/415 364/202/419
f 354/213/418 362/206/423 361/209/421
f 352/207/412 360/214/424 359/212/422
f 350/210/414 358/215/425 293/127/353
f 358/215/425 359/212/422 282/118/344
f 364/202/419 285/120/347 284/129/346
f 361/209/421 362/206/423 283/123/349
f 360/214/424 366/114/351 282/118/344
f 358/215/425 365/117/343 293/127/353
f 357/128/354 285/120/347 364/202/419
f 363/205/420 284/129/346 283/123/349
f 361/209/421 367/115/340 366/114/351
f 368/216/303 370/220/338 369/218/336
f 404/219/306 371/223/339 370/220/338
f 403/217/304 369/218/336 372/221/308
f 370/220/338 371/223/339 375/222/337
f 369/218/336 373/224/335 372/221/308
f 369/218/336 370/220/338 374/225/334
f 373/224/335 376/226/332 372/221/308
f 374/225/334 377/229/331 376/226/332
f 374/225/334 375/222/337 378/227/333
f 376/226/332 377/229/331 380/228/328
f 377/229/331 378/227/333 381/230/329
f 376/226/332 379/231/330 372/221/308
f 381/230/329 384/235/326 383/232/324
f 379/231/330 382/233/327 372/221/308
f 380/228/328 383/232/324 382/233/327
f 383/232/324 384/235/326 387/234/321
f 382/233/327 385/236/323 372/221/308
f 383/232/324 386/238/325 385/236/323
f 385/236/323 386/238/325 389/237/319
f 386/238/325 387/234/321 390/239/322
f 385/236/323 388/240/320 372/221/308
f 388/240/320 389/237/319 392/241/315
f 389/237/319 390/239/322 393/242/317
f 388/240/320 391/243/318 372/221/308
f 393/242/317 396/246/314 395/244/316
f 391/243/318 394/245/313 372/221/308
f 392/241/315 395/244/316 394/245/313
f 396/246/314 399/250/309 398/247/312
f 394/245/313 397/248/311 372/221/308
f 394/245/313 395/244/316 398/247/312
f 398/247/312 401/251/307 400/249/305
f 399/250/309 402/252/310 401/251/307
f 397/248/311 400/249/305 372/221/308
f 401/251/307 368/216/303 403/217/304
f 401/251/307 402/252/310 404/219/306
f 400/249/305 403/217/304 372/221/308
f 407/253/231 406/254/231 409/255/231
f 408/256/231 405/257/231 407/253/231
f 413/258/230 415/259/230 416/260/230
f 413/258/230 411/261/230 412/262/230
f 407/263/426 405/264/427 411/265/428
f 408/266/429 412/267/430 411/265/431
f 409/268/432 406/269/433 414/270/434
f 410/271/435 409/272/436 416/273/437
f 407/263/426 413/274/266 414/270/438
f 410/271/435 415/275/218 412/267/439
f 417/276/440 438/277/441 453/278/442
f 417/276/440 428/279/443 454/280/444
f 417/281/445 435/282/446 452/283/447
f 417/281/448 437/284/449 451/285/450
f 418/286/451 431/287/452 455/288/452
f 431/289/453 418/290/454 429/291/455
f 418/290/454 437/292/456 453/278/442
f 437/284/457 418/286/451 427/293/458
f 419/294/459 434/295/460 456/296/461
f 434/295/460 419/294/459 427/293/462
f 419/294/459 435/282/463 451/285/464
f 419/294/459 430/297/465 452/283/466
f 429/291/467 420/298/468 432/299/469
f 420/298/468 436/300/470 458/301/471
f 420/298/468 438/277/472 454/280/473
f 420/298/468 429/291/467 453/278/474
f 436/300/475 421/302/476 433/303/477
f 421/304/478 430/297/479 456/296/480
f 430/297/479 421/304/478 428/305/481
f 421/302/476 436/300/475 454/280/482
f 422/306/483 450/307/484 461/308/485
f 422/306/483 440/309/486 462/310/487
f 422/311/488 447/312/489 460/313/490
f 422/311/491 449/314/492 459/315/493
f 423/316/494 443/317/495 463/318/496
f 443/319/497 423/320/498 441/321/499
f 423/320/498 449/322/500 461/308/501
f 449/314/502 423/316/494 439/323/503
f 424/324/504 446/325/505 464/326/506
f 446/325/505 424/324/504 439/323/507
f 424/324/504 447/312/508 459/315/509
f 424/324/504 442/327/510 460/313/511
f 441/321/512 425/328/513 444/329/514
f 425/328/513 448/330/515 466/331/516
f 425/328/513 450/307/517 462/310/518
f 425/328/513 441/321/512 461/308/519
f 448/330/520 426/332/521 445/333/522
f 426/334/523 442/327/524 464/326/525
f 426/334/523 440/335/526 460/313/527
f 426/332/521 448/330/520 462/310/528
f 17/1/1 11/3/3 21/107/529
f 54/4/4 12/6/6 23/23/23
f 15/7/7 13/9/9 19/109/117
f 55/10/10 98/12/12 145/111/131
f 56/13/13 18/15/15 22/35/530
f 11/3/3 10/16/16 24/108/116
f 3/2/2 81/18/18 10/16/16
f 4/8/8 81/18/18 77/22/22
f 57/19/19 16/21/21 20/33/531
f 13/9/9 77/22/22 99/110/118
f 10/16/16 15/7/7 24/108/116
f 58/20/20 23/23/23 16/21/21
f 14/11/11 57/19/19 20/33/531
f 78/17/17 17/1/1 97/106/532
f 59/14/14 96/25/25 18/15/15
f 60/26/26 12/6/28 61/28/30
f 62/27/29 12/6/28 22/35/40
f 154/29/31 14/11/33 63/31/35
f 64/30/34 14/11/33 20/33/37
f 65/32/36 20/33/37 16/21/38
f 60/26/26 16/21/38 23/23/27
f 66/34/39 22/35/40 18/15/42
f 153/36/41 18/15/42 96/25/533
f 12/6/6 56/13/13 22/35/530
f 80/37/43 28/39/45 108/336/534
f 6/38/44 30/41/47 28/39/45
f 2/42/48 33/44/50 26/50/56
f 9/45/51 27/47/53 31/54/60
f 5/46/52 29/49/55 27/47/53
f 7/48/54 26/50/56 29/49/55
f 107/51/57 33/44/50 112/337/535
f 8/40/46 25/53/59 30/41/47
f 1/52/58 31/54/60 25/53/59
f 32/55/61 114/57/63 34/338/536
f 32/58/64 35/60/66 33/67/537
f 79/61/67 32/43/49 2/42/48
f 34/63/69 116/65/71 35/112/538
f 112/66/72 35/60/74 116/339/539
f 36/68/75 44/70/77 39/71/78
f 30/41/47 39/71/78 44/70/77
f 37/72/79 43/74/81 40/75/82
f 26/50/56 43/74/81 29/49/55
f 28/39/45 130/76/83 108/336/534
f 38/77/84 39/71/78 45/80/87
f 36/68/75 122/78/85 121/82/89
f 37/72/79 122/78/85 38/77/84
f 27/47/53 45/80/87 31/54/60
f 120/79/86 40/75/82 131/81/88
f 41/73/80 38/77/84 45/80/87
f 30/41/47 42/69/76 28/39/45
f 29/49/55 41/73/80 27/47/53
f 131/81/88 26/50/56 107/51/57
f 42/69/76 121/82/89 130/76/83
f 45/80/87 25/53/59 31/54/60
f 46/83/90 8/40/46 47/340/540
f 6/38/44 135/84/91 52/88/95
f 2/42/48 50/85/92 49/89/96
f 5/46/52 48/86/93 51/87/94
f 7/48/54 51/87/94 50/85/92
f 8/40/46 52/88/95 47/340/540
f 2/42/48 138/90/97 79/61/67
f 1/52/58 48/86/93 9/45/51
f 53/91/98 47/93/100 56/341/541
f 52/94/101 143/96/103 59/104/111
f 55/97/104 50/99/106 57/342/542
f 51/100/107 54/102/109 58/103/110
f 50/99/106 58/103/110 57/342/542
f 47/93/100 59/104/111 56/341/541
f 49/98/105 145/105/112 138/113/209
f 46/92/99 54/102/109 48/101/108
f 97/106/113 66/34/39 153/36/41
f 21/107/115 66/34/39 17/1/114
f 24/108/116 65/32/36 60/26/26
f 19/109/117 65/32/36 15/7/7
f 19/109/117 63/31/35 64/30/34
f 99/110/118 63/31/35 13/9/9
f 21/107/119 61/28/30 62/27/29
f 24/108/116 61/28/30 11/3/120
f 82/3/121 88/1/123 92/107/543
f 83/6/124 142/4/126 94/23/139
f 84/9/127 86/7/129 90/109/214
f 144/10/130 98/12/12 85/11/140
f 89/15/132 146/13/134 93/35/544
f 76/16/135 82/3/121 95/108/213
f 69/2/122 81/18/18 78/17/17
f 70/8/128 81/18/18 76/16/135
f 87/21/136 147/19/138 91/33/545
f 77/22/22 84/9/127 99/110/118
f 86/7/129 76/16/135 95/108/213
f 148/20/137 94/23/139 142/4/126
f 147/19/138 85/11/140 91/33/545
f 88/1/123 78/17/17 97/106/532
f 149/14/133 96/25/25 143/24/24
f 150/26/141 83/6/143 94/23/546
f 83/6/143 152/27/144 93/35/151
f 154/29/31 85/11/146 98/12/32
f 155/31/145 91/33/148 85/11/146
f 91/33/148 157/32/149 87/21/150
f 87/21/150 150/26/141 94/23/546
f 93/35/151 158/34/152 89/15/153
f 89/15/153 153/36/41 96/25/533
f 146/13/134 83/6/124 93/35/544
f 103/39/154 80/37/43 108/336/534
f 72/38/155 105/41/156 74/40/167
f 68/42/157 111/44/159 109/43/175
f 102/47/160 75/45/162 106/54/168
f 71/46/161 104/49/163 73/48/164
f 101/50/158 73/48/164 104/49/163
f 111/44/159 107/51/57 112/337/535
f 100/53/165 74/40/167 105/41/156
f 67/52/166 106/54/168 75/45/162
f 114/57/169 109/55/171 113/338/547
f 109/58/172 115/60/174 113/59/548
f 79/61/67 109/43/175 110/62/68
f 113/63/176 116/65/178 114/64/549
f 115/60/179 112/66/181 116/339/550
f 117/68/182 128/70/184 126/69/188
f 123/71/183 105/41/156 128/70/184
f 118/72/185 127/74/187 125/73/191
f 127/74/187 101/50/158 104/49/163
f 130/76/83 103/39/154 108/336/534
f 123/71/183 119/77/189 129/80/190
f 117/68/182 122/78/85 119/77/189
f 118/72/185 122/78/85 120/79/86
f 129/80/190 102/47/160 106/54/168
f 124/75/186 120/79/86 131/81/88
f 119/77/189 125/73/191 129/80/190
f 126/69/188 105/41/156 103/39/154
f 125/73/191 104/49/163 102/47/160
f 131/81/88 101/50/158 124/75/186
f 121/82/89 126/69/188 130/76/83
f 129/80/190 100/53/165 123/71/183
f 74/40/167 132/83/192 133/340/551
f 72/38/155 135/84/91 80/37/43
f 68/42/157 137/85/195 73/48/164
f 71/46/161 134/86/197 75/45/162
f 139/87/196 73/48/164 137/85/195
f 140/88/193 74/40/167 133/340/551
f 136/89/194 79/61/67 138/90/97
f 67/52/166 134/86/197 132/83/192
f 133/93/198 141/91/200 146/341/552
f 140/94/201 143/96/103 135/95/102
f 137/99/203 144/97/205 147/342/553
f 139/100/206 142/102/208 134/101/210
f 148/103/207 137/99/203 147/342/553
f 149/104/202 133/93/198 146/341/552
f 136/98/204 145/105/112 144/97/205
f 132/92/199 142/102/208 141/91/200
f 158/34/152 97/106/113 153/36/41
f 92/107/212 158/34/152 152/27/144
f 157/32/149 95/108/213 150/26/141
f 90/109/214 157/32/149 156/30/147
f 155/31/145 90/109/214 156/30/147
f 99/110/118 155/31/145 154/29/31
f 151/28/142 92/107/216 152/27/144
f 95/108/213 151/28/142 150/26/141
f 243/114/217 166/116/219 165/125/228
f 242/117/220 164/119/222 163/126/229
f 162/120/223 168/122/225 161/129/232
f 160/123/226 166/116/219 244/115/218
f 243/114/217 164/119/222 159/118/221
f 160/123/226 168/122/225 167/124/227
f 168/122/225 177/130/233 176/134/237
f 166/116/219 175/131/234 174/135/238
f 164/119/222 173/132/235 172/136/239
f 168/122/225 175/131/234 167/124/227
f 166/116/219 173/132/235 165/125/228
f 164/119/222 171/133/236 163/126/229
f 175/131/234 183/139/242 182/142/245
f 173/132/235 181/140/243 180/143/246
f 171/133/236 179/141/244 178/137/240
f 177/130/233 183/139/242 176/134/237
f 175/131/234 181/140/243 174/135/238
f 173/132/235 179/141/244 172/136/239
f 182/142/245 190/144/247 189/149/252
f 180/143/246 188/145/248 187/150/253
f 179/141/244 185/147/250 178/137/240
f 183/139/242 191/148/251 190/144/247
f 182/142/245 188/145/248 181/140/243
f 180/143/246 186/146/249 179/141/244
f 190/151/247 198/153/254 197/164/260
f 189/154/252 195/156/256 188/165/248
f 187/157/253 193/159/258 186/166/249
f 189/154/252 197/164/260 196/155/255
f 187/157/253 195/156/256 194/158/257
f 185/160/250 193/159/258 192/161/259
f 195/156/256 203/167/261 202/172/266
f 193/159/258 201/168/262 200/173/267
f 197/164/260 203/167/261 196/155/255
f 195/156/256 201/168/262 194/158/257
f 193/159/258 199/169/263 192/161/259
f 197/164/260 205/170/264 204/171/265
f 203/167/261 211/175/269 210/178/272
f 201/168/262 209/176/270 208/179/273
f 199/169/263 207/177/271 206/180/274
f 205/170/264 211/175/269 204/171/265
f 203/167/261 209/176/270 202/172/266
f 201/168/262 207/177/271 200/173/267
f 209/176/270 215/182/276 208/179/273
f 207/177/271 213/184/278 206/180/274
f 212/174/268 218/186/280 211/175/269
f 209/176/270 217/187/281 216/181/275
f 207/177/271 215/182/276 214/183/277
f 210/178/272 218/186/280 217/187/281
f 219/185/279 225/189/283 218/186/280
f 216/181/275 224/190/284 223/193/287
f 214/183/277 222/191/285 221/194/288
f 218/186/280 224/190/284 217/187/281
f 216/181/275 222/191/285 215/182/276
f 213/184/278 221/194/288 220/192/286
f 221/194/288 229/195/289 228/201/295
f 225/189/283 231/199/293 224/190/284
f 223/193/287 229/195/289 222/191/285
f 221/194/288 227/196/290 220/192/286
f 225/189/283 233/197/291 232/198/292
f 223/193/287 231/199/293 230/200/294
f 232/204/292 239/206/298 231/213/293
f 229/207/289 238/209/299 237/214/301
f 227/210/290 236/212/300 235/215/302
f 233/203/291 240/205/297 232/204/292
f 230/208/294 239/206/298 238/209/299
f 228/211/295 237/214/301 236/212/300
f 236/212/300 242/117/220 235/215/302
f 240/205/297 162/120/223 161/129/232
f 238/209/299 160/123/226 244/115/218
f 236/212/300 243/114/217 159/118/221
f 240/205/297 160/123/226 239/206/298
f 238/209/299 243/114/217 237/214/301
f 245/216/303 246/218/305 247/220/307
f 281/219/306 247/220/307 248/223/310
f 252/222/309 247/220/307 251/225/312
f 251/225/312 246/218/305 250/224/311
f 251/225/312 253/226/313 254/229/316
f 255/227/314 251/225/312 254/229/316
f 257/228/315 253/226/313 256/231/318
f 258/230/317 254/229/316 257/228/315
f 258/230/317 260/232/319 261/235/322
f 257/228/315 259/233/320 260/232/319
f 264/234/321 260/232/319 263/238/325
f 260/232/319 262/236/323 263/238/325
f 266/237/324 262/236/323 265/240/327
f 267/239/326 263/238/325 266/237/324
f 269/241/328 265/240/327 268/243/330
f 270/242/329 266/237/324 269/241/328
f 270/242/329 272/244/331 273/246/333
f 269/241/328 271/245/332 272/244/331
f 273/246/333 275/247/334 276/250/337
f 275/247/334 271/245/332 274/248/335
f 275/247/334 277/249/336 278/251/338
f 276/250/337 278/251/338 279/252/339
f 278/251/338 280/217/304 245/216/303
f 281/219/306 278/251/338 245/216/303
f 367/115/340 288/125/342 366/114/351
f 365/117/343 287/119/345 286/126/352
f 284/129/346 292/121/348 291/122/355
f 367/115/340 290/124/350 289/116/341
f 366/114/351 287/119/345 282/118/344
f 284/129/346 290/124/350 283/123/349
f 291/122/355 300/130/356 299/134/360
f 289/116/341 298/131/357 297/135/361
f 287/119/345 296/132/358 295/136/362
f 291/122/355 298/131/357 290/124/350
f 288/125/342 297/135/361 296/132/358
f 287/119/345 294/133/359 286/126/352
f 299/134/360 305/142/366 298/131/357
f 297/135/361 303/143/368 296/132/358
f 295/136/362 301/137/363 294/133/359
f 300/130/356 306/139/365 299/134/360
f 297/135/361 305/142/366 304/140/367
f 295/136/362 303/143/368 302/141/369
f 306/139/365 312/149/371 305/142/366
f 304/140/367 310/150/373 303/143/368
f 302/141/369 308/147/375 301/137/363
f 307/138/364 313/144/370 306/139/365
f 304/140/367 312/149/371 311/145/372
f 302/141/369 310/150/373 309/146/374
f 313/151/370 321/153/377 320/164/382
f 312/154/371 318/156/379 311/165/372
f 309/166/374 317/158/380 316/159/383
f 313/151/370 319/155/378 312/154/371
f 310/157/373 318/156/379 317/158/380
f 309/166/374 315/161/381 308/160/375
f 318/156/379 326/167/384 325/172/390
f 317/158/380 323/173/386 316/159/383
f 319/155/378 327/171/389 326/167/384
f 317/158/380 325/172/390 324/168/385
f 316/159/383 322/169/387 315/161/381
f 321/153/377 327/171/389 320/164/382
f 327/171/389 333/178/393 326/167/384
f 324/168/385 332/176/394 331/179/396
f 322/169/387 330/177/395 329/180/397
f 328/170/388 334/175/392 327/171/389
f 325/172/390 333/178/393 332/176/394
f 323/173/386 331/179/396 330/177/395
f 332/176/394 338/182/399 331/179/396
f 330/177/395 336/184/401 329/180/397
f 335/174/391 341/186/403 334/175/392
f 332/176/394 340/187/404 339/181/398
f 330/177/395 338/182/399 337/183/400
f 334/175/392 340/187/404 333/178/393
f 342/185/402 348/189/406 341/186/403
f 340/187/404 346/193/408 339/181/398
f 337/183/400 345/191/409 344/194/411
f 341/186/403 347/190/407 340/187/404
f 339/181/398 345/191/409 338/182/399
f 336/184/401 344/194/411 343/192/410
f 345/191/409 351/201/413 344/194/411
f 347/190/407 355/198/416 354/199/418
f 345/191/409 353/200/417 352/195/412
f 344/194/411 350/196/414 343/192/410
f 349/188/405 355/198/416 348/189/406
f 347/190/407 353/200/417 346/193/408
f 354/213/418 363/205/420 362/206/423
f 352/207/412 361/209/421 360/214/424
f 350/210/414 359/212/422 358/215/425
f 355/204/416 364/202/419 363/205/420
f 354/213/418 361/209/421 353/208/417
f 352/207/412 359/212/422 351/211/413
f 358/215/425 282/118/344 365/117/343
f 364/202/419 284/129/346 363/205/420
f 361/209/421 283/123/349 367/115/340
f 360/214/424 282/118/344 359/212/422
f 363/205/420 283/123/349 362/206/423
f 361/209/421 366/114/351 360/214/424
f 368/216/303 369/218/336 403/217/304
f 404/219/306 370/220/338 368/216/303
f 370/220/338 375/222/337 374/225/334
f 369/218/336 374/225/334 373/224/335
f 374/225/334 376/226/332 373/224/335
f 374/225/334 378/227/333 377/229/331
f 376/226/332 380/228/328 379/231/330
f 377/229/331 381/230/329 380/228/328
f 381/230/329 383/232/324 380/228/328
f 380/228/328 382/233/327 379/231/330
f 383/232/324 387/234/321 386/238/325
f 383/232/324 385/236/323 382/233/327
f 385/236/323 389/237/319 388/240/320
f 386/238/325 390/239/322 389/237/319
f 388/240/320 392/241/315 391/243/318
f 389/237/319 393/242/317 392/241/315
f 393/242/317 395/244/316 392/241/315
f 392/241/315 394/245/313 391/243/318
f 396/246/314 398/247/312 395/244/316
f 394/245/313 398/247/312 397/248/311
f 398/247/312 400/249/305 397/248/311
f 399/250/309 401/251/307 398/247/312
f 401/251/307 403/217/304 400/249/305
f 401/251/307 404/219/306 368/216/303
f 407/253/231 409/255/231 410/343/231
f 408/256/231 407/253/231 410/343/231
f 413/258/230 416/260/230 414/344/230
f 413/258/230 412/262/230 415/259/230
f 407/263/426 411/265/428 413/274/266
f 408/266/429 411/265/431 405/264/554
f 409/268/432 414/270/434 416/345/555
f 410/271/435 416/273/437 415/275/218
f 407/263/426 414/270/438 406/269/556
f 410/271/435 412/267/439 408/266/557
f 417/276/440 453/278/442 437/292/456
f 417/276/440 454/280/444 438/277/441
f 417/281/445 452/283/447 428/305/558
f 417/281/448 451/285/450 435/282/559
f 418/286/451 455/288/452 427/293/458
f 431/289/453 429/291/455 457/346/453
f 418/290/454 453/278/442 429/291/455
f 437/284/457 427/293/458 451/285/560
f 419/294/459 456/296/461 430/297/465
f 434/295/460 427/293/462 455/288/561
f 419/294/459 451/285/464 427/293/462
f 419/294/459 452/283/466 435/282/463
f 429/291/467 432/299/469 457/346/562
f 420/298/468 458/301/471 432/299/469
f 420/298/468 454/280/473 436/300/470
f 420/298/468 453/278/474 438/277/472
f 436/300/475 433/303/477 458/301/477
f 421/304/478 456/296/480 433/347/480
f 430/297/479 428/305/481 452/283/563
f 421/302/476 454/280/482 428/279/564
f 422/306/483 461/308/485 449/322/565
f 422/306/483 462/310/487 450/307/484
f 422/311/488 460/313/490 440/335/566
f 422/311/491 459/315/493 447/312/567
f 423/316/494 463/318/496 439/323/503
f 443/319/497 441/321/499 465/348/568
f 423/320/498 461/308/501 441/321/499
f 449/314/502 439/323/503 459/315/569
f 424/324/504 464/326/506 442/327/510
f 446/325/505 439/323/507 463/318/570
f 424/324/504 459/315/509 439/323/507
f 424/324/504 460/313/511 447/312/571
f 441/321/512 444/329/514 465/348/572
f 425/328/513 466/331/516 444/329/514
f 425/328/513 462/310/518 448/330/515
f 425/328/513 461/308/519 450/307/517
f 448/330/520 445/333/522 466/331/573
f 426/334/523 464/326/525 445/349/574
f 426/334/523 460/313/527 442/327/524
f 426/332/521 462/310/528 440/309/575
