# Blender 4.1.1
# www.blender.org
mtllib stage_2_Text.mtl
o テキスト
v 1.262000 0.390199 1.106886
v 1.229561 0.392072 1.106819
v 1.199324 0.397602 1.106619
v 1.171406 0.406657 1.106294
v 1.145926 0.419106 1.105845
v 1.123001 0.434817 1.105280
v 1.102750 0.453658 1.104602
v 1.085290 0.475497 1.103815
v 1.070741 0.500202 1.102926
v 1.059219 0.527641 1.101938
v 1.050843 0.557683 1.100857
v 1.045730 0.590196 1.099686
v 1.044000 0.625047 1.098431
v 1.045906 0.656723 1.097291
v 1.051496 0.686665 1.096213
v 1.060578 0.714676 1.095205
v 1.072963 0.740565 1.094273
v 1.088459 0.764135 1.093424
v 1.106875 0.785193 1.092666
v 1.128020 0.803545 1.092006
v 1.151704 0.818996 1.091449
v 1.177734 0.831351 1.091005
v 1.205921 0.840417 1.090678
v 1.236073 0.845999 1.090477
v 1.268000 0.847903 1.090409
v 1.275464 0.847797 1.090412
v 1.282880 0.847472 1.090424
v 1.290281 0.846919 1.090444
v 1.297704 0.846126 1.090473
v 1.305182 0.845083 1.090510
v 1.312750 0.843780 1.090557
v 1.320443 0.842207 1.090614
v 1.328296 0.840352 1.090680
v 1.336344 0.838206 1.090758
v 1.344620 0.835758 1.090846
v 1.353161 0.832997 1.090945
v 1.362000 0.829914 1.091056
v 1.362000 1.071758 1.082350
v 1.451000 1.071758 1.082350
v 1.451000 0.390199 1.106886
v 1.354638 0.753819 1.093796
v 1.347518 0.756388 1.093703
v 1.340594 0.758679 1.093621
v 1.333815 0.760700 1.093548
v 1.327133 0.762457 1.093485
v 1.320500 0.763957 1.093431
v 1.313867 0.765207 1.093386
v 1.307185 0.766215 1.093349
v 1.300406 0.766986 1.093322
v 1.293481 0.767529 1.093302
v 1.286362 0.767849 1.093291
v 1.279000 0.767955 1.093287
v 1.258101 0.766681 1.093333
v 1.238472 0.762930 1.093468
v 1.220219 0.756805 1.093688
v 1.203444 0.748412 1.093990
v 1.188253 0.737852 1.094370
v 1.174750 0.725232 1.094825
v 1.163038 0.710655 1.095350
v 1.153222 0.694225 1.095941
v 1.145406 0.676045 1.096596
v 1.139694 0.656221 1.097309
v 1.136191 0.634857 1.098078
v 1.135000 0.612056 1.098899
v 1.135729 0.591531 1.099638
v 1.137995 0.572026 1.100340
v 1.141922 0.553687 1.101000
v 1.147630 0.536660 1.101613
v 1.155240 0.521090 1.102174
v 1.164875 0.507123 1.102677
v 1.176656 0.494906 1.103117
v 1.190704 0.484583 1.103488
v 1.207141 0.476300 1.103786
v 1.226088 0.470203 1.104006
v 1.247667 0.466438 1.104141
v 1.272000 0.465151 1.104188
v 1.362000 0.465151 1.104188
v 1.362000 0.750966 1.093898
v 0.652000 0.779947 1.092855
v 0.660824 0.790311 1.092482
v 0.670259 0.799901 1.092137
v 0.680250 0.808694 1.091820
v 0.690741 0.816664 1.091533
v 0.701676 0.823787 1.091277
v 0.713000 0.830039 1.091052
v 0.724657 0.835396 1.090859
v 0.736593 0.839834 1.090699
v 0.748750 0.843328 1.090573
v 0.761074 0.845853 1.090482
v 0.773509 0.847386 1.090427
v 0.786000 0.847903 1.090409
v 0.806866 0.846691 1.090452
v 0.826847 0.843040 1.090584
v 0.845766 0.836926 1.090804
v 0.863444 0.828323 1.091114
v 0.879707 0.817208 1.091514
v 0.894375 0.803556 1.092005
v 0.907273 0.787344 1.092589
v 0.918222 0.768547 1.093266
v 0.927047 0.747140 1.094036
v 0.933569 0.723099 1.094902
v 0.937613 0.696401 1.095863
v 0.939000 0.667020 1.096920
v 0.939000 0.390199 1.106886
v 0.850000 0.390199 1.106886
v 0.850000 0.668019 1.096884
v 0.849300 0.684018 1.096309
v 0.847232 0.698990 1.095770
v 0.843844 0.712865 1.095270
v 0.839185 0.725575 1.094813
v 0.833304 0.737049 1.094399
v 0.826250 0.747218 1.094033
v 0.818071 0.756013 1.093717
v 0.808815 0.763365 1.093452
v 0.798531 0.769204 1.093242
v 0.787269 0.773460 1.093089
v 0.775075 0.776065 1.092995
v 0.762000 0.776949 1.092963
v 0.752406 0.776568 1.092977
v 0.743079 0.775399 1.093019
v 0.733953 0.773404 1.093091
v 0.724963 0.770545 1.093194
v 0.716042 0.766785 1.093329
v 0.707125 0.762083 1.093498
v 0.698145 0.756404 1.093703
v 0.689037 0.749707 1.093944
v 0.679734 0.741956 1.094223
v 0.670171 0.733111 1.094541
v 0.660282 0.723136 1.094900
v 0.650000 0.711991 1.095302
v 0.650000 0.390199 1.106886
v 0.561000 0.390199 1.106886
v 0.561000 0.838909 1.090732
v 0.650000 0.838909 1.090732
v 0.650000 0.779947 1.092855
v 0.034000 0.390199 1.106886
v 0.034000 0.397195 1.106634
v 0.053311 0.420583 1.105792
v 0.073569 0.445145 1.104908
v 0.094516 0.470678 1.103989
v 0.115889 0.496982 1.103042
v 0.137429 0.523855 1.102074
v 0.158875 0.551095 1.101094
v 0.179967 0.578502 1.100107
v 0.200444 0.605874 1.099122
v 0.220047 0.633011 1.098145
v 0.238514 0.659710 1.097184
v 0.255585 0.685771 1.096245
v 0.271000 0.710991 1.095338
v 0.278667 0.724321 1.094858
v 0.285667 0.736928 1.094404
v 0.292000 0.748967 1.093970
v 0.297667 0.760589 1.093552
v 0.302667 0.771947 1.093143
v 0.307000 0.783195 1.092738
v 0.310667 0.794484 1.092332
v 0.313667 0.805967 1.091918
v 0.316000 0.817797 1.091493
v 0.317667 0.830127 1.091049
v 0.318667 0.843110 1.090581
v 0.319000 0.856897 1.090085
v 0.317977 0.875159 1.089427
v 0.314986 0.892397 1.088807
v 0.310141 0.908504 1.088227
v 0.303556 0.923372 1.087692
v 0.295345 0.936894 1.087205
v 0.285625 0.948962 1.086771
v 0.274509 0.959469 1.086392
v 0.262111 0.968306 1.086074
v 0.248547 0.975367 1.085820
v 0.233931 0.980544 1.085634
v 0.218377 0.983729 1.085519
v 0.202000 0.984814 1.085480
v 0.189727 0.984341 1.085497
v 0.177398 0.982862 1.085550
v 0.165000 0.980286 1.085643
v 0.152519 0.976523 1.085778
v 0.139940 0.971484 1.085960
v 0.127250 0.965077 1.086190
v 0.114435 0.957213 1.086474
v 0.101481 0.947801 1.086812
v 0.088375 0.936751 1.087210
v 0.075102 0.923974 1.087670
v 0.061648 0.909378 1.088196
v 0.048000 0.892874 1.088790
v 0.048000 1.015794 1.084365
v 0.061671 1.026309 1.083986
v 0.075204 1.035874 1.083642
v 0.088625 1.044494 1.083331
v 0.101963 1.052178 1.083055
v 0.115245 1.058932 1.082812
v 0.128500 1.064762 1.082602
v 0.141755 1.069677 1.082425
v 0.155037 1.073683 1.082281
v 0.168375 1.076786 1.082169
v 0.181796 1.078994 1.082089
v 0.195329 1.080314 1.082042
v 0.209000 1.080752 1.082026
v 0.238931 1.078968 1.082090
v 0.267116 1.073729 1.082279
v 0.293391 1.065200 1.082586
v 0.317593 1.053547 1.083005
v 0.339558 1.038939 1.083531
v 0.359125 1.021540 1.084158
v 0.376129 1.001518 1.084879
v 0.390407 0.979040 1.085688
v 0.401797 0.954271 1.086579
v 0.410134 0.927379 1.087548
v 0.415256 0.898530 1.088586
v 0.417000 0.867890 1.089689
v 0.415731 0.840471 1.090676
v 0.411852 0.813434 1.091650
v 0.405250 0.786411 1.092622
v 0.395815 0.759034 1.093608
v 0.383435 0.730936 1.094620
v 0.368000 0.701747 1.095670
v 0.349398 0.671102 1.096774
v 0.327519 0.638631 1.097942
v 0.302250 0.603967 1.099190
v 0.273481 0.566742 1.100531
v 0.241102 0.526589 1.101976
v 0.205000 0.483139 1.103540
v 0.466000 0.483139 1.103540
v 0.466000 0.390199 1.106886
v 1.262000 0.300811 -1.376105
v 1.229561 0.302684 -1.376173
v 1.199324 0.308214 -1.376372
v 1.171406 0.317270 -1.376698
v 1.145926 0.329719 -1.377146
v 1.123001 0.345430 -1.377712
v 1.102750 0.364270 -1.378390
v 1.085290 0.386109 -1.379176
v 1.070741 0.410814 -1.380066
v 1.059219 0.438254 -1.381053
v 1.050843 0.468296 -1.382135
v 1.045730 0.500808 -1.383305
v 1.044000 0.535659 -1.384560
v 1.045906 0.567336 -1.385700
v 1.051496 0.597277 -1.386778
v 1.060578 0.625289 -1.387787
v 1.072963 0.651177 -1.388719
v 1.088459 0.674748 -1.389567
v 1.106875 0.695806 -1.390325
v 1.128020 0.714157 -1.390986
v 1.151704 0.729608 -1.391542
v 1.177734 0.741963 -1.391987
v 1.205921 0.751029 -1.392313
v 1.236073 0.756611 -1.392514
v 1.268000 0.758515 -1.392583
v 1.275464 0.758409 -1.392579
v 1.282880 0.758085 -1.392567
v 1.290281 0.757531 -1.392547
v 1.297704 0.756738 -1.392519
v 1.305182 0.755696 -1.392481
v 1.312750 0.754393 -1.392434
v 1.320443 0.752819 -1.392378
v 1.328296 0.750964 -1.392311
v 1.336344 0.748818 -1.392234
v 1.344620 0.746370 -1.392146
v 1.353161 0.743610 -1.392046
v 1.362000 0.740527 -1.391935
v 1.362000 0.982370 -1.400642
v 1.451000 0.982370 -1.400642
v 1.451000 0.300811 -1.376105
v 1.354638 0.664431 -1.389196
v 1.347518 0.667000 -1.389288
v 1.340594 0.669292 -1.389371
v 1.333815 0.671312 -1.389444
v 1.327133 0.673069 -1.389507
v 1.320500 0.674569 -1.389561
v 1.313867 0.675820 -1.389606
v 1.307185 0.676827 -1.389642
v 1.300406 0.677599 -1.389670
v 1.293481 0.678141 -1.389689
v 1.286362 0.678462 -1.389701
v 1.279000 0.678567 -1.389705
v 1.258101 0.677293 -1.389659
v 1.238472 0.673542 -1.389524
v 1.220219 0.667418 -1.389303
v 1.203444 0.659024 -1.389001
v 1.188253 0.648465 -1.388621
v 1.174750 0.635844 -1.388167
v 1.163038 0.621267 -1.387642
v 1.153222 0.604837 -1.387050
v 1.145406 0.586658 -1.386396
v 1.139694 0.566834 -1.385682
v 1.136191 0.545469 -1.384913
v 1.135000 0.522668 -1.384092
v 1.135729 0.502143 -1.383353
v 1.137995 0.482638 -1.382651
v 1.141922 0.464299 -1.381991
v 1.147630 0.447272 -1.381378
v 1.155240 0.431702 -1.380818
v 1.164875 0.417736 -1.380315
v 1.176656 0.405518 -1.379875
v 1.190704 0.395195 -1.379503
v 1.207141 0.386912 -1.379205
v 1.226088 0.380815 -1.378986
v 1.247667 0.377050 -1.378850
v 1.272000 0.375763 -1.378804
v 1.362000 0.375763 -1.378804
v 1.362000 0.661578 -1.389093
v 0.652000 0.690559 -1.390136
v 0.660824 0.700923 -1.390509
v 0.670259 0.710514 -1.390855
v 0.680250 0.719306 -1.391171
v 0.690741 0.727276 -1.391458
v 0.701676 0.734399 -1.391715
v 0.713000 0.740652 -1.391940
v 0.724657 0.746009 -1.392133
v 0.736593 0.750446 -1.392292
v 0.748750 0.753940 -1.392418
v 0.761074 0.756465 -1.392509
v 0.773509 0.757999 -1.392564
v 0.786000 0.758515 -1.392583
v 0.806866 0.757303 -1.392539
v 0.826847 0.753652 -1.392408
v 0.845766 0.747538 -1.392188
v 0.863444 0.738935 -1.391878
v 0.879707 0.727820 -1.391478
v 0.894375 0.714169 -1.390986
v 0.907273 0.697956 -1.390403
v 0.918222 0.679159 -1.389726
v 0.927047 0.657752 -1.388955
v 0.933569 0.633712 -1.388090
v 0.937613 0.607013 -1.387129
v 0.939000 0.577632 -1.386071
v 0.939000 0.300811 -1.376105
v 0.850000 0.300811 -1.376105
v 0.850000 0.578632 -1.386107
v 0.849300 0.594630 -1.386683
v 0.847232 0.609602 -1.387222
v 0.843844 0.623477 -1.387721
v 0.839185 0.636187 -1.388179
v 0.833304 0.647661 -1.388592
v 0.826250 0.657830 -1.388958
v 0.818071 0.666625 -1.389275
v 0.808815 0.673977 -1.389539
v 0.798531 0.679816 -1.389750
v 0.787269 0.684072 -1.389903
v 0.775075 0.686677 -1.389997
v 0.762000 0.687561 -1.390028
v 0.752406 0.687180 -1.390015
v 0.743079 0.686011 -1.389973
v 0.733953 0.684016 -1.389901
v 0.724963 0.681158 -1.389798
v 0.716042 0.677397 -1.389663
v 0.707125 0.672696 -1.389493
v 0.698145 0.667016 -1.389289
v 0.689037 0.660319 -1.389048
v 0.679734 0.652568 -1.388769
v 0.670171 0.643724 -1.388450
v 0.660282 0.633748 -1.388091
v 0.650000 0.622603 -1.387690
v 0.650000 0.300811 -1.376105
v 0.561000 0.300811 -1.376105
v 0.561000 0.749521 -1.392259
v 0.650000 0.749521 -1.392259
v 0.650000 0.690559 -1.390136
v 0.034000 0.300811 -1.376105
v 0.034000 0.307807 -1.376357
v 0.053311 0.331196 -1.377199
v 0.073569 0.355757 -1.378083
v 0.094516 0.381291 -1.379003
v 0.115889 0.407594 -1.379950
v 0.137429 0.434467 -1.380917
v 0.158875 0.461707 -1.381898
v 0.179967 0.489114 -1.382884
v 0.200444 0.516487 -1.383870
v 0.220047 0.543623 -1.384847
v 0.238514 0.570322 -1.385808
v 0.255585 0.596383 -1.386746
v 0.271000 0.621604 -1.387654
v 0.278667 0.634933 -1.388134
v 0.285667 0.647541 -1.388588
v 0.292000 0.659579 -1.389021
v 0.297667 0.671201 -1.389439
v 0.302667 0.682560 -1.389848
v 0.307000 0.693807 -1.390253
v 0.310667 0.705096 -1.390660
v 0.313667 0.716579 -1.391073
v 0.316000 0.728410 -1.391499
v 0.317667 0.740739 -1.391943
v 0.318667 0.753722 -1.392410
v 0.319000 0.767509 -1.392907
v 0.317977 0.785771 -1.393564
v 0.314986 0.803009 -1.394185
v 0.310141 0.819116 -1.394764
v 0.303556 0.833985 -1.395300
v 0.295345 0.847506 -1.395786
v 0.285625 0.859574 -1.396221
v 0.274509 0.870081 -1.396599
v 0.262111 0.878918 -1.396917
v 0.248547 0.885979 -1.397171
v 0.233931 0.891156 -1.397358
v 0.218377 0.894341 -1.397473
v 0.202000 0.895426 -1.397512
v 0.189727 0.894953 -1.397495
v 0.177398 0.893474 -1.397441
v 0.165000 0.890898 -1.397349
v 0.152519 0.887135 -1.397213
v 0.139940 0.882096 -1.397032
v 0.127250 0.875689 -1.396801
v 0.114435 0.867825 -1.396518
v 0.101481 0.858413 -1.396179
v 0.088375 0.847364 -1.395781
v 0.075102 0.834586 -1.395321
v 0.061648 0.819990 -1.394796
v 0.048000 0.803486 -1.394202
v 0.048000 0.926406 -1.398627
v 0.061671 0.936921 -1.399005
v 0.075204 0.946486 -1.399350
v 0.088625 0.955106 -1.399660
v 0.101963 0.962790 -1.399937
v 0.115245 0.969544 -1.400180
v 0.128500 0.975375 -1.400390
v 0.141755 0.980289 -1.400567
v 0.155037 0.984295 -1.400711
v 0.168375 0.987398 -1.400823
v 0.181796 0.989606 -1.400902
v 0.195329 0.990926 -1.400950
v 0.209000 0.991364 -1.400965
v 0.238931 0.989581 -1.400901
v 0.267116 0.984341 -1.400712
v 0.293391 0.975812 -1.400405
v 0.317593 0.964160 -1.399986
v 0.339558 0.949551 -1.399460
v 0.359125 0.932153 -1.398834
v 0.376129 0.912131 -1.398113
v 0.390407 0.889652 -1.397304
v 0.401797 0.864884 -1.396412
v 0.410134 0.837991 -1.395444
v 0.415256 0.809142 -1.394405
v 0.417000 0.778502 -1.393302
v 0.415731 0.751084 -1.392315
v 0.411852 0.724047 -1.391342
v 0.405250 0.697024 -1.390369
v 0.395815 0.669647 -1.389384
v 0.383435 0.641548 -1.388372
v 0.368000 0.612360 -1.387321
v 0.349398 0.581714 -1.386218
v 0.327519 0.549243 -1.385049
v 0.302250 0.514579 -1.383801
v 0.273481 0.477355 -1.382461
v 0.241102 0.437201 -1.381015
v 0.205000 0.393751 -1.379451
v 0.466000 0.393751 -1.379451
v 0.466000 0.300811 -1.376105
v 0.034000 0.300811 -1.376105
v 0.034000 0.390199 1.106886
v 0.034000 0.307807 -1.376357
v 0.034000 0.397195 1.106634
v 0.053311 0.331196 -1.377199
v 0.053311 0.420583 1.105792
v 0.073569 0.355757 -1.378083
v 0.073569 0.445145 1.104908
v 0.094516 0.381291 -1.379003
v 0.094516 0.470678 1.103989
v 0.115889 0.407594 -1.379950
v 0.115889 0.496982 1.103042
v 0.137429 0.434467 -1.380917
v 0.137429 0.523855 1.102074
v 0.158875 0.461707 -1.381898
v 0.158875 0.551095 1.101094
v 0.179967 0.489114 -1.382884
v 0.179967 0.578502 1.100107
v 0.200444 0.516487 -1.383870
v 0.200444 0.605874 1.099122
v 0.220047 0.543623 -1.384847
v 0.220047 0.633011 1.098145
v 0.238514 0.570322 -1.385808
v 0.238514 0.659710 1.097184
v 0.255585 0.596383 -1.386746
v 0.255585 0.685771 1.096245
v 0.271000 0.621604 -1.387654
v 0.271000 0.710991 1.095338
v 0.278667 0.634933 -1.388134
v 0.278667 0.724321 1.094858
v 0.285667 0.647541 -1.388588
v 0.285667 0.736928 1.094404
v 0.292000 0.659579 -1.389021
v 0.292000 0.748967 1.093970
v 0.297667 0.671201 -1.389439
v 0.297667 0.760589 1.093552
v 0.302667 0.682560 -1.389848
v 0.302667 0.771947 1.093143
v 0.307000 0.693807 -1.390253
v 0.307000 0.783195 1.092738
v 0.310667 0.705096 -1.390660
v 0.310667 0.794484 1.092332
v 0.313667 0.716579 -1.391073
v 0.313667 0.805967 1.091918
v 0.316000 0.728410 -1.391499
v 0.316000 0.817797 1.091493
v 0.317667 0.740739 -1.391943
v 0.317667 0.830127 1.091049
v 0.318667 0.753722 -1.392410
v 0.318667 0.843110 1.090581
v 0.319000 0.767509 -1.392907
v 0.319000 0.856897 1.090085
v 0.317977 0.785771 -1.393564
v 0.317977 0.875159 1.089427
v 0.314986 0.803009 -1.394185
v 0.314986 0.892397 1.088807
v 0.310141 0.819116 -1.394764
v 0.310141 0.908504 1.088227
v 0.303556 0.833985 -1.395300
v 0.303556 0.923372 1.087692
v 0.295345 0.847506 -1.395786
v 0.295345 0.936894 1.087205
v 0.285625 0.859574 -1.396221
v 0.285625 0.948962 1.086771
v 0.274509 0.870081 -1.396599
v 0.274509 0.959469 1.086392
v 0.262111 0.878918 -1.396917
v 0.262111 0.968306 1.086074
v 0.248547 0.885979 -1.397171
v 0.248547 0.975367 1.085820
v 0.233931 0.891156 -1.397358
v 0.233931 0.980544 1.085634
v 0.218377 0.894341 -1.397473
v 0.218377 0.983729 1.085519
v 0.202000 0.895426 -1.397512
v 0.202000 0.984814 1.085480
v 0.189727 0.894953 -1.397495
v 0.189727 0.984341 1.085497
v 0.177398 0.893474 -1.397441
v 0.177398 0.982862 1.085550
v 0.165000 0.890898 -1.397349
v 0.165000 0.980286 1.085643
v 0.152519 0.887135 -1.397213
v 0.152519 0.976523 1.085778
v 0.139940 0.882096 -1.397032
v 0.139940 0.971484 1.085960
v 0.127250 0.875689 -1.396801
v 0.127250 0.965077 1.086190
v 0.114435 0.867825 -1.396518
v 0.114435 0.957213 1.086474
v 0.101481 0.858413 -1.396179
v 0.101481 0.947801 1.086812
v 0.088375 0.847364 -1.395781
v 0.088375 0.936751 1.087210
v 0.075102 0.834586 -1.395321
v 0.075102 0.923974 1.087670
v 0.061648 0.819990 -1.394796
v 0.061648 0.909378 1.088196
v 0.048000 0.803486 -1.394202
v 0.048000 0.892874 1.088790
v 0.048000 0.926406 -1.398627
v 0.048000 1.015794 1.084365
v 0.061671 0.936921 -1.399005
v 0.061671 1.026309 1.083986
v 0.075204 0.946486 -1.399350
v 0.075204 1.035874 1.083642
v 0.088625 0.955106 -1.399660
v 0.088625 1.044494 1.083331
v 0.101963 0.962790 -1.399937
v 0.101963 1.052178 1.083055
v 0.115245 0.969544 -1.400180
v 0.115245 1.058932 1.082812
v 0.128500 0.975375 -1.400390
v 0.128500 1.064762 1.082602
v 0.141755 0.980289 -1.400567
v 0.141755 1.069677 1.082425
v 0.155037 0.984295 -1.400711
v 0.155037 1.073683 1.082281
v 0.168375 0.987398 -1.400823
v 0.168375 1.076786 1.082169
v 0.181796 0.989606 -1.400902
v 0.181796 1.078994 1.082089
v 0.195329 0.990926 -1.400950
v 0.195329 1.080314 1.082042
v 0.209000 0.991364 -1.400965
v 0.209000 1.080752 1.082026
v 0.238931 0.989581 -1.400901
v 0.238931 1.078968 1.082090
v 0.267116 0.984341 -1.400712
v 0.267116 1.073729 1.082279
v 0.293391 0.975812 -1.400405
v 0.293391 1.065200 1.082586
v 0.317593 0.964160 -1.399986
v 0.317593 1.053547 1.083005
v 0.339558 0.949551 -1.399460
v 0.339558 1.038939 1.083531
v 0.359125 0.932153 -1.398834
v 0.359125 1.021540 1.084158
v 0.376129 0.912131 -1.398113
v 0.376129 1.001518 1.084879
v 0.390407 0.889652 -1.397304
v 0.390407 0.979040 1.085688
v 0.401797 0.864884 -1.396412
v 0.401797 0.954271 1.086579
v 0.410134 0.837991 -1.395444
v 0.410134 0.927379 1.087548
v 0.415256 0.809142 -1.394405
v 0.415256 0.898530 1.088586
v 0.417000 0.778502 -1.393302
v 0.417000 0.867890 1.089689
v 0.415731 0.751084 -1.392315
v 0.415731 0.840471 1.090676
v 0.411852 0.724047 -1.391342
v 0.411852 0.813434 1.091650
v 0.405250 0.697024 -1.390369
v 0.405250 0.786411 1.092622
v 0.395815 0.669647 -1.389384
v 0.395815 0.759034 1.093608
v 0.383435 0.641548 -1.388372
v 0.383435 0.730936 1.094620
v 0.368000 0.612360 -1.387321
v 0.368000 0.701747 1.095670
v 0.349398 0.581714 -1.386218
v 0.349398 0.671102 1.096774
v 0.327519 0.549243 -1.385049
v 0.327519 0.638631 1.097942
v 0.302250 0.514579 -1.383801
v 0.302250 0.603967 1.099190
v 0.273481 0.477355 -1.382461
v 0.273481 0.566742 1.100531
v 0.241102 0.437201 -1.381015
v 0.241102 0.526589 1.101976
v 0.205000 0.393751 -1.379451
v 0.205000 0.483139 1.103540
v 0.466000 0.393751 -1.379451
v 0.466000 0.483139 1.103540
v 0.466000 0.300811 -1.376105
v 0.466000 0.390199 1.106886
v 0.652000 0.690559 -1.390136
v 0.652000 0.779947 1.092855
v 0.660824 0.700923 -1.390509
v 0.660824 0.790311 1.092482
v 0.670259 0.710514 -1.390855
v 0.670259 0.799901 1.092137
v 0.680250 0.719306 -1.391171
v 0.680250 0.808694 1.091820
v 0.690741 0.727276 -1.391458
v 0.690741 0.816664 1.091533
v 0.701676 0.734399 -1.391715
v 0.701676 0.823787 1.091277
v 0.713000 0.740652 -1.391940
v 0.713000 0.830039 1.091052
v 0.724657 0.746009 -1.392133
v 0.724657 0.835396 1.090859
v 0.736593 0.750446 -1.392292
v 0.736593 0.839834 1.090699
v 0.748750 0.753940 -1.392418
v 0.748750 0.843328 1.090573
v 0.761074 0.756465 -1.392509
v 0.761074 0.845853 1.090482
v 0.773509 0.757999 -1.392564
v 0.773509 0.847386 1.090427
v 0.786000 0.758515 -1.392583
v 0.786000 0.847903 1.090409
v 0.806866 0.757303 -1.392539
v 0.806866 0.846691 1.090452
v 0.826847 0.753652 -1.392408
v 0.826847 0.843040 1.090584
v 0.845766 0.747538 -1.392188
v 0.845766 0.836926 1.090804
v 0.863444 0.738935 -1.391878
v 0.863444 0.828323 1.091114
v 0.879707 0.727820 -1.391478
v 0.879707 0.817208 1.091514
v 0.894375 0.714169 -1.390986
v 0.894375 0.803556 1.092005
v 0.907273 0.697956 -1.390403
v 0.907273 0.787344 1.092589
v 0.918222 0.679159 -1.389726
v 0.918222 0.768547 1.093266
v 0.927047 0.657752 -1.388955
v 0.927047 0.747140 1.094036
v 0.933569 0.633712 -1.388090
v 0.933569 0.723099 1.094902
v 0.937613 0.607013 -1.387129
v 0.937613 0.696401 1.095863
v 0.939000 0.577632 -1.386071
v 0.939000 0.667020 1.096920
v 0.939000 0.300811 -1.376105
v 0.939000 0.390199 1.106886
v 0.850000 0.300811 -1.376105
v 0.850000 0.390199 1.106886
v 0.850000 0.578632 -1.386107
v 0.850000 0.668019 1.096884
v 0.849300 0.594630 -1.386683
v 0.849300 0.684018 1.096309
v 0.847232 0.609602 -1.387222
v 0.847232 0.698990 1.095770
v 0.843844 0.623477 -1.387721
v 0.843844 0.712865 1.095270
v 0.839185 0.636187 -1.388179
v 0.839185 0.725575 1.094813
v 0.833304 0.647661 -1.388592
v 0.833304 0.737049 1.094399
v 0.826250 0.657830 -1.388958
v 0.826250 0.747218 1.094033
v 0.818071 0.666625 -1.389275
v 0.818071 0.756013 1.093717
v 0.808815 0.673977 -1.389539
v 0.808815 0.763365 1.093452
v 0.798531 0.679816 -1.389750
v 0.798531 0.769204 1.093242
v 0.787269 0.684072 -1.389903
v 0.787269 0.773460 1.093089
v 0.775075 0.686677 -1.389997
v 0.775075 0.776065 1.092995
v 0.762000 0.687561 -1.390028
v 0.762000 0.776949 1.092963
v 0.752406 0.687180 -1.390015
v 0.752406 0.776568 1.092977
v 0.743079 0.686011 -1.389973
v 0.743079 0.775399 1.093019
v 0.733953 0.684016 -1.389901
v 0.733953 0.773404 1.093091
v 0.724963 0.681158 -1.389798
v 0.724963 0.770545 1.093194
v 0.716042 0.677397 -1.389663
v 0.716042 0.766785 1.093329
v 0.707125 0.672696 -1.389493
v 0.707125 0.762083 1.093498
v 0.698145 0.667016 -1.389289
v 0.698145 0.756404 1.093703
v 0.689037 0.660319 -1.389048
v 0.689037 0.749707 1.093944
v 0.679734 0.652568 -1.388769
v 0.679734 0.741956 1.094223
v 0.670171 0.643724 -1.388450
v 0.670171 0.733111 1.094541
v 0.660282 0.633748 -1.388091
v 0.660282 0.723136 1.094900
v 0.650000 0.622603 -1.387690
v 0.650000 0.711991 1.095302
v 0.650000 0.300811 -1.376105
v 0.650000 0.390199 1.106886
v 0.561000 0.300811 -1.376105
v 0.561000 0.390199 1.106886
v 0.561000 0.749521 -1.392259
v 0.561000 0.838909 1.090732
v 0.650000 0.749521 -1.392259
v 0.650000 0.838909 1.090732
v 0.650000 0.690559 -1.390136
v 0.650000 0.779947 1.092855
v 1.262000 0.300811 -1.376105
v 1.262000 0.390199 1.106886
v 1.229561 0.302684 -1.376173
v 1.229561 0.392072 1.106819
v 1.199324 0.308214 -1.376372
v 1.199324 0.397602 1.106619
v 1.171406 0.317270 -1.376698
v 1.171406 0.406657 1.106294
v 1.145926 0.329719 -1.377146
v 1.145926 0.419106 1.105845
v 1.123001 0.345430 -1.377712
v 1.123001 0.434817 1.105280
v 1.102750 0.364270 -1.378390
v 1.102750 0.453658 1.104602
v 1.085290 0.386109 -1.379176
v 1.085290 0.475497 1.103815
v 1.070741 0.410814 -1.380066
v 1.070741 0.500202 1.102926
v 1.059219 0.438254 -1.381053
v 1.059219 0.527641 1.101938
v 1.050843 0.468296 -1.382135
v 1.050843 0.557683 1.100857
v 1.045730 0.500808 -1.383305
v 1.045730 0.590196 1.099686
v 1.044000 0.535659 -1.384560
v 1.044000 0.625047 1.098431
v 1.045906 0.567336 -1.385700
v 1.045906 0.656723 1.097291
v 1.051496 0.597277 -1.386778
v 1.051496 0.686665 1.096213
v 1.060578 0.625289 -1.387787
v 1.060578 0.714676 1.095205
v 1.072963 0.651177 -1.388719
v 1.072963 0.740565 1.094273
v 1.088459 0.674748 -1.389567
v 1.088459 0.764135 1.093424
v 1.106875 0.695806 -1.390325
v 1.106875 0.785193 1.092666
v 1.128020 0.714157 -1.390986
v 1.128020 0.803545 1.092006
v 1.151704 0.729608 -1.391542
v 1.151704 0.818996 1.091449
v 1.177734 0.741963 -1.391987
v 1.177734 0.831351 1.091005
v 1.205921 0.751029 -1.392313
v 1.205921 0.840417 1.090678
v 1.236073 0.756611 -1.392514
v 1.236073 0.845999 1.090477
v 1.268000 0.758515 -1.392583
v 1.268000 0.847903 1.090409
v 1.275464 0.758409 -1.392579
v 1.275464 0.847797 1.090412
v 1.282880 0.758085 -1.392567
v 1.282880 0.847472 1.090424
v 1.290281 0.757531 -1.392547
v 1.290281 0.846919 1.090444
v 1.297704 0.756738 -1.392519
v 1.297704 0.846126 1.090473
v 1.305182 0.755696 -1.392481
v 1.305182 0.845083 1.090510
v 1.312750 0.754393 -1.392434
v 1.312750 0.843780 1.090557
v 1.320443 0.752819 -1.392378
v 1.320443 0.842207 1.090614
v 1.328296 0.750964 -1.392311
v 1.328296 0.840352 1.090680
v 1.336344 0.748818 -1.392234
v 1.336344 0.838206 1.090758
v 1.344620 0.746370 -1.392146
v 1.344620 0.835758 1.090846
v 1.353161 0.743610 -1.392046
v 1.353161 0.832997 1.090945
v 1.362000 0.740527 -1.391935
v 1.362000 0.829914 1.091056
v 1.362000 0.982370 -1.400642
v 1.362000 1.071758 1.082350
v 1.451000 0.982370 -1.400642
v 1.451000 1.071758 1.082350
v 1.451000 0.300811 -1.376105
v 1.451000 0.390199 1.106886
v 1.354638 0.664431 -1.389196
v 1.354638 0.753819 1.093796
v 1.347518 0.667000 -1.389288
v 1.347518 0.756388 1.093703
v 1.340594 0.669292 -1.389371
v 1.340594 0.758679 1.093621
v 1.333815 0.671312 -1.389444
v 1.333815 0.760700 1.093548
v 1.327133 0.673069 -1.389507
v 1.327133 0.762457 1.093485
v 1.320500 0.674569 -1.389561
v 1.320500 0.763957 1.093431
v 1.313867 0.675820 -1.389606
v 1.313867 0.765207 1.093386
v 1.307185 0.676827 -1.389642
v 1.307185 0.766215 1.093349
v 1.300406 0.677599 -1.389670
v 1.300406 0.766986 1.093322
v 1.293481 0.678141 -1.389689
v 1.293481 0.767529 1.093302
v 1.286362 0.678462 -1.389701
v 1.286362 0.767849 1.093291
v 1.279000 0.678567 -1.389705
v 1.279000 0.767955 1.093287
v 1.258101 0.677293 -1.389659
v 1.258101 0.766681 1.093333
v 1.238472 0.673542 -1.389524
v 1.238472 0.762930 1.093468
v 1.220219 0.667418 -1.389303
v 1.220219 0.756805 1.093688
v 1.203444 0.659024 -1.389001
v 1.203444 0.748412 1.093990
v 1.188253 0.648465 -1.388621
v 1.188253 0.737852 1.094370
v 1.174750 0.635844 -1.388167
v 1.174750 0.725232 1.094825
v 1.163038 0.621267 -1.387642
v 1.163038 0.710655 1.095350
v 1.153222 0.604837 -1.387050
v 1.153222 0.694225 1.095941
v 1.145406 0.586658 -1.386396
v 1.145406 0.676045 1.096596
v 1.139694 0.566834 -1.385682
v 1.139694 0.656221 1.097309
v 1.136191 0.545469 -1.384913
v 1.136191 0.634857 1.098078
v 1.135000 0.522668 -1.384092
v 1.135000 0.612056 1.098899
v 1.135729 0.502143 -1.383353
v 1.135729 0.591531 1.099638
v 1.137995 0.482638 -1.382651
v 1.137995 0.572026 1.100340
v 1.141922 0.464299 -1.381991
v 1.141922 0.553687 1.101000
v 1.147630 0.447272 -1.381378
v 1.147630 0.536660 1.101613
v 1.155240 0.431702 -1.380818
v 1.155240 0.521090 1.102174
v 1.164875 0.417736 -1.380315
v 1.164875 0.507123 1.102677
v 1.176656 0.405518 -1.379875
v 1.176656 0.494906 1.103117
v 1.190704 0.395195 -1.379503
v 1.190704 0.484583 1.103488
v 1.207141 0.386912 -1.379205
v 1.207141 0.476300 1.103786
v 1.226088 0.380815 -1.378986
v 1.226088 0.470203 1.104006
v 1.247667 0.377050 -1.378850
v 1.247667 0.466438 1.104141
v 1.272000 0.375763 -1.378804
v 1.272000 0.465151 1.104188
v 1.362000 0.375763 -1.378804
v 1.362000 0.465151 1.104188
v 1.362000 0.661578 -1.389093
v 1.362000 0.750966 1.093898
vn -0.0000 0.0360 0.9994
vn -0.0000 -0.0360 -0.9994
vn -0.7071 -0.7066 0.0254
vn -0.9411 0.3379 -0.0122
vn -0.7715 0.6358 -0.0229
vn -0.7725 0.6346 -0.0228
vn -0.7748 0.6318 -0.0227
vn -0.7784 0.6274 -0.0226
vn -0.7832 0.6214 -0.0224
vn -0.7893 0.6136 -0.0221
vn -0.7968 0.6038 -0.0217
vn -0.8059 0.5917 -0.0213
vn -0.8167 0.5766 -0.0208
vn -0.8297 0.5578 -0.0201
vn -0.8451 0.5342 -0.0192
vn -0.8603 0.5095 -0.0183
vn -0.8707 0.4915 -0.0177
vn -0.8798 0.4750 -0.0171
vn -0.8921 0.4515 -0.0163
vn -0.9073 0.4202 -0.0151
vn -0.9245 0.3809 -0.0137
vn -0.9425 0.3339 -0.0120
vn -0.9598 0.2806 -0.0101
vn -0.9748 0.2230 -0.0080
vn -0.9865 0.1636 -0.0059
vn -0.9944 0.1053 -0.0038
vn -0.9987 0.0504 -0.0018
vn -0.9999 -0.0159 0.0006
vn -0.9935 -0.1135 0.0041
vn -0.9732 -0.2297 0.0083
vn -0.9379 -0.3468 0.0125
vn -0.8865 -0.4624 0.0166
vn -0.8187 -0.5738 0.0207
vn -0.7347 -0.6779 0.0244
vn -0.6354 -0.7717 0.0278
vn -0.5226 -0.8520 0.0307
vn -0.3990 -0.9164 0.0330
vn -0.2680 -0.9628 0.0347
vn -0.1338 -0.9904 0.0357
vn -0.0138 -0.9993 0.0360
vn 0.0789 -0.9962 0.0359
vn 0.1615 -0.9862 0.0355
vn 0.2464 -0.9685 0.0349
vn 0.3308 -0.9431 0.0340
vn 0.4119 -0.9106 0.0328
vn 0.4875 -0.8725 0.0314
vn 0.5561 -0.8306 0.0299
vn 0.6168 -0.7866 0.0283
vn 0.6696 -0.7422 0.0267
vn 0.7150 -0.6987 0.0252
vn 0.7534 -0.6571 0.0237
vn -0.3385 -0.9404 0.0339
vn -0.8972 0.4414 -0.0159
vn -0.5938 0.8041 -0.0289
vn -0.5592 0.8285 -0.0298
vn -0.5202 0.8535 -0.0307
vn -0.4766 0.8785 -0.0316
vn -0.4283 0.9030 -0.0325
vn -0.3755 0.9262 -0.0333
vn -0.3185 0.9473 -0.0341
vn -0.2580 0.9655 -0.0348
vn -0.1947 0.9802 -0.0353
vn -0.1299 0.9909 -0.0357
vn -0.0646 0.9973 -0.0359
vn 0.0137 0.9993 -0.0360
vn 0.1214 0.9920 -0.0357
vn 0.2464 0.9685 -0.0349
vn 0.3723 0.9275 -0.0334
vn 0.4952 0.8682 -0.0313
vn 0.6109 0.7912 -0.0285
vn 0.7153 0.6983 -0.0251
vn 0.8053 0.5925 -0.0213
vn 0.8785 0.4775 -0.0172
vn 0.9339 0.3573 -0.0129
vn 0.9718 0.2356 -0.0085
vn 0.9933 0.1159 -0.0042
vn 1.0000 0.0053 -0.0002
vn 0.9956 -0.0941 0.0034
vn 0.9818 -0.1897 0.0068
vn 0.9595 -0.2815 0.0101
vn 0.9312 -0.3644 0.0131
vn 0.9002 -0.4351 0.0157
vn 0.8699 -0.4928 0.0177
vn 0.8425 -0.5384 0.0194
vn 0.8190 -0.5734 0.0206
vn 0.7999 -0.5997 0.0216
vn 0.7851 -0.6190 0.0223
vn 0.7740 -0.6328 0.0228
vn 0.9052 0.4247 -0.0153
vn 0.7071 0.7066 -0.0254
vn 0.7071 -0.7066 0.0254
vn -0.4195 0.9072 -0.0327
vn -0.7378 0.6746 -0.0243
vn -0.6874 0.7258 -0.0261
vn -0.6334 0.7733 -0.0278
vn -0.5760 0.8169 -0.0294
vn -0.5152 0.8565 -0.0308
vn -0.4510 0.8919 -0.0321
vn -0.3835 0.9229 -0.0332
vn -0.3128 0.9492 -0.0342
vn -0.2388 0.9704 -0.0349
vn -0.1618 0.9862 -0.0355
vn -0.0820 0.9960 -0.0359
vn 0.0083 0.9993 -0.0360
vn 0.1192 0.9922 -0.0357
vn 0.2443 0.9691 -0.0349
vn 0.3737 0.9270 -0.0334
vn 0.5025 0.8640 -0.0311
vn 0.6248 0.7803 -0.0281
vn 0.7342 0.6785 -0.0244
vn 0.8257 0.5638 -0.0203
vn 0.8965 0.4427 -0.0159
vn 0.9468 0.3217 -0.0116
vn 0.9786 0.2059 -0.0074
vn 0.9951 0.0985 -0.0035
vn 0.9997 0.0236 -0.0008
vn -0.9998 -0.0218 0.0008
vn -0.9959 -0.0903 0.0032
vn -0.9823 -0.1870 0.0067
vn -0.9567 -0.2908 0.0105
vn -0.9162 -0.4004 0.0144
vn -0.8578 -0.5136 0.0185
vn -0.7791 -0.6264 0.0226
vn -0.6793 -0.7334 0.0264
vn -0.5598 -0.8281 0.0298
vn -0.4251 -0.9045 0.0326
vn -0.2822 -0.9587 0.0345
vn -0.1386 -0.9897 0.0356
vn -0.0139 -0.9993 0.0360
vn 0.0821 -0.9960 0.0359
vn 0.1692 -0.9849 0.0355
vn 0.2587 -0.9653 0.0348
vn 0.3463 -0.9375 0.0338
vn 0.4280 -0.9032 0.0325
vn 0.5011 -0.8648 0.0311
vn 0.5640 -0.8252 0.0297
vn 0.6600 -0.7508 0.0270
vn 0.6950 -0.7186 0.0259
vn 0.7229 -0.6905 0.0249
vn 0.9315 -0.3636 0.0131
vn -0.7071 0.7066 -0.0254
vn -0.0288 -0.9989 0.0360
vn -0.1191 -0.9922 0.0357
vn -0.2449 -0.9689 0.0349
vn -0.3749 -0.9265 0.0334
vn -0.5037 -0.8633 0.0311
vn -0.6252 -0.7800 0.0281
vn -0.7333 -0.6795 0.0245
vn -0.8236 -0.5668 0.0204
vn -0.8940 -0.4478 0.0161
vn -0.9446 -0.3281 0.0118
vn -0.9772 -0.2120 0.0076
vn -0.9947 -0.1025 0.0037
vn -1.0000 0.0052 -0.0002
vn -0.9925 0.1219 -0.0044
vn -0.9692 0.2462 -0.0089
vn -0.9288 0.3704 -0.0133
vn -0.8710 0.4910 -0.0177
vn -0.7962 0.6046 -0.0218
vn -0.7060 0.7078 -0.0255
vn -0.6026 0.7975 -0.0287
vn -0.4889 0.8718 -0.0314
vn -0.3685 0.9290 -0.0334
vn -0.2448 0.9690 -0.0349
vn -0.1211 0.9920 -0.0357
vn -0.0227 0.9991 -0.0360
vn 0.0290 0.9989 -0.0360
vn 0.0592 0.9976 -0.0359
vn 0.0905 0.9953 -0.0358
vn 0.1223 0.9919 -0.0357
vn 0.1540 0.9874 -0.0355
vn 0.1852 0.9821 -0.0354
vn 0.2153 0.9759 -0.0351
vn 0.2439 0.9692 -0.0349
vn 0.2708 0.9620 -0.0346
vn 0.2958 0.9546 -0.0344
vn 0.3186 0.9473 -0.0341
vn -0.5790 0.8148 -0.0293
vn -0.3506 -0.9359 0.0337
vn -0.3270 -0.9444 0.0340
vn -0.3001 -0.9533 0.0343
vn -0.2702 -0.9622 0.0346
vn -0.2376 -0.9707 0.0349
vn -0.2031 -0.9785 0.0352
vn -0.1673 -0.9853 0.0355
vn -0.1312 -0.9907 0.0357
vn -0.0957 -0.9948 0.0358
vn -0.0616 -0.9975 0.0359
vn -0.0297 -0.9989 0.0360
vn 0.0233 -0.9991 0.0360
vn 0.1246 -0.9916 0.0357
vn 0.2536 -0.9667 0.0348
vn 0.3840 -0.9228 0.0332
vn 0.5107 -0.8592 0.0309
vn 0.6287 -0.7772 0.0280
vn 0.7333 -0.6795 0.0245
vn 0.8211 -0.5703 0.0205
vn 0.8906 -0.4544 0.0164
vn 0.9417 -0.3362 0.0121
vn 0.9756 -0.2194 0.0079
vn 0.9942 -0.1070 0.0039
vn 1.0000 -0.0083 0.0003
vn 0.9971 0.0754 -0.0027
vn 0.9867 0.1624 -0.0058
vn 0.9646 0.2637 -0.0095
vn 0.9254 0.3789 -0.0136
vn 0.8633 0.5043 -0.0182
vn 0.7743 0.6324 -0.0228
vn 0.6586 0.7520 -0.0271
vn 0.5231 0.8517 -0.0307
vn 0.3795 0.9246 -0.0333
vn 0.2398 0.9702 -0.0349
vn 0.1126 0.9930 -0.0357
vn 0.0264 0.9990 -0.0360
vn -0.8251 -0.5646 0.0203
vt 0.467532 0.000000
vt 0.493506 0.000000
vt 0.480519 0.000000
vt 0.506494 0.000000
vt 0.298701 0.000000
vt 0.324675 0.000000
vt 0.311688 0.000000
vt 0.337662 0.000000
vt 0.350649 0.000000
vt 0.363636 0.000000
vt 0.376623 0.000000
vt 0.285714 0.000000
vt 0.389610 0.000000
vt 0.402597 0.000000
vt 0.415584 0.000000
vt 0.272727 0.000000
vt 0.428571 0.000000
vt 0.441558 0.000000
vt 0.454545 0.000000
vt 0.259740 0.000000
vt 0.545455 0.000000
vt 0.532468 0.000000
vt 0.519481 0.000000
vt 1.000000 0.000000
vt 0.246753 0.000000
vt 0.584416 0.000000
vt 0.571429 0.000000
vt 0.558442 0.000000
vt 0.233766 0.000000
vt 0.623377 0.000000
vt 0.610390 0.000000
vt 0.597403 0.000000
vt 0.220779 0.000000
vt 0.662338 0.000000
vt 0.649351 0.000000
vt 0.636364 0.000000
vt 0.675325 0.000000
vt 0.688312 0.000000
vt 0.207792 0.000000
vt 0.701299 0.000000
vt 0.714286 0.000000
vt 0.987013 0.000000
vt 0.727273 0.000000
vt 0.194805 0.000000
vt 0.740260 0.000000
vt 0.753247 0.000000
vt 0.181818 0.000000
vt 0.766234 0.000000
vt 0.779221 0.000000
vt 0.168831 0.000000
vt 0.792208 0.000000
vt 0.155844 0.000000
vt 0.805195 0.000000
vt 0.818182 0.000000
vt 0.142857 0.000000
vt 0.831169 0.000000
vt 0.844156 0.000000
vt 0.129870 0.000000
vt 0.857143 0.000000
vt 0.116883 0.000000
vt 0.870130 0.000000
vt 0.883117 0.000000
vt 0.103896 0.000000
vt 0.896104 0.000000
vt 0.909091 0.000000
vt 0.090909 0.000000
vt 0.922078 0.000000
vt 0.935065 0.000000
vt 0.948052 0.000000
vt 0.077922 0.000000
vt 0.961039 0.000000
vt 0.974026 0.000000
vt 0.064935 0.000000
vt 0.051948 0.000000
vt 0.038961 0.000000
vt 0.025974 0.000000
vt 0.012987 0.000000
vt 0.000000 0.000000
vt 0.196429 0.000000
vt 0.232143 0.000000
vt 0.214286 0.000000
vt 0.178571 0.000000
vt 0.250000 0.000000
vt 0.160714 0.000000
vt 0.267857 0.000000
vt 0.125000 0.000000
vt 0.946429 0.000000
vt 0.982143 0.000000
vt 0.964286 0.000000
vt 0.107143 0.000000
vt 0.089286 0.000000
vt 0.303571 0.000000
vt 0.071429 0.000000
vt 0.321429 0.000000
vt 0.053571 0.000000
vt 0.035714 0.000000
vt 0.339286 0.000000
vt 0.017857 0.000000
vt 0.696429 0.000000
vt 0.357143 0.000000
vt 0.910714 0.000000
vt 0.892857 0.000000
vt 0.875000 0.000000
vt 0.839286 0.000000
vt 0.821429 0.000000
vt 0.803571 0.000000
vt 0.785714 0.000000
vt 0.767857 0.000000
vt 0.750000 0.000000
vt 0.732143 0.000000
vt 0.678571 0.000000
vt 0.660714 0.000000
vt 0.642857 0.000000
vt 0.625000 0.000000
vt 0.375000 0.000000
vt 0.607143 0.000000
vt 0.589286 0.000000
vt 0.392857 0.000000
vt 0.553571 0.000000
vt 0.535714 0.000000
vt 0.410714 0.000000
vt 0.517857 0.000000
vt 0.928571 0.000000
vt 0.500000 0.000000
vt 0.482143 0.000000
vt 0.464286 0.000000
vt 0.446429 0.000000
vt 0.693182 0.000000
vt 0.715909 0.000000
vt 0.704545 0.000000
vt 0.681818 0.000000
vt 0.670455 0.000000
vt 0.659091 0.000000
vt 0.738636 0.000000
vt 0.647727 0.000000
vt 0.613636 0.000000
vt 0.761364 0.000000
vt 0.602273 0.000000
vt 0.590909 0.000000
vt 0.772727 0.000000
vt 0.579545 0.000000
vt 0.568182 0.000000
vt 0.784091 0.000000
vt 0.556818 0.000000
vt 0.534091 0.000000
vt 0.522727 0.000000
vt 0.511364 0.000000
vt 0.488636 0.000000
vt 0.477273 0.000000
vt 0.465909 0.000000
vt 0.443182 0.000000
vt 0.431818 0.000000
vt 0.420455 0.000000
vt 0.795455 0.000000
vt 0.409091 0.000000
vt 0.397727 0.000000
vt 0.386364 0.000000
vt 0.806818 0.000000
vt 0.352273 0.000000
vt 0.340909 0.000000
vt 0.329545 0.000000
vt 0.829545 0.000000
vt 0.318182 0.000000
vt 0.306818 0.000000
vt 0.840909 0.000000
vt 0.295455 0.000000
vt 0.284091 0.000000
vt 0.852273 0.000000
vt 0.261364 0.000000
vt 0.863636 0.000000
vt 0.238636 0.000000
vt 0.227273 0.000000
vt 0.215909 0.000000
vt 0.886364 0.000000
vt 0.204545 0.000000
vt 0.193182 0.000000
vt 0.897727 0.000000
vt 0.170455 0.000000
vt 0.159091 0.000000
vt 0.147727 0.000000
vt 0.136364 0.000000
vt 0.920455 0.000000
vt 0.931818 0.000000
vt 0.113636 0.000000
vt 0.943182 0.000000
vt 0.102273 0.000000
vt 0.954545 0.000000
vt 0.079545 0.000000
vt 0.965909 0.000000
vt 0.068182 0.000000
vt 0.977273 0.000000
vt 0.056818 0.000000
vt 0.045455 0.000000
vt 0.988636 0.000000
vt 0.034091 0.000000
vt 0.022727 0.000000
vt 0.011364 0.000000
vt 0.000000 1.000000
vt 0.011236 1.000000
vt 0.011236 0.000000
vt 0.022472 1.000000
vt 0.022472 0.000000
vt 0.033708 1.000000
vt 0.033708 0.000000
vt 0.044944 1.000000
vt 0.044944 0.000000
vt 0.056180 1.000000
vt 0.056180 0.000000
vt 0.067416 1.000000
vt 0.067416 0.000000
vt 0.078652 1.000000
vt 0.078652 0.000000
vt 0.089888 1.000000
vt 0.089888 0.000000
vt 0.101124 1.000000
vt 0.101124 0.000000
vt 0.112360 1.000000
vt 0.112360 0.000000
vt 0.123596 1.000000
vt 0.123596 0.000000
vt 0.134831 1.000000
vt 0.134831 0.000000
vt 0.146067 1.000000
vt 0.146067 0.000000
vt 0.157303 1.000000
vt 0.157303 0.000000
vt 0.168539 1.000000
vt 0.168539 0.000000
vt 0.179775 1.000000
vt 0.179775 0.000000
vt 0.191011 1.000000
vt 0.191011 0.000000
vt 0.202247 1.000000
vt 0.202247 0.000000
vt 0.213483 1.000000
vt 0.213483 0.000000
vt 0.224719 1.000000
vt 0.224719 0.000000
vt 0.235955 1.000000
vt 0.235955 0.000000
vt 0.247191 1.000000
vt 0.247191 0.000000
vt 0.258427 1.000000
vt 0.258427 0.000000
vt 0.269663 1.000000
vt 0.269663 0.000000
vt 0.280899 1.000000
vt 0.280899 0.000000
vt 0.292135 1.000000
vt 0.292135 0.000000
vt 0.303371 1.000000
vt 0.303371 0.000000
vt 0.314607 1.000000
vt 0.314607 0.000000
vt 0.325843 1.000000
vt 0.325843 0.000000
vt 0.337079 1.000000
vt 0.337079 0.000000
vt 0.348315 1.000000
vt 0.348315 0.000000
vt 0.359551 1.000000
vt 0.359551 0.000000
vt 0.370787 1.000000
vt 0.370787 0.000000
vt 0.382022 1.000000
vt 0.382022 0.000000
vt 0.393258 1.000000
vt 0.393258 0.000000
vt 0.404494 1.000000
vt 0.404494 0.000000
vt 0.415730 1.000000
vt 0.415730 0.000000
vt 0.426966 1.000000
vt 0.426966 0.000000
vt 0.438202 1.000000
vt 0.438202 0.000000
vt 0.449438 1.000000
vt 0.449438 0.000000
vt 0.460674 1.000000
vt 0.460674 0.000000
vt 0.471910 1.000000
vt 0.471910 0.000000
vt 0.483146 1.000000
vt 0.483146 0.000000
vt 0.494382 1.000000
vt 0.494382 0.000000
vt 0.505618 1.000000
vt 0.505618 0.000000
vt 0.516854 1.000000
vt 0.516854 0.000000
vt 0.528090 1.000000
vt 0.528090 0.000000
vt 0.539326 1.000000
vt 0.539326 0.000000
vt 0.550562 1.000000
vt 0.550562 0.000000
vt 0.561798 1.000000
vt 0.561798 0.000000
vt 0.573034 1.000000
vt 0.573034 0.000000
vt 0.584270 1.000000
vt 0.584270 0.000000
vt 0.595506 1.000000
vt 0.595506 0.000000
vt 0.606742 1.000000
vt 0.606742 0.000000
vt 0.617977 1.000000
vt 0.617977 0.000000
vt 0.629214 1.000000
vt 0.629214 0.000000
vt 0.640449 1.000000
vt 0.640449 0.000000
vt 0.651685 1.000000
vt 0.651685 0.000000
vt 0.662921 1.000000
vt 0.662921 0.000000
vt 0.674157 1.000000
vt 0.674157 0.000000
vt 0.685393 1.000000
vt 0.685393 0.000000
vt 0.696629 1.000000
vt 0.696629 0.000000
vt 0.707865 1.000000
vt 0.707865 0.000000
vt 0.719101 1.000000
vt 0.719101 0.000000
vt 0.730337 1.000000
vt 0.730337 0.000000
vt 0.741573 1.000000
vt 0.741573 0.000000
vt 0.752809 1.000000
vt 0.752809 0.000000
vt 0.764045 1.000000
vt 0.764045 0.000000
vt 0.775281 1.000000
vt 0.775281 0.000000
vt 0.786517 1.000000
vt 0.786517 0.000000
vt 0.797753 1.000000
vt 0.797753 0.000000
vt 0.808989 1.000000
vt 0.808989 0.000000
vt 0.820225 1.000000
vt 0.820225 0.000000
vt 0.831461 1.000000
vt 0.831461 0.000000
vt 0.842697 1.000000
vt 0.842697 0.000000
vt 0.853933 1.000000
vt 0.853933 0.000000
vt 0.865169 1.000000
vt 0.865169 0.000000
vt 0.876405 1.000000
vt 0.876405 0.000000
vt 0.887640 1.000000
vt 0.887640 0.000000
vt 0.898876 1.000000
vt 0.898876 0.000000
vt 0.910112 1.000000
vt 0.910112 0.000000
vt 0.921348 1.000000
vt 0.921348 0.000000
vt 0.932584 1.000000
vt 0.932584 0.000000
vt 0.943820 1.000000
vt 0.943820 0.000000
vt 0.955056 1.000000
vt 0.955056 0.000000
vt 0.966292 1.000000
vt 0.966292 0.000000
vt 0.977528 1.000000
vt 0.977528 0.000000
vt 0.988764 1.000000
vt 0.988764 0.000000
vt 1.000000 1.000000
vt 0.017544 1.000000
vt 0.017544 0.000000
vt 0.035088 1.000000
vt 0.035088 0.000000
vt 0.052632 1.000000
vt 0.052632 0.000000
vt 0.070175 1.000000
vt 0.070175 0.000000
vt 0.087719 1.000000
vt 0.087719 0.000000
vt 0.105263 1.000000
vt 0.105263 0.000000
vt 0.122807 1.000000
vt 0.122807 0.000000
vt 0.140351 1.000000
vt 0.140351 0.000000
vt 0.157895 1.000000
vt 0.157895 0.000000
vt 0.175439 1.000000
vt 0.175439 0.000000
vt 0.192982 1.000000
vt 0.192982 0.000000
vt 0.210526 1.000000
vt 0.210526 0.000000
vt 0.228070 1.000000
vt 0.228070 0.000000
vt 0.245614 1.000000
vt 0.245614 0.000000
vt 0.263158 1.000000
vt 0.263158 0.000000
vt 0.280702 1.000000
vt 0.280702 0.000000
vt 0.298246 1.000000
vt 0.298246 0.000000
vt 0.315789 1.000000
vt 0.315789 0.000000
vt 0.333333 1.000000
vt 0.333333 0.000000
vt 0.350877 1.000000
vt 0.350877 0.000000
vt 0.368421 1.000000
vt 0.368421 0.000000
vt 0.385965 1.000000
vt 0.385965 0.000000
vt 0.403509 1.000000
vt 0.403509 0.000000
vt 0.421053 1.000000
vt 0.421053 0.000000
vt 0.438596 1.000000
vt 0.438596 0.000000
vt 0.456140 1.000000
vt 0.456140 0.000000
vt 0.473684 1.000000
vt 0.473684 0.000000
vt 0.491228 1.000000
vt 0.491228 0.000000
vt 0.508772 1.000000
vt 0.508772 0.000000
vt 0.526316 1.000000
vt 0.526316 0.000000
vt 0.543860 1.000000
vt 0.543860 0.000000
vt 0.561404 1.000000
vt 0.561404 0.000000
vt 0.578947 1.000000
vt 0.578947 0.000000
vt 0.596491 1.000000
vt 0.596491 0.000000
vt 0.614035 1.000000
vt 0.614035 0.000000
vt 0.631579 1.000000
vt 0.631579 0.000000
vt 0.649123 1.000000
vt 0.649123 0.000000
vt 0.666667 1.000000
vt 0.666667 0.000000
vt 0.684211 1.000000
vt 0.684211 0.000000
vt 0.701754 1.000000
vt 0.701754 0.000000
vt 0.719298 1.000000
vt 0.719298 0.000000
vt 0.736842 1.000000
vt 0.736842 0.000000
vt 0.754386 1.000000
vt 0.754386 0.000000
vt 0.771930 1.000000
vt 0.771930 0.000000
vt 0.789474 1.000000
vt 0.789474 0.000000
vt 0.807018 1.000000
vt 0.807018 0.000000
vt 0.824561 1.000000
vt 0.824561 0.000000
vt 0.842105 1.000000
vt 0.842105 0.000000
vt 0.859649 1.000000
vt 0.859649 0.000000
vt 0.877193 1.000000
vt 0.877193 0.000000
vt 0.894737 1.000000
vt 0.894737 0.000000
vt 0.912281 1.000000
vt 0.912281 0.000000
vt 0.929825 1.000000
vt 0.929825 0.000000
vt 0.947368 1.000000
vt 0.947368 0.000000
vt 0.964912 1.000000
vt 0.964912 0.000000
vt 0.982456 1.000000
vt 0.982456 0.000000
vt 0.025000 1.000000
vt 0.025000 0.000000
vt 0.050000 1.000000
vt 0.050000 0.000000
vt 0.075000 1.000000
vt 0.075000 0.000000
vt 0.100000 1.000000
vt 0.100000 0.000000
vt 0.125000 1.000000
vt 0.150000 1.000000
vt 0.150000 0.000000
vt 0.175000 1.000000
vt 0.175000 0.000000
vt 0.200000 1.000000
vt 0.200000 0.000000
vt 0.225000 1.000000
vt 0.225000 0.000000
vt 0.250000 1.000000
vt 0.275000 1.000000
vt 0.275000 0.000000
vt 0.300000 1.000000
vt 0.300000 0.000000
vt 0.325000 1.000000
vt 0.325000 0.000000
vt 0.350000 1.000000
vt 0.350000 0.000000
vt 0.375000 1.000000
vt 0.400000 1.000000
vt 0.400000 0.000000
vt 0.425000 1.000000
vt 0.425000 0.000000
vt 0.450000 1.000000
vt 0.450000 0.000000
vt 0.475000 1.000000
vt 0.475000 0.000000
vt 0.500000 1.000000
vt 0.525000 1.000000
vt 0.525000 0.000000
vt 0.550000 1.000000
vt 0.550000 0.000000
vt 0.575000 1.000000
vt 0.575000 0.000000
vt 0.600000 1.000000
vt 0.600000 0.000000
vt 0.625000 1.000000
vt 0.650000 1.000000
vt 0.650000 0.000000
vt 0.675000 1.000000
vt 0.675000 0.000000
vt 0.700000 1.000000
vt 0.700000 0.000000
vt 0.725000 1.000000
vt 0.725000 0.000000
vt 0.750000 1.000000
vt 0.775000 1.000000
vt 0.775000 0.000000
vt 0.800000 1.000000
vt 0.800000 0.000000
vt 0.825000 1.000000
vt 0.825000 0.000000
vt 0.850000 1.000000
vt 0.850000 0.000000
vt 0.875000 1.000000
vt 0.900000 1.000000
vt 0.900000 0.000000
vt 0.925000 1.000000
vt 0.925000 0.000000
vt 0.950000 1.000000
vt 0.950000 0.000000
vt 0.975000 1.000000
vt 0.975000 0.000000
vt 0.026316 1.000000
vt 0.026316 0.000000
vt 0.078947 1.000000
vt 0.078947 0.000000
vt 0.131579 1.000000
vt 0.131579 0.000000
vt 0.184211 1.000000
vt 0.184211 0.000000
vt 0.236842 1.000000
vt 0.236842 0.000000
vt 0.289474 1.000000
vt 0.289474 0.000000
vt 0.342105 1.000000
vt 0.342105 0.000000
vt 0.394737 1.000000
vt 0.394737 0.000000
vt 0.447368 1.000000
vt 0.447368 0.000000
vt 0.552632 1.000000
vt 0.552632 0.000000
vt 0.605263 1.000000
vt 0.605263 0.000000
vt 0.657895 1.000000
vt 0.657895 0.000000
vt 0.710526 1.000000
vt 0.710526 0.000000
vt 0.763158 1.000000
vt 0.763158 0.000000
vt 0.815789 1.000000
vt 0.815789 0.000000
vt 0.868421 1.000000
vt 0.868421 0.000000
vt 0.921053 1.000000
vt 0.921053 0.000000
vt 0.973684 1.000000
vt 0.973684 0.000000
s 0
usemtl マテリアル.001
f 37/1/1 39/2/1 38/3/1
f 37/1/1 40/4/1 39/2/1
f 24/5/1 26/6/1 25/7/1
f 24/5/1 27/8/1 26/6/1
f 24/5/1 28/9/1 27/8/1
f 24/5/1 29/10/1 28/9/1
f 24/5/1 30/11/1 29/10/1
f 23/12/1 30/11/1 24/5/1
f 23/12/1 31/13/1 30/11/1
f 23/12/1 32/14/1 31/13/1
f 23/12/1 33/15/1 32/14/1
f 22/16/1 33/15/1 23/12/1
f 22/16/1 34/17/1 33/15/1
f 22/16/1 35/18/1 34/17/1
f 22/16/1 36/19/1 35/18/1
f 22/16/1 37/1/1 36/19/1
f 21/20/1 37/1/1 22/16/1
f 21/20/1 43/21/1 37/1/1
f 43/21/1 42/22/1 37/1/1
f 42/22/1 41/23/1 37/1/1
f 41/23/1 78/24/1 37/1/1
f 78/24/1 40/4/1 37/1/1
f 20/25/1 46/26/1 21/20/1
f 46/26/1 45/27/1 21/20/1
f 45/27/1 44/28/1 21/20/1
f 44/28/1 43/21/1 21/20/1
f 19/29/1 49/30/1 20/25/1
f 49/30/1 48/31/1 20/25/1
f 48/31/1 47/32/1 20/25/1
f 47/32/1 46/26/1 20/25/1
f 18/33/1 52/34/1 19/29/1
f 52/34/1 51/35/1 19/29/1
f 51/35/1 50/36/1 19/29/1
f 50/36/1 49/30/1 19/29/1
f 18/33/1 53/37/1 52/34/1
f 18/33/1 54/38/1 53/37/1
f 17/39/1 54/38/1 18/33/1
f 17/39/1 55/40/1 54/38/1
f 17/39/1 56/41/1 55/40/1
f 77/42/1 40/4/1 78/24/1
f 17/39/1 57/43/1 56/41/1
f 16/44/1 57/43/1 17/39/1
f 16/44/1 58/45/1 57/43/1
f 16/44/1 59/46/1 58/45/1
f 15/47/1 59/46/1 16/44/1
f 15/47/1 60/48/1 59/46/1
f 15/47/1 61/49/1 60/48/1
f 14/50/1 61/49/1 15/47/1
f 14/50/1 62/51/1 61/49/1
f 13/52/1 62/51/1 14/50/1
f 13/52/1 63/53/1 62/51/1
f 13/52/1 64/54/1 63/53/1
f 12/55/1 64/54/1 13/52/1
f 12/55/1 65/56/1 64/54/1
f 12/55/1 66/57/1 65/56/1
f 11/58/1 66/57/1 12/55/1
f 11/58/1 67/59/1 66/57/1
f 10/60/1 67/59/1 11/58/1
f 10/60/1 68/61/1 67/59/1
f 10/60/1 69/62/1 68/61/1
f 9/63/1 69/62/1 10/60/1
f 9/63/1 70/64/1 69/62/1
f 9/63/1 71/65/1 70/64/1
f 8/66/1 71/65/1 9/63/1
f 8/66/1 72/67/1 71/65/1
f 8/66/1 73/68/1 72/67/1
f 8/66/1 74/69/1 73/68/1
f 7/70/1 74/69/1 8/66/1
f 7/70/1 75/71/1 74/69/1
f 7/70/1 76/72/1 75/71/1
f 7/70/1 77/42/1 76/72/1
f 7/70/1 40/4/1 77/42/1
f 6/73/1 40/4/1 7/70/1
f 5/74/1 40/4/1 6/73/1
f 4/75/1 40/4/1 5/74/1
f 3/76/1 40/4/1 4/75/1
f 2/77/1 40/4/1 3/76/1
f 1/78/1 40/4/1 2/77/1
f 90/79/1 92/80/1 91/81/1
f 89/82/1 92/80/1 90/79/1
f 89/82/1 93/83/1 92/80/1
f 88/84/1 93/83/1 89/82/1
f 87/55/1 93/83/1 88/84/1
f 87/55/1 94/85/1 93/83/1
f 86/86/1 94/85/1 87/55/1
f 132/87/1 134/88/1 133/89/1
f 132/87/1 135/24/1 134/88/1
f 86/86/1 95/12/1 94/85/1
f 85/90/1 95/12/1 86/86/1
f 84/91/1 95/12/1 85/90/1
f 84/91/1 96/92/1 95/12/1
f 83/93/1 96/92/1 84/91/1
f 83/93/1 97/94/1 96/92/1
f 82/95/1 97/94/1 83/93/1
f 81/96/1 97/94/1 82/95/1
f 81/96/1 98/97/1 97/94/1
f 80/98/1 98/97/1 81/96/1
f 79/78/1 98/97/1 80/98/1
f 79/78/1 118/99/1 98/97/1
f 118/99/1 99/100/1 98/97/1
f 132/87/1 79/78/1 135/24/1
f 132/87/1 130/101/1 79/78/1
f 130/101/1 129/102/1 79/78/1
f 129/102/1 128/103/1 79/78/1
f 128/103/1 127/59/1 79/78/1
f 127/59/1 126/104/1 79/78/1
f 126/104/1 125/105/1 79/78/1
f 125/105/1 124/106/1 79/78/1
f 124/106/1 123/107/1 79/78/1
f 123/107/1 122/108/1 79/78/1
f 122/108/1 121/109/1 79/78/1
f 121/109/1 120/110/1 79/78/1
f 120/110/1 119/41/1 79/78/1
f 119/41/1 118/99/1 79/78/1
f 117/111/1 99/100/1 118/99/1
f 116/112/1 99/100/1 117/111/1
f 115/113/1 99/100/1 116/112/1
f 114/114/1 99/100/1 115/113/1
f 114/114/1 100/115/1 99/100/1
f 113/116/1 100/115/1 114/114/1
f 112/117/1 100/115/1 113/116/1
f 111/27/1 100/115/1 112/117/1
f 111/27/1 101/118/1 100/115/1
f 110/119/1 101/118/1 111/27/1
f 109/120/1 101/118/1 110/119/1
f 109/120/1 102/121/1 101/118/1
f 108/122/1 102/121/1 109/120/1
f 132/87/1 131/123/1 130/101/1
f 107/124/1 102/121/1 108/122/1
f 107/124/1 103/17/1 102/121/1
f 106/125/1 103/17/1 107/124/1
f 105/126/1 103/17/1 106/125/1
f 105/126/1 104/127/1 103/17/1
f 197/128/1 199/129/1 198/130/1
f 196/131/1 199/129/1 197/128/1
f 195/132/1 199/129/1 196/131/1
f 195/132/1 200/43/1 199/129/1
f 194/133/1 200/43/1 195/132/1
f 194/133/1 201/134/1 200/43/1
f 193/135/1 201/134/1 194/133/1
f 192/36/1 201/134/1 193/135/1
f 192/36/1 202/109/1 201/134/1
f 191/114/1 202/109/1 192/36/1
f 190/136/1 202/109/1 191/114/1
f 190/136/1 203/137/1 202/109/1
f 189/138/1 203/137/1 190/136/1
f 188/139/1 203/137/1 189/138/1
f 188/139/1 204/140/1 203/137/1
f 187/141/1 204/140/1 188/139/1
f 186/142/1 204/140/1 187/141/1
f 186/142/1 205/143/1 204/140/1
f 185/144/1 184/21/1 186/142/1
f 184/21/1 183/145/1 186/142/1
f 183/145/1 182/146/1 186/142/1
f 182/146/1 181/147/1 186/142/1
f 181/147/1 180/124/1 186/142/1
f 180/124/1 179/148/1 186/142/1
f 179/148/1 178/149/1 186/142/1
f 178/149/1 177/150/1 186/142/1
f 177/150/1 176/19/1 186/142/1
f 176/19/1 175/151/1 186/142/1
f 175/151/1 174/152/1 186/142/1
f 174/152/1 205/143/1 186/142/1
f 174/152/1 173/153/1 205/143/1
f 173/153/1 206/154/1 205/143/1
f 172/155/1 206/154/1 173/153/1
f 171/156/1 206/154/1 172/155/1
f 170/157/1 206/154/1 171/156/1
f 170/157/1 207/158/1 206/154/1
f 169/115/1 207/158/1 170/157/1
f 168/10/1 207/158/1 169/115/1
f 167/159/1 207/158/1 168/10/1
f 167/159/1 208/54/1 207/158/1
f 166/160/1 208/54/1 167/159/1
f 165/161/1 208/54/1 166/160/1
f 165/161/1 209/162/1 208/54/1
f 164/163/1 209/162/1 165/161/1
f 163/164/1 209/162/1 164/163/1
f 163/164/1 210/165/1 209/162/1
f 162/166/1 210/165/1 163/164/1
f 161/167/1 210/165/1 162/166/1
f 161/167/1 211/168/1 210/165/1
f 160/16/1 211/168/1 161/167/1
f 159/169/1 211/168/1 160/16/1
f 159/169/1 212/170/1 211/168/1
f 158/83/1 212/170/1 159/169/1
f 157/171/1 212/170/1 158/83/1
f 157/171/1 213/103/1 212/170/1
f 156/172/1 213/103/1 157/171/1
f 155/173/1 213/103/1 156/172/1
f 155/173/1 214/174/1 213/103/1
f 154/175/1 214/174/1 155/173/1
f 153/176/1 214/174/1 154/175/1
f 152/47/1 214/174/1 153/176/1
f 152/47/1 215/177/1 214/174/1
f 151/178/1 215/177/1 152/47/1
f 150/179/1 215/177/1 151/178/1
f 150/179/1 216/65/1 215/177/1
f 149/180/1 216/65/1 150/179/1
f 148/181/1 216/65/1 149/180/1
f 148/181/1 217/182/1 216/65/1
f 147/86/1 217/182/1 148/181/1
f 147/86/1 218/183/1 217/182/1
f 146/184/1 218/183/1 147/86/1
f 146/184/1 219/185/1 218/183/1
f 145/186/1 219/185/1 146/184/1
f 144/66/1 219/185/1 145/186/1
f 144/66/1 220/187/1 219/185/1
f 143/188/1 220/187/1 144/66/1
f 143/188/1 221/189/1 220/187/1
f 142/190/1 221/189/1 143/188/1
f 142/190/1 222/191/1 221/189/1
f 141/192/1 222/191/1 142/190/1
f 140/193/1 222/191/1 141/192/1
f 140/193/1 223/194/1 222/191/1
f 140/193/1 224/24/1 223/194/1
f 139/195/1 224/24/1 140/193/1
f 138/196/1 224/24/1 139/195/1
f 137/197/1 224/24/1 138/196/1
f 136/78/1 224/24/1 137/197/1
f 261/1/2 262/3/2 263/2/2
f 261/1/2 263/2/2 264/4/2
f 248/5/2 249/7/2 250/6/2
f 248/5/2 250/6/2 251/8/2
f 248/5/2 251/8/2 252/9/2
f 248/5/2 252/9/2 253/10/2
f 248/5/2 253/10/2 254/11/2
f 247/12/2 248/5/2 254/11/2
f 247/12/2 254/11/2 255/13/2
f 247/12/2 255/13/2 256/14/2
f 247/12/2 256/14/2 257/15/2
f 246/16/2 247/12/2 257/15/2
f 246/16/2 257/15/2 258/17/2
f 246/16/2 258/17/2 259/18/2
f 246/16/2 259/18/2 260/19/2
f 246/16/2 260/19/2 261/1/2
f 245/20/2 246/16/2 261/1/2
f 245/20/2 261/1/2 267/21/2
f 267/21/2 261/1/2 266/22/2
f 266/22/2 261/1/2 265/23/2
f 265/23/2 261/1/2 302/24/2
f 302/24/2 261/1/2 264/4/2
f 244/25/2 245/20/2 270/26/2
f 270/26/2 245/20/2 269/27/2
f 269/27/2 245/20/2 268/28/2
f 268/28/2 245/20/2 267/21/2
f 243/29/2 244/25/2 273/30/2
f 273/30/2 244/25/2 272/31/2
f 272/31/2 244/25/2 271/32/2
f 271/32/2 244/25/2 270/26/2
f 242/33/2 243/29/2 276/34/2
f 276/34/2 243/29/2 275/35/2
f 275/35/2 243/29/2 274/36/2
f 274/36/2 243/29/2 273/30/2
f 242/33/2 276/34/2 277/37/2
f 242/33/2 277/37/2 278/38/2
f 241/39/2 242/33/2 278/38/2
f 241/39/2 278/38/2 279/40/2
f 241/39/2 279/40/2 280/41/2
f 301/42/2 302/24/2 264/4/2
f 241/39/2 280/41/2 281/43/2
f 240/44/2 241/39/2 281/43/2
f 240/44/2 281/43/2 282/45/2
f 240/44/2 282/45/2 283/46/2
f 239/47/2 240/44/2 283/46/2
f 239/47/2 283/46/2 284/48/2
f 239/47/2 284/48/2 285/49/2
f 238/50/2 239/47/2 285/49/2
f 238/50/2 285/49/2 286/51/2
f 237/52/2 238/50/2 286/51/2
f 237/52/2 286/51/2 287/53/2
f 237/52/2 287/53/2 288/54/2
f 236/55/2 237/52/2 288/54/2
f 236/55/2 288/54/2 289/56/2
f 236/55/2 289/56/2 290/57/2
f 235/58/2 236/55/2 290/57/2
f 235/58/2 290/57/2 291/59/2
f 234/60/2 235/58/2 291/59/2
f 234/60/2 291/59/2 292/61/2
f 234/60/2 292/61/2 293/62/2
f 233/63/2 234/60/2 293/62/2
f 233/63/2 293/62/2 294/64/2
f 233/63/2 294/64/2 295/65/2
f 232/66/2 233/63/2 295/65/2
f 232/66/2 295/65/2 296/67/2
f 232/66/2 296/67/2 297/68/2
f 232/66/2 297/68/2 298/69/2
f 231/70/2 232/66/2 298/69/2
f 231/70/2 298/69/2 299/71/2
f 231/70/2 299/71/2 300/72/2
f 231/70/2 300/72/2 301/42/2
f 231/70/2 301/42/2 264/4/2
f 230/73/2 231/70/2 264/4/2
f 229/74/2 230/73/2 264/4/2
f 228/75/2 229/74/2 264/4/2
f 227/76/2 228/75/2 264/4/2
f 226/77/2 227/76/2 264/4/2
f 225/78/2 226/77/2 264/4/2
f 314/79/2 315/81/2 316/80/2
f 313/82/2 314/79/2 316/80/2
f 313/82/2 316/80/2 317/83/2
f 312/84/2 313/82/2 317/83/2
f 311/55/2 312/84/2 317/83/2
f 311/55/2 317/83/2 318/85/2
f 310/86/2 311/55/2 318/85/2
f 356/87/2 357/89/2 358/88/2
f 356/87/2 358/88/2 359/24/2
f 310/86/2 318/85/2 319/12/2
f 309/90/2 310/86/2 319/12/2
f 308/91/2 309/90/2 319/12/2
f 308/91/2 319/12/2 320/92/2
f 307/93/2 308/91/2 320/92/2
f 307/93/2 320/92/2 321/94/2
f 306/95/2 307/93/2 321/94/2
f 305/96/2 306/95/2 321/94/2
f 305/96/2 321/94/2 322/97/2
f 304/98/2 305/96/2 322/97/2
f 303/78/2 304/98/2 322/97/2
f 303/78/2 322/97/2 342/99/2
f 342/99/2 322/97/2 323/100/2
f 356/87/2 359/24/2 303/78/2
f 356/87/2 303/78/2 354/101/2
f 354/101/2 303/78/2 353/102/2
f 353/102/2 303/78/2 352/103/2
f 352/103/2 303/78/2 351/59/2
f 351/59/2 303/78/2 350/104/2
f 350/104/2 303/78/2 349/105/2
f 349/105/2 303/78/2 348/106/2
f 348/106/2 303/78/2 347/107/2
f 347/107/2 303/78/2 346/108/2
f 346/108/2 303/78/2 345/109/2
f 345/109/2 303/78/2 344/110/2
f 344/110/2 303/78/2 343/41/2
f 343/41/2 303/78/2 342/99/2
f 341/111/2 342/99/2 323/100/2
f 340/112/2 341/111/2 323/100/2
f 339/113/2 340/112/2 323/100/2
f 338/114/2 339/113/2 323/100/2
f 338/114/2 323/100/2 324/115/2
f 337/116/2 338/114/2 324/115/2
f 336/117/2 337/116/2 324/115/2
f 335/27/2 336/117/2 324/115/2
f 335/27/2 324/115/2 325/118/2
f 334/119/2 335/27/2 325/118/2
f 333/120/2 334/119/2 325/118/2
f 333/120/2 325/118/2 326/121/2
f 332/122/2 333/120/2 326/121/2
f 356/87/2 354/101/2 355/123/2
f 331/124/2 332/122/2 326/121/2
f 331/124/2 326/121/2 327/17/2
f 330/125/2 331/124/2 327/17/2
f 329/126/2 330/125/2 327/17/2
f 329/126/2 327/17/2 328/127/2
f 421/128/2 422/130/2 423/129/2
f 420/131/2 421/128/2 423/129/2
f 419/132/2 420/131/2 423/129/2
f 419/132/2 423/129/2 424/43/2
f 418/133/2 419/132/2 424/43/2
f 418/133/2 424/43/2 425/134/2
f 417/135/2 418/133/2 425/134/2
f 416/36/2 417/135/2 425/134/2
f 416/36/2 425/134/2 426/109/2
f 415/114/2 416/36/2 426/109/2
f 414/136/2 415/114/2 426/109/2
f 414/136/2 426/109/2 427/137/2
f 413/138/2 414/136/2 427/137/2
f 412/139/2 413/138/2 427/137/2
f 412/139/2 427/137/2 428/140/2
f 411/141/2 412/139/2 428/140/2
f 410/142/2 411/141/2 428/140/2
f 410/142/2 428/140/2 429/143/2
f 409/144/2 410/142/2 408/21/2
f 408/21/2 410/142/2 407/145/2
f 407/145/2 410/142/2 406/146/2
f 406/146/2 410/142/2 405/147/2
f 405/147/2 410/142/2 404/124/2
f 404/124/2 410/142/2 403/148/2
f 403/148/2 410/142/2 402/149/2
f 402/149/2 410/142/2 401/150/2
f 401/150/2 410/142/2 400/19/2
f 400/19/2 410/142/2 399/151/2
f 399/151/2 410/142/2 398/152/2
f 398/152/2 410/142/2 429/143/2
f 398/152/2 429/143/2 397/153/2
f 397/153/2 429/143/2 430/154/2
f 396/155/2 397/153/2 430/154/2
f 395/156/2 396/155/2 430/154/2
f 394/157/2 395/156/2 430/154/2
f 394/157/2 430/154/2 431/158/2
f 393/115/2 394/157/2 431/158/2
f 392/10/2 393/115/2 431/158/2
f 391/159/2 392/10/2 431/158/2
f 391/159/2 431/158/2 432/54/2
f 390/160/2 391/159/2 432/54/2
f 389/161/2 390/160/2 432/54/2
f 389/161/2 432/54/2 433/162/2
f 388/163/2 389/161/2 433/162/2
f 387/164/2 388/163/2 433/162/2
f 387/164/2 433/162/2 434/165/2
f 386/166/2 387/164/2 434/165/2
f 385/167/2 386/166/2 434/165/2
f 385/167/2 434/165/2 435/168/2
f 384/16/2 385/167/2 435/168/2
f 383/169/2 384/16/2 435/168/2
f 383/169/2 435/168/2 436/170/2
f 382/83/2 383/169/2 436/170/2
f 381/171/2 382/83/2 436/170/2
f 381/171/2 436/170/2 437/103/2
f 380/172/2 381/171/2 437/103/2
f 379/173/2 380/172/2 437/103/2
f 379/173/2 437/103/2 438/174/2
f 378/175/2 379/173/2 438/174/2
f 377/176/2 378/175/2 438/174/2
f 376/47/2 377/176/2 438/174/2
f 376/47/2 438/174/2 439/177/2
f 375/178/2 376/47/2 439/177/2
f 374/179/2 375/178/2 439/177/2
f 374/179/2 439/177/2 440/65/2
f 373/180/2 374/179/2 440/65/2
f 372/181/2 373/180/2 440/65/2
f 372/181/2 440/65/2 441/182/2
f 371/86/2 372/181/2 441/182/2
f 371/86/2 441/182/2 442/183/2
f 370/184/2 371/86/2 442/183/2
f 370/184/2 442/183/2 443/185/2
f 369/186/2 370/184/2 443/185/2
f 368/66/2 369/186/2 443/185/2
f 368/66/2 443/185/2 444/187/2
f 367/188/2 368/66/2 444/187/2
f 367/188/2 444/187/2 445/189/2
f 366/190/2 367/188/2 445/189/2
f 366/190/2 445/189/2 446/191/2
f 365/192/2 366/190/2 446/191/2
f 364/193/2 365/192/2 446/191/2
f 364/193/2 446/191/2 447/194/2
f 364/193/2 447/194/2 448/24/2
f 363/195/2 364/193/2 448/24/2
f 362/196/2 363/195/2 448/24/2
f 361/197/2 362/196/2 448/24/2
f 360/78/2 361/197/2 448/24/2
s 1
f 450/198/3 452/199/4 451/200/4 449/78/3
f 452/199/4 454/201/5 453/202/5 451/200/4
f 454/201/5 456/203/6 455/204/6 453/202/5
f 456/203/6 458/205/7 457/206/7 455/204/6
f 458/205/7 460/207/8 459/208/8 457/206/7
f 460/207/8 462/209/9 461/210/9 459/208/8
f 462/209/9 464/211/10 463/212/10 461/210/9
f 464/211/10 466/213/11 465/214/11 463/212/10
f 466/213/11 468/215/12 467/216/12 465/214/11
f 468/215/12 470/217/13 469/218/13 467/216/12
f 470/217/13 472/219/14 471/220/14 469/218/13
f 472/219/14 474/221/15 473/222/15 471/220/14
f 474/221/15 476/223/16 475/224/16 473/222/15
f 476/223/16 478/225/17 477/226/17 475/224/16
f 478/225/17 480/227/18 479/228/18 477/226/17
f 480/227/18 482/229/19 481/230/19 479/228/18
f 482/229/19 484/231/20 483/232/20 481/230/19
f 484/231/20 486/233/21 485/234/21 483/232/20
f 486/233/21 488/235/22 487/236/22 485/234/21
f 488/235/22 490/237/23 489/238/23 487/236/22
f 490/237/23 492/239/24 491/240/24 489/238/23
f 492/239/24 494/241/25 493/242/25 491/240/24
f 494/241/25 496/243/26 495/244/26 493/242/25
f 496/243/26 498/245/27 497/246/27 495/244/26
f 498/245/27 500/247/28 499/248/28 497/246/27
f 500/247/28 502/249/29 501/250/29 499/248/28
f 502/249/29 504/251/30 503/252/30 501/250/29
f 504/251/30 506/253/31 505/254/31 503/252/30
f 506/253/31 508/255/32 507/256/32 505/254/31
f 508/255/32 510/257/33 509/258/33 507/256/32
f 510/257/33 512/259/34 511/260/34 509/258/33
f 512/259/34 514/261/35 513/262/35 511/260/34
f 514/261/35 516/263/36 515/264/36 513/262/35
f 516/263/36 518/265/37 517/266/37 515/264/36
f 518/265/37 520/267/38 519/268/38 517/266/37
f 520/267/38 522/269/39 521/270/39 519/268/38
f 522/269/39 524/271/40 523/272/40 521/270/39
f 524/271/40 526/273/41 525/274/41 523/272/40
f 526/273/41 528/275/42 527/276/42 525/274/41
f 528/275/42 530/277/43 529/278/43 527/276/42
f 530/277/43 532/279/44 531/280/44 529/278/43
f 532/279/44 534/281/45 533/282/45 531/280/44
f 534/281/45 536/283/46 535/284/46 533/282/45
f 536/283/46 538/285/47 537/286/47 535/284/46
f 538/285/47 540/287/48 539/288/48 537/286/47
f 540/287/48 542/289/49 541/290/49 539/288/48
f 542/289/49 544/291/50 543/292/50 541/290/49
f 544/291/50 546/293/51 545/294/51 543/292/50
f 546/293/51 548/295/52 547/296/52 545/294/51
f 548/295/52 550/297/53 549/298/53 547/296/52
f 550/297/53 552/299/54 551/300/54 549/298/53
f 552/299/54 554/301/55 553/302/55 551/300/54
f 554/301/55 556/303/56 555/304/56 553/302/55
f 556/303/56 558/305/57 557/306/57 555/304/56
f 558/305/57 560/307/58 559/308/58 557/306/57
f 560/307/58 562/309/59 561/310/59 559/308/58
f 562/309/59 564/311/60 563/312/60 561/310/59
f 564/311/60 566/313/61 565/314/61 563/312/60
f 566/313/61 568/315/62 567/316/62 565/314/61
f 568/315/62 570/317/63 569/318/63 567/316/62
f 570/317/63 572/319/64 571/320/64 569/318/63
f 572/319/64 574/321/65 573/322/65 571/320/64
f 574/321/65 576/323/66 575/324/66 573/322/65
f 576/323/66 578/325/67 577/326/67 575/324/66
f 578/325/67 580/327/68 579/328/68 577/326/67
f 580/327/68 582/329/69 581/330/69 579/328/68
f 582/329/69 584/331/70 583/332/70 581/330/69
f 584/331/70 586/333/71 585/334/71 583/332/70
f 586/333/71 588/335/72 587/336/72 585/334/71
f 588/335/72 590/337/73 589/338/73 587/336/72
f 590/337/73 592/339/74 591/340/74 589/338/73
f 592/339/74 594/341/75 593/342/75 591/340/74
f 594/341/75 596/343/76 595/344/76 593/342/75
f 596/343/76 598/345/77 597/346/77 595/344/76
f 598/345/77 600/347/78 599/348/78 597/346/77
f 600/347/78 602/349/79 601/350/79 599/348/78
f 602/349/79 604/351/80 603/352/80 601/350/79
f 604/351/80 606/353/81 605/354/81 603/352/80
f 606/353/81 608/355/82 607/356/82 605/354/81
f 608/355/82 610/357/83 609/358/83 607/356/82
f 610/357/83 612/359/84 611/360/84 609/358/83
f 612/359/84 614/361/85 613/362/85 611/360/84
f 614/361/85 616/363/86 615/364/86 613/362/85
f 616/363/86 618/365/87 617/366/87 615/364/86
f 618/365/87 620/367/88 619/368/88 617/366/87
f 620/367/88 622/369/89 621/370/89 619/368/88
f 622/369/89 624/371/90 623/372/90 621/370/89
f 624/371/90 626/373/91 625/374/91 623/372/90
f 626/373/91 450/375/3 449/24/3 625/374/91
f 628/198/92 630/376/93 629/377/93 627/78/92
f 630/376/93 632/378/94 631/379/94 629/377/93
f 632/378/94 634/380/95 633/381/95 631/379/94
f 634/380/95 636/382/96 635/383/96 633/381/95
f 636/382/96 638/384/97 637/385/97 635/383/96
f 638/384/97 640/386/98 639/387/98 637/385/97
f 640/386/98 642/388/99 641/389/99 639/387/98
f 642/388/99 644/390/100 643/391/100 641/389/99
f 644/390/100 646/392/101 645/393/101 643/391/100
f 646/392/101 648/394/102 647/395/102 645/393/101
f 648/394/102 650/396/103 649/397/103 647/395/102
f 650/396/103 652/398/104 651/399/104 649/397/103
f 652/398/104 654/400/105 653/401/105 651/399/104
f 654/400/105 656/402/106 655/403/106 653/401/105
f 656/402/106 658/404/107 657/405/107 655/403/106
f 658/404/107 660/406/108 659/407/108 657/405/107
f 660/406/108 662/408/109 661/409/109 659/407/108
f 662/408/109 664/410/110 663/411/110 661/409/109
f 664/410/110 666/412/111 665/413/111 663/411/110
f 666/412/111 668/414/112 667/415/112 665/413/111
f 668/414/112 670/416/113 669/417/113 667/415/112
f 670/416/113 672/418/114 671/419/114 669/417/113
f 672/418/114 674/420/115 673/421/115 671/419/114
f 674/420/115 676/422/116 675/423/116 673/421/115
f 676/422/116 678/424/91 677/425/91 675/423/116
f 678/424/91 680/426/3 679/427/3 677/425/91
f 680/426/3 682/428/117 681/429/117 679/427/3
f 682/428/117 684/430/118 683/431/118 681/429/117
f 684/430/118 686/432/119 685/433/119 683/431/118
f 686/432/119 688/434/120 687/435/120 685/433/119
f 688/434/120 690/436/121 689/437/121 687/435/120
f 690/436/121 692/438/122 691/439/122 689/437/121
f 692/438/122 694/440/123 693/441/123 691/439/122
f 694/440/123 696/442/124 695/443/124 693/441/123
f 696/442/124 698/444/125 697/445/125 695/443/124
f 698/444/125 700/446/126 699/447/126 697/445/125
f 700/446/126 702/448/127 701/449/127 699/447/126
f 702/448/127 704/450/128 703/451/128 701/449/127
f 704/450/128 706/452/129 705/453/129 703/451/128
f 706/452/129 708/454/130 707/455/130 705/453/129
f 708/454/130 710/456/131 709/457/131 707/455/130
f 710/456/131 712/458/132 711/459/132 709/457/131
f 712/458/132 714/460/133 713/461/133 711/459/132
f 714/460/133 716/462/134 715/463/134 713/461/133
f 716/462/134 718/464/135 717/465/135 715/463/134
f 718/464/135 720/466/136 719/467/136 717/465/135
f 720/466/136 722/468/48 721/469/48 719/467/136
f 722/468/48 724/470/137 723/471/137 721/469/48
f 724/470/137 726/472/138 725/473/138 723/471/137
f 726/472/138 728/474/139 727/475/139 725/473/138
f 728/474/139 730/476/140 729/477/140 727/475/139
f 730/476/140 732/478/91 731/479/91 729/477/140
f 732/478/91 734/480/3 733/481/3 731/479/91
f 734/480/3 736/482/141 735/483/141 733/481/3
f 736/482/141 738/484/90 737/485/90 735/483/141
f 738/484/90 740/486/90 739/487/90 737/485/90
f 740/486/90 628/375/92 627/24/92 739/487/90
f 742/198/142 744/488/143 743/489/143 741/78/142
f 744/488/143 746/490/144 745/491/144 743/489/143
f 746/490/144 748/492/145 747/493/145 745/491/144
f 748/492/145 750/494/146 749/495/146 747/493/145
f 750/494/146 752/496/147 751/86/147 749/495/146
f 752/496/147 754/497/148 753/498/148 751/86/147
f 754/497/148 756/499/149 755/500/149 753/498/148
f 756/499/149 758/501/150 757/502/150 755/500/149
f 758/501/150 760/503/151 759/504/151 757/502/150
f 760/503/151 762/505/152 761/83/152 759/504/151
f 762/505/152 764/506/153 763/507/153 761/83/152
f 764/506/153 766/508/154 765/509/154 763/507/153
f 766/508/154 768/510/155 767/511/155 765/509/154
f 768/510/155 770/512/156 769/513/156 767/511/155
f 770/512/156 772/514/157 771/115/157 769/513/156
f 772/514/157 774/515/158 773/516/158 771/115/157
f 774/515/158 776/517/159 775/518/159 773/516/158
f 776/517/159 778/519/160 777/520/160 775/518/159
f 778/519/160 780/521/161 779/522/161 777/520/160
f 780/521/161 782/523/162 781/124/162 779/522/161
f 782/523/162 784/524/163 783/525/163 781/124/162
f 784/524/163 786/526/164 785/527/164 783/525/163
f 786/526/164 788/528/165 787/529/165 785/527/164
f 788/528/165 790/530/166 789/531/166 787/529/165
f 790/530/166 792/532/167 791/114/167 789/531/166
f 792/532/167 794/533/168 793/534/168 791/114/167
f 794/533/168 796/535/169 795/536/169 793/534/168
f 796/535/169 798/537/170 797/538/170 795/536/169
f 798/537/170 800/539/171 799/540/171 797/538/170
f 800/539/171 802/541/172 801/109/172 799/540/171
f 802/541/172 804/542/173 803/543/173 801/109/172
f 804/542/173 806/544/174 805/545/174 803/543/173
f 806/544/174 808/546/175 807/547/175 805/545/174
f 808/546/175 810/548/176 809/549/176 807/547/175
f 810/548/176 812/550/177 811/103/177 809/549/176
f 812/550/177 814/551/178 813/552/178 811/103/177
f 814/551/178 816/553/141 815/554/141 813/552/178
f 816/553/141 818/555/90 817/556/90 815/554/141
f 818/555/90 820/557/91 819/558/91 817/556/90
f 820/557/91 742/375/142 741/24/142 819/558/91
f 822/198/179 824/559/180 823/560/180 821/78/179
f 824/559/180 826/380/181 825/381/181 823/560/180
f 826/380/181 828/561/182 827/562/182 825/381/181
f 828/561/182 830/386/183 829/387/183 827/562/182
f 830/386/183 832/563/184 831/564/184 829/387/183
f 832/563/184 834/392/185 833/393/185 831/564/184
f 834/392/185 836/565/186 835/566/186 833/393/185
f 836/565/186 838/398/187 837/399/187 835/566/186
f 838/398/187 840/567/188 839/568/188 837/399/187
f 840/567/188 842/404/189 841/405/189 839/568/188
f 842/404/189 844/569/190 843/570/190 841/405/189
f 844/569/190 846/410/191 845/411/191 843/570/190
f 846/410/191 848/571/192 847/572/192 845/411/191
f 848/571/192 850/416/193 849/417/193 847/572/192
f 850/416/193 852/573/194 851/574/194 849/417/193
f 852/573/194 854/422/195 853/423/195 851/574/194
f 854/422/195 856/575/196 855/576/196 853/423/195
f 856/575/196 858/428/197 857/429/197 855/576/196
f 858/428/197 860/523/198 859/124/198 857/429/197
f 860/523/198 862/434/199 861/435/199 859/124/198
f 862/434/199 864/577/200 863/578/200 861/435/199
f 864/577/200 866/440/201 865/441/201 863/578/200
f 866/440/201 868/579/202 867/580/202 865/441/201
f 868/579/202 870/446/203 869/447/203 867/580/202
f 870/446/203 872/581/204 871/582/204 869/447/203
f 872/581/204 874/452/205 873/453/205 871/582/204
f 874/452/205 876/583/206 875/584/206 873/453/205
f 876/583/206 878/458/207 877/459/207 875/584/206
f 878/458/207 880/585/208 879/586/208 877/459/207
f 880/585/208 882/464/209 881/465/209 879/586/208
f 882/464/209 884/587/210 883/588/210 881/465/209
f 884/587/210 886/470/211 885/471/211 883/588/210
f 886/470/211 888/589/212 887/590/212 885/471/211
f 888/589/212 890/476/213 889/477/213 887/590/212
f 890/476/213 892/591/214 891/592/214 889/477/213
f 892/591/214 894/482/141 893/483/141 891/592/214
f 894/482/141 896/593/215 895/594/215 893/483/141
f 896/593/215 822/375/179 821/24/179 895/594/215
