# Blender 4.1.1
# www.blender.org
mtllib stage_1_Cube.mtl
o 立方体
v -1.181049 -0.794871 1.000000
v -1.181049 1.205129 1.000000
v -1.181049 -0.794871 -1.000000
v -1.181049 1.205129 -1.000000
v 0.818951 -0.794871 1.000000
v 0.818951 1.205129 1.000000
v 0.818951 -0.794871 -1.000000
v 0.818951 1.205129 -1.000000
v 1.078770 0.343649 -0.543178
v 1.081647 0.263701 -0.543104
v 1.078013 0.263701 -0.401151
v 1.086285 0.033850 -0.400939
v 1.086753 0.021387 -0.401690
v 1.087203 0.010425 -0.403852
v 1.087634 0.000887 -0.407251
v 1.088043 -0.007308 -0.411713
v 1.088430 -0.014241 -0.417064
v 1.088792 -0.019990 -0.423132
v 1.089129 -0.024636 -0.429743
v 1.089438 -0.028258 -0.436722
v 1.089718 -0.030936 -0.443897
v 1.089967 -0.032750 -0.451093
v 1.090185 -0.033780 -0.458137
v 1.090369 -0.034106 -0.464856
v 1.090566 -0.033877 -0.472875
v 1.090747 -0.033190 -0.480944
v 1.090914 -0.032045 -0.489068
v 1.091066 -0.030442 -0.497256
v 1.091203 -0.028380 -0.505513
v 1.091326 -0.025861 -0.513847
v 1.091434 -0.022884 -0.522265
v 1.091528 -0.019449 -0.530773
v 1.091608 -0.015555 -0.539379
v 1.091675 -0.011204 -0.548090
v 1.091727 -0.006395 -0.556912
v 1.091767 -0.001127 -0.565853
v 1.094752 -0.084074 -0.565776
v 1.094694 -0.088232 -0.557692
v 1.094615 -0.092193 -0.549024
v 1.094516 -0.095925 -0.539899
v 1.094399 -0.099397 -0.530441
v 1.094266 -0.102577 -0.520774
v 1.094119 -0.105435 -0.511025
v 1.093961 -0.107938 -0.501317
v 1.093793 -0.110057 -0.491777
v 1.093617 -0.111759 -0.482528
v 1.093436 -0.113013 -0.473697
v 1.093252 -0.113789 -0.465407
v 1.093067 -0.114054 -0.457784
v 1.092427 -0.112828 -0.434543
v 1.091755 -0.109238 -0.413308
v 1.091053 -0.103420 -0.394081
v 1.090327 -0.095511 -0.376865
v 1.089583 -0.085644 -0.361664
v 1.088824 -0.073955 -0.348482
v 1.088057 -0.060580 -0.337321
v 1.087286 -0.045654 -0.328186
v 1.086515 -0.029312 -0.321079
v 1.085751 -0.011690 -0.316004
v 1.084997 0.007077 -0.312964
v 1.084259 0.026855 -0.311962
v 1.075735 0.263701 -0.312180
v 1.073739 0.263701 -0.234206
v 1.073380 0.273695 -0.234215
v 1.071791 0.436589 -0.401310
v 1.075136 0.343649 -0.401225
v 1.072872 0.235576 -0.160773
v 1.072303 0.242655 -0.148515
v 1.071767 0.248976 -0.136459
v 1.071263 0.254559 -0.124641
v 1.070793 0.259420 -0.113100
v 1.070356 0.263576 -0.101874
v 1.069952 0.267046 -0.091002
v 1.069583 0.269845 -0.080521
v 1.069249 0.271993 -0.070470
v 1.068949 0.273505 -0.060887
v 1.068684 0.274400 -0.051811
v 1.068455 0.274694 -0.043278
v 1.068245 0.274346 -0.034558
v 1.068073 0.273325 -0.026412
v 1.067940 0.271665 -0.018877
v 1.067845 0.269401 -0.011987
v 1.067788 0.266568 -0.005777
v 1.067768 0.263201 -0.000282
v 1.067786 0.259335 0.004464
v 1.067841 0.255003 0.008427
v 1.067932 0.250241 0.011570
v 1.068059 0.245084 0.013860
v 1.068222 0.239565 0.015262
v 1.068420 0.233721 0.015740
v 1.068619 0.228630 0.015109
v 1.068861 0.223311 0.013163
v 1.069148 0.217700 0.009835
v 1.069485 0.211735 0.005060
v 1.069876 0.205354 -0.001228
v 1.070324 0.198493 -0.009094
v 1.070834 0.191092 -0.018606
v 1.071410 0.183087 -0.029828
v 1.072055 0.174415 -0.042827
v 1.072773 0.165015 -0.057668
v 1.073569 0.154824 -0.074417
v 1.074446 0.143779 -0.093141
v 1.075323 0.131892 -0.110657
v 1.076128 0.120641 -0.126285
v 1.076868 0.109910 -0.140095
v 1.077549 0.099585 -0.152155
v 1.078176 0.089552 -0.162536
v 1.078755 0.079695 -0.171307
v 1.079293 0.069901 -0.178536
v 1.079795 0.060055 -0.184294
v 1.080267 0.050043 -0.188649
v 1.080715 0.039749 -0.191671
v 1.081145 0.029060 -0.193429
v 1.081563 0.017860 -0.193992
v 1.082220 -0.001320 -0.192686
v 1.082771 -0.019324 -0.188900
v 1.083217 -0.036058 -0.182774
v 1.083558 -0.051428 -0.174453
v 1.083793 -0.065341 -0.164079
v 1.083924 -0.077703 -0.151793
v 1.083950 -0.088420 -0.137739
v 1.083872 -0.097398 -0.122058
v 1.083690 -0.104545 -0.104893
v 1.083404 -0.109765 -0.086387
v 1.083015 -0.112966 -0.066681
v 1.082522 -0.114054 -0.045919
v 1.082168 -0.113820 -0.032408
v 1.081807 -0.113101 -0.019304
v 1.081435 -0.111868 -0.006512
v 1.081049 -0.110094 0.006060
v 1.080646 -0.107750 0.018507
v 1.080222 -0.104810 0.030922
v 1.079774 -0.101245 0.043399
v 1.079299 -0.097028 0.056032
v 1.078793 -0.092131 0.068914
v 1.078253 -0.086526 0.082139
v 1.077675 -0.080185 0.095800
v 1.077055 -0.073081 0.109992
v 1.073603 0.022857 0.109904
v 1.074315 0.013300 0.095528
v 1.074990 0.004610 0.081402
v 1.075626 -0.003220 0.067567
v 1.076223 -0.010195 0.054063
v 1.076779 -0.016325 0.040934
v 1.077295 -0.021614 0.028221
v 1.077770 -0.026071 0.015965
v 1.078201 -0.029701 0.004209
v 1.078590 -0.032513 -0.007007
v 1.078934 -0.034513 -0.017641
v 1.079233 -0.035708 -0.027650
v 1.079487 -0.036105 -0.036994
v 1.079684 -0.035293 -0.045853
v 1.079851 -0.033856 -0.054379
v 1.079984 -0.031795 -0.062489
v 1.080082 -0.029109 -0.070101
v 1.080143 -0.025799 -0.077129
v 1.080164 -0.021864 -0.083492
v 1.080144 -0.017304 -0.089105
v 1.080080 -0.012120 -0.093886
v 1.079969 -0.006311 -0.097751
v 1.079811 0.000122 -0.100618
v 1.079603 0.007180 -0.102401
v 1.079342 0.014862 -0.103019
v 1.078698 0.029816 -0.098902
v 1.077896 0.043969 -0.087496
v 1.076959 0.057725 -0.070257
v 1.075910 0.071492 -0.048645
v 1.074772 0.085676 -0.024117
v 1.073566 0.100682 0.001867
v 1.072316 0.116916 0.027851
v 1.071045 0.134785 0.052375
v 1.069775 0.154694 0.073981
v 1.068529 0.177049 0.091212
v 1.067329 0.202257 0.102609
v 1.066199 0.230723 0.106713
v 1.065569 0.249076 0.105503
v 1.065045 0.266126 0.101969
v 1.064628 0.281814 0.096201
v 1.064317 0.296088 0.088289
v 1.064111 0.308889 0.078323
v 1.064010 0.320165 0.066394
v 1.064014 0.329857 0.052592
v 1.064123 0.337912 0.037007
v 1.064337 0.344274 0.019731
v 1.064654 0.348887 0.000852
v 1.065075 0.351695 -0.019539
v 1.065599 0.352644 -0.041351
v 1.065877 0.352393 -0.051870
v 1.066175 0.351640 -0.062440
v 1.066492 0.350379 -0.073073
v 1.066830 0.348609 -0.083778
v 1.067189 0.346325 -0.094565
v 1.067568 0.343525 -0.105446
v 1.067969 0.340203 -0.116431
v 1.068392 0.336358 -0.127530
v 1.068836 0.331985 -0.138753
v 1.069304 0.327081 -0.150111
v 1.069794 0.321643 -0.161614
v 1.070308 0.315668 -0.173273
v 1.073473 0.227724 -0.173193
v 1.069530 -0.105060 0.448910
v 1.045002 0.576499 0.448282
v 1.047510 0.576499 0.350315
v 1.072038 -0.105060 0.350942
v -1.403408 0.254262 -0.606725
v -1.400531 0.174313 -0.606651
v -1.404165 0.174313 -0.464697
v -1.395893 -0.055538 -0.464486
v -1.395425 -0.068001 -0.465237
v -1.394975 -0.078962 -0.467398
v -1.394545 -0.088501 -0.470797
v -1.394135 -0.096696 -0.475259
v -1.393749 -0.103629 -0.480611
v -1.393386 -0.109378 -0.486679
v -1.393050 -0.114023 -0.493289
v -1.392740 -0.117646 -0.500269
v -1.392460 -0.120324 -0.507443
v -1.392211 -0.122138 -0.514639
v -1.391993 -0.123168 -0.521683
v -1.391810 -0.123494 -0.528402
v -1.391613 -0.123265 -0.536421
v -1.391431 -0.122578 -0.544490
v -1.391264 -0.121432 -0.552614
v -1.391112 -0.119829 -0.560802
v -1.390975 -0.117768 -0.569059
v -1.390852 -0.115249 -0.577393
v -1.390744 -0.112272 -0.585811
v -1.390650 -0.108836 -0.594320
v -1.390570 -0.104943 -0.602926
v -1.390504 -0.100592 -0.611637
v -1.390451 -0.095782 -0.620459
v -1.390412 -0.090515 -0.629399
v -1.387426 -0.173461 -0.629323
v -1.387484 -0.177620 -0.621238
v -1.387563 -0.181581 -0.612571
v -1.387662 -0.185313 -0.603445
v -1.387779 -0.188785 -0.593987
v -1.387912 -0.191965 -0.584321
v -1.388059 -0.194822 -0.574571
v -1.388217 -0.197326 -0.564864
v -1.388385 -0.199444 -0.555323
v -1.388561 -0.201146 -0.546075
v -1.388742 -0.202401 -0.537243
v -1.388926 -0.203176 -0.528953
v -1.389112 -0.203442 -0.521331
v -1.389751 -0.202215 -0.498090
v -1.390424 -0.198626 -0.476854
v -1.391125 -0.192808 -0.457627
v -1.391851 -0.184898 -0.440411
v -1.392596 -0.175031 -0.425211
v -1.393354 -0.163343 -0.412028
v -1.394121 -0.149968 -0.400868
v -1.394893 -0.135042 -0.391732
v -1.395663 -0.118700 -0.384625
v -1.396428 -0.101078 -0.379550
v -1.397181 -0.082310 -0.376510
v -1.397919 -0.062533 -0.375508
v -1.406443 0.174313 -0.375727
v -1.408439 0.174313 -0.297752
v -1.408799 0.184307 -0.297761
v -1.410387 0.347201 -0.464857
v -1.407042 0.254262 -0.464771
v -1.409306 0.146189 -0.224319
v -1.409875 0.153267 -0.212062
v -1.410411 0.159589 -0.200005
v -1.410915 0.165171 -0.188187
v -1.411385 0.170032 -0.176646
v -1.411822 0.174189 -0.165420
v -1.412226 0.177658 -0.154548
v -1.412595 0.180458 -0.144068
v -1.412930 0.182605 -0.134017
v -1.413229 0.184117 -0.124434
v -1.413494 0.185012 -0.115357
v -1.413723 0.185306 -0.106825
v -1.413934 0.184958 -0.098104
v -1.414105 0.183937 -0.089959
v -1.414239 0.182277 -0.082424
v -1.414333 0.180013 -0.075534
v -1.414390 0.177181 -0.069324
v -1.414410 0.173814 -0.063828
v -1.414392 0.169947 -0.059082
v -1.414338 0.165615 -0.055120
v -1.414247 0.160853 -0.051977
v -1.414119 0.155696 -0.049687
v -1.413957 0.150177 -0.048285
v -1.413758 0.144333 -0.047806
v -1.413559 0.139242 -0.048437
v -1.413317 0.133923 -0.050384
v -1.413030 0.128312 -0.053712
v -1.412693 0.122347 -0.058486
v -1.412302 0.115966 -0.064774
v -1.411854 0.109106 -0.072641
v -1.411344 0.101704 -0.082152
v -1.410768 0.093699 -0.093374
v -1.410123 0.085028 -0.106373
v -1.409405 0.075627 -0.121214
v -1.408609 0.065436 -0.137964
v -1.407732 0.054391 -0.156688
v -1.406855 0.042505 -0.174204
v -1.406050 0.031253 -0.189832
v -1.405310 0.020522 -0.203641
v -1.404630 0.010198 -0.215702
v -1.404002 0.000164 -0.226083
v -1.403423 -0.009692 -0.234853
v -1.402885 -0.019486 -0.242082
v -1.402383 -0.029332 -0.247840
v -1.401911 -0.039345 -0.252195
v -1.401463 -0.049639 -0.255217
v -1.401033 -0.060328 -0.256975
v -1.400615 -0.071527 -0.257539
v -1.399958 -0.090708 -0.256233
v -1.399407 -0.108712 -0.252446
v -1.398961 -0.125445 -0.246321
v -1.398620 -0.140816 -0.238000
v -1.398385 -0.154729 -0.227625
v -1.398254 -0.167090 -0.215340
v -1.398228 -0.177807 -0.201285
v -1.398306 -0.186786 -0.185604
v -1.398488 -0.193932 -0.168440
v -1.398774 -0.199153 -0.149933
v -1.399163 -0.202354 -0.130228
v -1.399656 -0.203442 -0.109466
v -1.400010 -0.203208 -0.095955
v -1.400372 -0.202489 -0.082850
v -1.400743 -0.201256 -0.070059
v -1.401129 -0.199481 -0.057486
v -1.401532 -0.197138 -0.045040
v -1.401956 -0.194198 -0.032624
v -1.402404 -0.190633 -0.020147
v -1.402879 -0.186416 -0.007515
v -1.403385 -0.181519 0.005367
v -1.403926 -0.175913 0.018592
v -1.404504 -0.169573 0.032254
v -1.405123 -0.162468 0.046445
v -1.408575 -0.066531 0.046357
v -1.407863 -0.076088 0.031982
v -1.407189 -0.084778 0.017856
v -1.406553 -0.092607 0.004020
v -1.405956 -0.099583 -0.009483
v -1.405399 -0.105712 -0.022612
v -1.404883 -0.111002 -0.035325
v -1.404409 -0.115458 -0.047581
v -1.403977 -0.119089 -0.059338
v -1.403588 -0.121901 -0.070554
v -1.403244 -0.123901 -0.081187
v -1.402945 -0.125096 -0.091197
v -1.402691 -0.125492 -0.100540
v -1.402494 -0.124680 -0.109399
v -1.402327 -0.123244 -0.117926
v -1.402194 -0.121183 -0.126036
v -1.402096 -0.118497 -0.133647
v -1.402035 -0.115187 -0.140676
v -1.402014 -0.111252 -0.147038
v -1.402034 -0.106692 -0.152652
v -1.402099 -0.101508 -0.157433
v -1.402209 -0.095699 -0.161298
v -1.402367 -0.089266 -0.164164
v -1.402576 -0.082208 -0.165948
v -1.402836 -0.074525 -0.166566
v -1.403480 -0.059571 -0.162449
v -1.404282 -0.045419 -0.151042
v -1.405219 -0.031662 -0.133803
v -1.406268 -0.017895 -0.112191
v -1.407407 -0.003712 -0.087664
v -1.408612 0.011294 -0.061679
v -1.409862 0.027528 -0.035696
v -1.411133 0.045397 -0.011172
v -1.412403 0.065306 0.010435
v -1.413650 0.087661 0.027665
v -1.414849 0.112869 0.039062
v -1.415979 0.141335 0.043167
v -1.416609 0.159689 0.041957
v -1.417133 0.176738 0.038423
v -1.417550 0.192427 0.032654
v -1.417862 0.206700 0.024742
v -1.418067 0.219502 0.014776
v -1.418168 0.230777 0.002847
v -1.418164 0.240470 -0.010954
v -1.418055 0.248525 -0.026539
v -1.417842 0.254886 -0.043816
v -1.417525 0.259499 -0.062695
v -1.417104 0.262307 -0.083085
v -1.416579 0.263256 -0.104897
v -1.416301 0.263005 -0.115416
v -1.416003 0.262252 -0.125987
v -1.415686 0.260992 -0.136619
v -1.415348 0.259221 -0.147324
v -1.414989 0.256938 -0.158112
v -1.414610 0.254137 -0.168993
v -1.414209 0.250815 -0.179978
v -1.413787 0.246970 -0.191076
v -1.413342 0.242597 -0.202299
v -1.412874 0.237694 -0.213657
v -1.412384 0.232256 -0.225161
v -1.411870 0.226280 -0.236820
v -1.408705 0.138337 -0.236739
v -1.412648 -0.194448 0.385364
v -1.437176 0.487111 0.384736
v -1.434668 0.487111 0.286768
v -1.410140 -0.194448 0.287396
v -1.412648 -0.194448 0.385364
v 1.069530 -0.105060 0.448910
v -1.437176 0.487111 0.384736
v 1.045002 0.576499 0.448282
v -1.434668 0.487111 0.286768
v 1.047510 0.576499 0.350315
v -1.410140 -0.194448 0.287396
v 1.072038 -0.105060 0.350942
v -1.409306 0.146189 -0.224319
v 1.072872 0.235576 -0.160773
v -1.409875 0.153267 -0.212062
v 1.072303 0.242655 -0.148515
v -1.410411 0.159589 -0.200005
v 1.071767 0.248976 -0.136459
v -1.410915 0.165171 -0.188187
v 1.071263 0.254559 -0.124641
v -1.411385 0.170032 -0.176646
v 1.070793 0.259420 -0.113100
v -1.411822 0.174189 -0.165420
v 1.070356 0.263576 -0.101874
v -1.412226 0.177658 -0.154548
v 1.069952 0.267046 -0.091002
v -1.412595 0.180458 -0.144068
v 1.069583 0.269845 -0.080521
v -1.412930 0.182605 -0.134017
v 1.069249 0.271993 -0.070470
v -1.413229 0.184117 -0.124434
v 1.068949 0.273505 -0.060887
v -1.413494 0.185012 -0.115357
v 1.068684 0.274400 -0.051811
v -1.413723 0.185306 -0.106825
v 1.068455 0.274694 -0.043278
v -1.413934 0.184958 -0.098104
v 1.068245 0.274346 -0.034558
v -1.414105 0.183937 -0.089959
v 1.068073 0.273325 -0.026412
v -1.414239 0.182277 -0.082424
v 1.067940 0.271665 -0.018877
v -1.414333 0.180013 -0.075534
v 1.067845 0.269401 -0.011987
v -1.414390 0.177181 -0.069324
v 1.067788 0.266568 -0.005777
v -1.414410 0.173814 -0.063828
v 1.067768 0.263201 -0.000282
v -1.414392 0.169947 -0.059082
v 1.067786 0.259335 0.004464
v -1.414338 0.165615 -0.055120
v 1.067841 0.255003 0.008427
v -1.414247 0.160853 -0.051977
v 1.067932 0.250241 0.011570
v -1.414119 0.155696 -0.049687
v 1.068059 0.245084 0.013860
v -1.413957 0.150177 -0.048285
v 1.068222 0.239565 0.015262
v -1.413758 0.144333 -0.047806
v 1.068420 0.233721 0.015740
v -1.413559 0.139242 -0.048437
v 1.068619 0.228630 0.015109
v -1.413317 0.133923 -0.050384
v 1.068861 0.223311 0.013163
v -1.413030 0.128312 -0.053712
v 1.069148 0.217700 0.009835
v -1.412693 0.122347 -0.058486
v 1.069485 0.211735 0.005060
v -1.412302 0.115966 -0.064774
v 1.069876 0.205354 -0.001228
v -1.411854 0.109106 -0.072641
v 1.070324 0.198493 -0.009094
v -1.411344 0.101704 -0.082152
v 1.070834 0.191092 -0.018606
v -1.410768 0.093699 -0.093374
v 1.071410 0.183087 -0.029828
v -1.410123 0.085028 -0.106373
v 1.072055 0.174415 -0.042827
v -1.409405 0.075627 -0.121214
v 1.072773 0.165015 -0.057668
v -1.408609 0.065436 -0.137964
v 1.073569 0.154824 -0.074417
v -1.407732 0.054391 -0.156688
v 1.074446 0.143779 -0.093141
v -1.406855 0.042505 -0.174204
v 1.075323 0.131892 -0.110657
v -1.406050 0.031253 -0.189832
v 1.076128 0.120641 -0.126285
v -1.405310 0.020522 -0.203641
v 1.076868 0.109910 -0.140095
v -1.404630 0.010198 -0.215702
v 1.077549 0.099585 -0.152155
v -1.404002 0.000164 -0.226083
v 1.078176 0.089552 -0.162536
v -1.403423 -0.009692 -0.234853
v 1.078755 0.079695 -0.171307
v -1.402885 -0.019486 -0.242082
v 1.079293 0.069901 -0.178536
v -1.402383 -0.029332 -0.247840
v 1.079795 0.060055 -0.184294
v -1.401911 -0.039345 -0.252195
v 1.080267 0.050043 -0.188649
v -1.401463 -0.049639 -0.255217
v 1.080715 0.039749 -0.191671
v -1.401033 -0.060328 -0.256975
v 1.081145 0.029060 -0.193429
v -1.400615 -0.071527 -0.257539
v 1.081563 0.017860 -0.193992
v -1.399958 -0.090708 -0.256233
v 1.082220 -0.001320 -0.192686
v -1.399407 -0.108712 -0.252446
v 1.082771 -0.019324 -0.188900
v -1.398961 -0.125445 -0.246321
v 1.083217 -0.036058 -0.182774
v -1.398620 -0.140816 -0.238000
v 1.083558 -0.051428 -0.174453
v -1.398385 -0.154729 -0.227625
v 1.083793 -0.065341 -0.164079
v -1.398254 -0.167090 -0.215340
v 1.083924 -0.077703 -0.151793
v -1.398228 -0.177807 -0.201285
v 1.083950 -0.088420 -0.137739
v -1.398306 -0.186786 -0.185604
v 1.083872 -0.097398 -0.122058
v -1.398488 -0.193932 -0.168440
v 1.083690 -0.104545 -0.104893
v -1.398774 -0.199153 -0.149933
v 1.083404 -0.109765 -0.086387
v -1.399163 -0.202354 -0.130228
v 1.083015 -0.112966 -0.066681
v -1.399656 -0.203442 -0.109466
v 1.082522 -0.114054 -0.045919
v -1.400010 -0.203208 -0.095955
v 1.082168 -0.113820 -0.032408
v -1.400372 -0.202489 -0.082850
v 1.081807 -0.113101 -0.019304
v -1.400743 -0.201256 -0.070059
v 1.081435 -0.111868 -0.006512
v -1.401129 -0.199481 -0.057486
v 1.081049 -0.110094 0.006060
v -1.401532 -0.197138 -0.045040
v 1.080646 -0.107750 0.018507
v -1.401956 -0.194198 -0.032624
v 1.080222 -0.104810 0.030922
v -1.402404 -0.190633 -0.020147
v 1.079774 -0.101245 0.043399
v -1.402879 -0.186416 -0.007515
v 1.079299 -0.097028 0.056032
v -1.403385 -0.181519 0.005367
v 1.078793 -0.092131 0.068914
v -1.403926 -0.175913 0.018592
v 1.078253 -0.086526 0.082139
v -1.404504 -0.169573 0.032254
v 1.077675 -0.080185 0.095800
v -1.405123 -0.162468 0.046445
v 1.077055 -0.073081 0.109992
v -1.408575 -0.066531 0.046357
v 1.073603 0.022857 0.109904
v -1.407863 -0.076088 0.031982
v 1.074315 0.013300 0.095528
v -1.407189 -0.084778 0.017856
v 1.074990 0.004610 0.081402
v -1.406553 -0.092607 0.004020
v 1.075626 -0.003220 0.067567
v -1.405956 -0.099583 -0.009483
v 1.076223 -0.010195 0.054063
v -1.405399 -0.105712 -0.022612
v 1.076779 -0.016325 0.040934
v -1.404883 -0.111002 -0.035325
v 1.077295 -0.021614 0.028221
v -1.404409 -0.115458 -0.047581
v 1.077770 -0.026071 0.015965
v -1.403977 -0.119089 -0.059338
v 1.078201 -0.029701 0.004209
v -1.403588 -0.121901 -0.070554
v 1.078590 -0.032513 -0.007007
v -1.403244 -0.123901 -0.081187
v 1.078934 -0.034513 -0.017641
v -1.402945 -0.125096 -0.091197
v 1.079233 -0.035708 -0.027650
v -1.402691 -0.125492 -0.100540
v 1.079487 -0.036105 -0.036994
v -1.402494 -0.124680 -0.109399
v 1.079684 -0.035293 -0.045853
v -1.402327 -0.123244 -0.117926
v 1.079851 -0.033856 -0.054379
v -1.402194 -0.121183 -0.126036
v 1.079984 -0.031795 -0.062489
v -1.402096 -0.118497 -0.133647
v 1.080082 -0.029109 -0.070101
v -1.402035 -0.115187 -0.140676
v 1.080143 -0.025799 -0.077129
v -1.402014 -0.111252 -0.147038
v 1.080164 -0.021864 -0.083492
v -1.402034 -0.106692 -0.152652
v 1.080144 -0.017304 -0.089105
v -1.402099 -0.101508 -0.157433
v 1.080080 -0.012120 -0.093886
v -1.402209 -0.095699 -0.161298
v 1.079969 -0.006311 -0.097751
v -1.402367 -0.089266 -0.164164
v 1.079811 0.000122 -0.100618
v -1.402576 -0.082208 -0.165948
v 1.079603 0.007180 -0.102401
v -1.402836 -0.074525 -0.166566
v 1.079342 0.014862 -0.103019
v -1.403480 -0.059571 -0.162449
v 1.078698 0.029816 -0.098902
v -1.404282 -0.045419 -0.151042
v 1.077896 0.043969 -0.087496
v -1.405219 -0.031662 -0.133803
v 1.076959 0.057725 -0.070257
v -1.406268 -0.017895 -0.112191
v 1.075910 0.071492 -0.048645
v -1.407407 -0.003712 -0.087664
v 1.074772 0.085676 -0.024117
v -1.408612 0.011294 -0.061679
v 1.073566 0.100682 0.001867
v -1.409862 0.027528 -0.035696
v 1.072316 0.116916 0.027851
v -1.411133 0.045397 -0.011172
v 1.071045 0.134785 0.052375
v -1.412403 0.065306 0.010435
v 1.069775 0.154694 0.073981
v -1.413650 0.087661 0.027665
v 1.068529 0.177049 0.091212
v -1.414849 0.112869 0.039062
v 1.067329 0.202257 0.102609
v -1.415979 0.141335 0.043167
v 1.066199 0.230723 0.106713
v -1.416609 0.159689 0.041957
v 1.065569 0.249076 0.105503
v -1.417133 0.176738 0.038423
v 1.065045 0.266126 0.101969
v -1.417550 0.192427 0.032654
v 1.064628 0.281814 0.096201
v -1.417862 0.206700 0.024742
v 1.064317 0.296088 0.088289
v -1.418067 0.219502 0.014776
v 1.064111 0.308889 0.078323
v -1.418168 0.230777 0.002847
v 1.064010 0.320165 0.066394
v -1.418164 0.240470 -0.010954
v 1.064014 0.329857 0.052592
v -1.418055 0.248525 -0.026539
v 1.064123 0.337912 0.037007
v -1.417842 0.254886 -0.043816
v 1.064337 0.344274 0.019731
v -1.417525 0.259499 -0.062695
v 1.064654 0.348887 0.000852
v -1.417104 0.262307 -0.083085
v 1.065075 0.351695 -0.019539
v -1.416579 0.263256 -0.104897
v 1.065599 0.352644 -0.041351
v -1.416301 0.263005 -0.115416
v 1.065877 0.352393 -0.051870
v -1.416003 0.262252 -0.125987
v 1.066175 0.351640 -0.062440
v -1.415686 0.260992 -0.136619
v 1.066492 0.350379 -0.073073
v -1.415348 0.259221 -0.147324
v 1.066830 0.348609 -0.083778
v -1.414989 0.256938 -0.158112
v 1.067189 0.346325 -0.094565
v -1.414610 0.254137 -0.168993
v 1.067568 0.343525 -0.105446
v -1.414209 0.250815 -0.179978
v 1.067969 0.340203 -0.116431
v -1.413787 0.246970 -0.191076
v 1.068392 0.336358 -0.127530
v -1.413342 0.242597 -0.202299
v 1.068836 0.331985 -0.138753
v -1.412874 0.237694 -0.213657
v 1.069304 0.327081 -0.150111
v -1.412384 0.232256 -0.225161
v 1.069794 0.321643 -0.161614
v -1.411870 0.226280 -0.236820
v 1.070308 0.315668 -0.173273
v -1.408705 0.138337 -0.236739
v 1.073473 0.227724 -0.173193
v -1.403408 0.254262 -0.606725
v 1.078770 0.343649 -0.543178
v -1.400531 0.174313 -0.606651
v 1.081647 0.263701 -0.543104
v -1.404165 0.174313 -0.464697
v 1.078013 0.263701 -0.401151
v -1.395893 -0.055538 -0.464486
v 1.086285 0.033850 -0.400939
v -1.395425 -0.068001 -0.465237
v 1.086753 0.021387 -0.401690
v -1.394975 -0.078962 -0.467398
v 1.087203 0.010425 -0.403852
v -1.394545 -0.088501 -0.470797
v 1.087634 0.000887 -0.407251
v -1.394135 -0.096696 -0.475259
v 1.088043 -0.007308 -0.411713
v -1.393749 -0.103629 -0.480611
v 1.088430 -0.014241 -0.417064
v -1.393386 -0.109378 -0.486679
v 1.088792 -0.019990 -0.423132
v -1.393050 -0.114023 -0.493289
v 1.089129 -0.024636 -0.429743
v -1.392740 -0.117646 -0.500269
v 1.089438 -0.028258 -0.436722
v -1.392460 -0.120324 -0.507443
v 1.089718 -0.030936 -0.443897
v -1.392211 -0.122138 -0.514639
v 1.089967 -0.032750 -0.451093
v -1.391993 -0.123168 -0.521683
v 1.090185 -0.033780 -0.458137
v -1.391810 -0.123494 -0.528402
v 1.090369 -0.034106 -0.464856
v -1.391613 -0.123265 -0.536421
v 1.090566 -0.033877 -0.472875
v -1.391431 -0.122578 -0.544490
v 1.090747 -0.033190 -0.480944
v -1.391264 -0.121432 -0.552614
v 1.090914 -0.032045 -0.489068
v -1.391112 -0.119829 -0.560802
v 1.091066 -0.030442 -0.497256
v -1.390975 -0.117768 -0.569059
v 1.091203 -0.028380 -0.505513
v -1.390852 -0.115249 -0.577393
v 1.091326 -0.025861 -0.513847
v -1.390744 -0.112272 -0.585811
v 1.091434 -0.022884 -0.522265
v -1.390650 -0.108836 -0.594320
v 1.091528 -0.019449 -0.530773
v -1.390570 -0.104943 -0.602926
v 1.091608 -0.015555 -0.539379
v -1.390504 -0.100592 -0.611637
v 1.091675 -0.011204 -0.548090
v -1.390451 -0.095782 -0.620459
v 1.091727 -0.006395 -0.556912
v -1.390412 -0.090515 -0.629399
v 1.091767 -0.001127 -0.565853
v -1.387426 -0.173461 -0.629323
v 1.094752 -0.084074 -0.565776
v -1.387484 -0.177620 -0.621238
v 1.094694 -0.088232 -0.557692
v -1.387563 -0.181581 -0.612571
v 1.094615 -0.092193 -0.549024
v -1.387662 -0.185313 -0.603445
v 1.094516 -0.095925 -0.539899
v -1.387779 -0.188785 -0.593987
v 1.094399 -0.099397 -0.530441
v -1.387912 -0.191965 -0.584321
v 1.094266 -0.102577 -0.520774
v -1.388059 -0.194822 -0.574571
v 1.094119 -0.105435 -0.511025
v -1.388217 -0.197326 -0.564864
v 1.093961 -0.107938 -0.501317
v -1.388385 -0.199444 -0.555323
v 1.093793 -0.110057 -0.491777
v -1.388561 -0.201146 -0.546075
v 1.093617 -0.111759 -0.482528
v -1.388742 -0.202401 -0.537243
v 1.093436 -0.113013 -0.473697
v -1.388926 -0.203176 -0.528953
v 1.093252 -0.113789 -0.465407
v -1.389112 -0.203442 -0.521331
v 1.093067 -0.114054 -0.457784
v -1.389751 -0.202215 -0.498090
v 1.092427 -0.112828 -0.434543
v -1.390424 -0.198626 -0.476854
v 1.091755 -0.109238 -0.413308
v -1.391125 -0.192808 -0.457627
v 1.091053 -0.103420 -0.394081
v -1.391851 -0.184898 -0.440411
v 1.090327 -0.095511 -0.376865
v -1.392596 -0.175031 -0.425211
v 1.089583 -0.085644 -0.361664
v -1.393354 -0.163343 -0.412028
v 1.088824 -0.073955 -0.348482
v -1.394121 -0.149968 -0.400868
v 1.088057 -0.060580 -0.337321
v -1.394893 -0.135042 -0.391732
v 1.087286 -0.045654 -0.328186
v -1.395663 -0.118700 -0.384625
v 1.086515 -0.029312 -0.321079
v -1.396428 -0.101078 -0.379550
v 1.085751 -0.011690 -0.316004
v -1.397181 -0.082310 -0.376510
v 1.084997 0.007077 -0.312964
v -1.397919 -0.062533 -0.375508
v 1.084259 0.026855 -0.311962
v -1.406443 0.174313 -0.375727
v 1.075735 0.263701 -0.312180
v -1.408439 0.174313 -0.297752
v 1.073739 0.263701 -0.234206
v -1.408799 0.184307 -0.297761
v 1.073380 0.273695 -0.234215
v -1.410387 0.347201 -0.464857
v 1.071791 0.436589 -0.401310
v -1.407042 0.254262 -0.464771
v 1.075136 0.343649 -0.401225
vn -1.0000 -0.0000 -0.0000
vn -0.0000 -0.0000 -1.0000
vn 1.0000 -0.0000 -0.0000
vn -0.0000 -0.0000 1.0000
vn -0.0000 -1.0000 -0.0000
vn -0.0000 1.0000 -0.0000
vn 0.9990 0.0360 0.0256
vn 0.9990 0.0360 0.0255
vn 0.9990 0.0359 0.0256
vn 0.9990 0.0359 0.0255
vn 0.9990 0.0361 0.0256
vn 0.9990 0.0363 0.0256
vn -0.9990 -0.0360 -0.0256
vn -0.2169 -0.9762 -0.0000
vn -0.9990 -0.0360 -0.0255
vn -0.9990 -0.0359 -0.0256
vn -0.9990 -0.0361 -0.0255
vn -0.9990 -0.0363 -0.0256
vn -0.9990 -0.0361 -0.0256
vn 0.0073 -0.7066 0.7075
vn -0.0435 0.7066 0.7062
vn -0.0073 0.7066 -0.7075
vn 0.0435 -0.7066 -0.7062
vn 0.0175 -0.8553 0.5179
vn 0.0192 -0.8755 0.4829
vn 0.0208 -0.8946 0.4465
vn 0.0224 -0.9125 0.4084
vn 0.0240 -0.9293 0.3685
vn 0.0257 -0.9449 0.3265
vn 0.0273 -0.9590 0.2819
vn 0.0290 -0.9717 0.2344
vn 0.0307 -0.9826 0.1833
vn 0.0324 -0.9913 0.1279
vn 0.0342 -0.9972 0.0672
vn 0.0360 -0.9993 -0.0018
vn 0.0379 -0.9960 -0.0813
vn 0.0398 -0.9848 -0.1691
vn 0.0414 -0.9639 -0.2631
vn 0.0428 -0.9307 -0.3634
vn 0.0438 -0.8822 -0.4689
vn 0.0441 -0.8150 -0.5778
vn 0.0437 -0.7262 -0.6861
vn 0.0423 -0.6139 -0.7883
vn 0.0397 -0.4790 -0.8769
vn 0.0359 -0.3261 -0.9447
vn 0.0311 -0.1634 -0.9861
vn 0.0248 0.0217 -0.9995
vn 0.0164 0.2355 -0.9717
vn 0.0077 0.4290 -0.9033
vn 0.0006 0.5689 -0.8224
vn -0.0048 0.6641 -0.7476
vn -0.0087 0.7280 -0.6855
vn -0.0115 0.7714 -0.6363
vn -0.0136 0.8014 -0.5980
vn -0.0151 0.8226 -0.5684
vn -0.0162 0.8379 -0.5455
vn -0.0171 0.8491 -0.5280
vn -0.0177 0.8573 -0.5145
vn -0.0167 0.8443 -0.5356
vn -0.0148 0.8191 -0.5734
vn -0.0135 0.8003 -0.5994
vn -0.0117 0.7745 -0.6325
vn -0.0094 0.7394 -0.6732
vn -0.0064 0.6922 -0.7217
vn -0.0028 0.6299 -0.7767
vn 0.0016 0.5502 -0.8350
vn 0.0065 0.4529 -0.8916
vn 0.0118 0.3414 -0.9399
vn 0.0169 0.2230 -0.9747
vn 0.0216 0.1072 -0.9940
vn 0.0259 -0.0079 -0.9996
vn 0.0303 -0.1362 -0.9902
vn 0.0345 -0.2744 -0.9610
vn 0.0381 -0.4099 -0.9113
vn 0.0409 -0.5373 -0.8424
vn 0.0429 -0.6520 -0.7570
vn 0.0439 -0.7510 -0.6589
vn 0.0441 -0.8325 -0.5522
vn 0.0436 -0.8965 -0.4408
vn 0.0424 -0.9438 -0.3277
vn 0.0407 -0.9757 -0.2154
vn 0.0385 -0.9937 -0.1056
vn 0.0364 -0.9992 -0.0166
vn 0.0350 -0.9987 0.0370
vn 0.0339 -0.9965 0.0763
vn 0.0327 -0.9924 0.1188
vn 0.0313 -0.9861 0.1633
vn 0.0299 -0.9775 0.2086
vn 0.0283 -0.9669 0.2535
vn 0.0268 -0.9546 0.2965
vn 0.0253 -0.9412 0.3368
vn 0.0238 -0.9273 0.3736
vn 0.0225 -0.9134 0.4064
vn 0.0213 -0.9002 0.4350
vn -0.0029 -0.5252 0.8510
vn -0.0438 0.8808 0.4715
vn -0.0165 0.8419 -0.5394
vn -0.0180 0.8607 -0.5089
vn -0.0195 0.8790 -0.4764
vn -0.0210 0.8969 -0.4417
vn -0.0226 0.9143 -0.4043
vn -0.0242 0.9312 -0.3638
vn -0.0259 0.9473 -0.3193
vn -0.0277 0.9625 -0.2700
vn -0.0297 0.9762 -0.2150
vn -0.0317 0.9878 -0.1526
vn -0.0338 0.9961 -0.0814
vn -0.0366 0.9991 0.0236
vn -0.0390 0.9910 0.1279
vn -0.0405 0.9778 0.2055
vn -0.0418 0.9564 0.2890
vn -0.0430 0.9243 0.3792
vn -0.0438 0.8783 0.4761
vn -0.0441 0.8142 0.5789
vn -0.0437 0.7281 0.6841
vn -0.0423 0.6169 0.7859
vn -0.0397 0.4811 0.8758
vn -0.0359 0.3261 0.9446
vn -0.0311 0.1621 0.9863
vn -0.0221 -0.0948 0.9952
vn -0.0064 -0.4563 0.8898
vn 0.0075 -0.7086 0.7056
vn 0.0144 -0.8132 0.5818
vn 0.0175 -0.8542 0.5196
vn 0.0183 -0.8653 0.5009
vn 0.0176 -0.8567 0.5156
vn 0.0155 -0.8282 0.5602
vn 0.0116 -0.7727 0.6346
vn 0.0054 -0.6752 0.7376
vn -0.0034 -0.5148 0.8573
vn -0.0145 -0.2806 0.9597
vn -0.0241 -0.0396 0.9989
vn -0.0302 0.1337 0.9906
vn -0.0345 0.2737 0.9612
vn -0.0382 0.4151 0.9090
vn -0.0412 0.5502 0.8340
vn -0.0431 0.6715 0.7397
vn -0.0440 0.7737 0.6320
vn -0.0440 0.8546 0.5175
vn -0.0432 0.9144 0.4024
vn -0.0419 0.9558 0.2911
vn -0.0401 0.9817 0.1863
vn -0.0381 0.9953 0.0891
vn -0.0362 0.9993 0.0089
vn -0.0347 0.9982 -0.0484
vn -0.0334 0.9949 -0.0953
vn -0.0320 0.9894 -0.1414
vn -0.0306 0.9821 -0.1861
vn -0.0292 0.9730 -0.2291
vn -0.0277 0.9624 -0.2702
vn -0.0263 0.9506 -0.3092
vn -0.0249 0.9379 -0.3460
vn -0.0236 0.9245 -0.3805
vn -0.0222 0.9106 -0.4126
vn -0.0210 0.8966 -0.4424
vn 0.0031 0.5212 -0.8535
vn 0.0439 -0.8753 -0.4816
vn 0.0245 0.0305 -0.9992
vn 0.0208 0.1279 -0.9916
vn 0.0151 0.2659 -0.9639
vn 0.0087 0.4085 -0.9127
vn 0.0018 0.5464 -0.8375
vn -0.0051 0.6703 -0.7420
vn -0.0116 0.7737 -0.6334
vn -0.0175 0.8543 -0.5195
vn -0.0225 0.9133 -0.4066
vn -0.0267 0.9541 -0.2983
vn -0.0303 0.9802 -0.1957
vn -0.0333 0.9947 -0.0976
vn -0.0357 0.9993 -0.0109
vn -0.0374 0.9977 0.0558
vn -0.0386 0.9930 0.1113
vn -0.0397 0.9855 0.1650
vn -0.0407 0.9755 0.2164
vn -0.0415 0.9634 0.2650
vn -0.0421 0.9496 0.3107
vn -0.0427 0.9346 0.3532
vn -0.0431 0.9187 0.3926
vn -0.0435 0.9023 0.4289
vn -0.0437 0.8857 0.4622
vn -0.0439 0.8692 0.4925
vn -0.0185 0.8678 -0.4967
vn -0.0185 0.8678 -0.4966
vn 0.0406 -0.5204 -0.8530
vn 0.0435 -0.8989 -0.4360
vn 0.0432 -0.9170 -0.3964
vn 0.0428 -0.9316 -0.3608
vn 0.0424 -0.9438 -0.3278
vn 0.0419 -0.9542 -0.2961
vn 0.0415 -0.9634 -0.2647
vn 0.0409 -0.9718 -0.2324
vn 0.0403 -0.9794 -0.1980
vn 0.0396 -0.9863 -0.1600
vn 0.0387 -0.9925 -0.1160
vn 0.0375 -0.9973 -0.0631
vn 0.0357 -0.9993 0.0099
vn 0.0329 -0.9933 0.1108
vn 0.0292 -0.9729 0.2294
vn 0.0246 -0.9345 0.3551
vn 0.0192 -0.8755 0.4828
vn 0.0131 -0.7953 0.6060
vn 0.0067 -0.6962 0.7178
vn 0.0002 -0.5829 0.8125
vn -0.0061 -0.4618 0.8870
vn -0.0119 -0.3389 0.9407
vn -0.0171 -0.2194 0.9755
vn -0.0216 -0.1062 0.9941
vn -0.0247 -0.0257 0.9994
vn -0.0375 0.3880 0.9209
vn -0.0232 0.9209 -0.3890
vt 0.312500 0.526749
vt 0.218750 0.526749
vt 0.218750 0.000000
vt 0.312500 0.000000
vt 0.406250 0.526749
vt 0.312500 0.526749
vt 0.312500 0.000000
vt 0.406250 0.000000
vt 0.500000 0.526749
vt 0.406250 0.526749
vt 0.406250 0.000000
vt 0.500000 0.000000
vt 0.593750 0.526749
vt 0.500000 0.526749
vt 0.500000 0.000000
vt 0.593750 0.000000
vt 0.687500 0.000000
vt 0.687500 0.526749
vt 0.593750 0.000000
vt 0.781250 0.000000
vt 0.781250 0.526749
vt 0.687500 0.526749
vt 0.687500 0.000000
vt 0.964912 0.000000
vt 1.000000 0.000000
vt 0.982456 0.000000
vt 0.000000 0.000000
vt 0.017544 0.000000
vt 0.947368 0.000000
vt 0.929825 0.000000
vt 0.912281 0.000000
vt 0.035088 0.000000
vt 0.052632 0.000000
vt 0.070175 0.000000
vt 0.894737 0.000000
vt 0.087719 0.000000
vt 0.105263 0.000000
vt 0.877193 0.000000
vt 0.122807 0.000000
vt 0.456140 0.000000
vt 0.491228 0.000000
vt 0.473684 0.000000
vt 0.438596 0.000000
vt 0.140351 0.000000
vt 0.421053 0.000000
vt 0.859649 0.000000
vt 0.157895 0.000000
vt 0.403509 0.000000
vt 0.385965 0.000000
vt 0.175439 0.000000
vt 0.368421 0.000000
vt 0.192982 0.000000
vt 0.350877 0.000000
vt 0.210526 0.000000
vt 0.333333 0.000000
vt 0.842105 0.000000
vt 0.315789 0.000000
vt 0.228070 0.000000
vt 0.298246 0.000000
vt 0.245614 0.000000
vt 0.280702 0.000000
vt 0.263158 0.000000
vt 0.824561 0.000000
vt 0.807018 0.000000
vt 0.789474 0.000000
vt 0.508772 0.000000
vt 0.771930 0.000000
vt 0.526316 0.000000
vt 0.543860 0.000000
vt 0.754386 0.000000
vt 0.561404 0.000000
vt 0.578947 0.000000
vt 0.596491 0.000000
vt 0.736842 0.000000
vt 0.614035 0.000000
vt 0.631579 0.000000
vt 0.719298 0.000000
vt 0.649123 0.000000
vt 0.666667 0.000000
vt 0.701754 0.000000
vt 0.684211 0.000000
vt 0.909774 0.000000
vt 0.902256 0.000000
vt 0.917293 0.000000
vt 0.887218 0.000000
vt 0.924812 0.000000
vt 0.932331 0.000000
vt 0.879699 0.000000
vt 0.939850 0.000000
vt 0.872180 0.000000
vt 0.954887 0.000000
vt 0.962406 0.000000
vt 0.864662 0.000000
vt 0.969925 0.000000
vt 0.977444 0.000000
vt 0.857143 0.000000
vt 0.984962 0.000000
vt 0.992481 0.000000
vt 0.849624 0.000000
vt 0.045113 0.000000
vt 0.037594 0.000000
vt 0.030075 0.000000
vt 0.022556 0.000000
vt 0.015038 0.000000
vt 0.007519 0.000000
vt 0.067669 0.000000
vt 0.060150 0.000000
vt 0.834586 0.000000
vt 0.075188 0.000000
vt 0.827068 0.000000
vt 0.090226 0.000000
vt 0.082707 0.000000
vt 0.097744 0.000000
vt 0.112782 0.000000
vt 0.120301 0.000000
vt 0.127820 0.000000
vt 0.819549 0.000000
vt 0.135338 0.000000
vt 0.142857 0.000000
vt 0.150376 0.000000
vt 0.812030 0.000000
vt 0.165414 0.000000
vt 0.172932 0.000000
vt 0.180451 0.000000
vt 0.804511 0.000000
vt 0.187970 0.000000
vt 0.195489 0.000000
vt 0.203008 0.000000
vt 0.218045 0.000000
vt 0.796992 0.000000
vt 0.225564 0.000000
vt 0.233083 0.000000
vt 0.240602 0.000000
vt 0.248120 0.000000
vt 0.255639 0.000000
vt 0.781955 0.000000
vt 0.270677 0.000000
vt 0.774436 0.000000
vt 0.278196 0.000000
vt 0.285714 0.000000
vt 0.766917 0.000000
vt 0.293233 0.000000
vt 0.759399 0.000000
vt 0.300752 0.000000
vt 0.308271 0.000000
vt 0.751880 0.000000
vt 0.744361 0.000000
vt 0.323308 0.000000
vt 0.330827 0.000000
vt 0.338346 0.000000
vt 0.729323 0.000000
vt 0.345865 0.000000
vt 0.721804 0.000000
vt 0.353383 0.000000
vt 0.533835 0.000000
vt 0.548872 0.000000
vt 0.541353 0.000000
vt 0.360902 0.000000
vt 0.714286 0.000000
vt 0.556391 0.000000
vt 0.706767 0.000000
vt 0.563910 0.000000
vt 0.699248 0.000000
vt 0.571429 0.000000
vt 0.691729 0.000000
vt 0.586466 0.000000
vt 0.676692 0.000000
vt 0.375940 0.000000
vt 0.593985 0.000000
vt 0.669173 0.000000
vt 0.661654 0.000000
vt 0.601504 0.000000
vt 0.654135 0.000000
vt 0.609023 0.000000
vt 0.646617 0.000000
vt 0.616541 0.000000
vt 0.639098 0.000000
vt 0.624060 0.000000
vt 0.383459 0.000000
vt 0.390977 0.000000
vt 0.398496 0.000000
vt 0.406015 0.000000
vt 0.518797 0.000000
vt 0.511278 0.000000
vt 0.413534 0.000000
vt 0.503759 0.000000
vt 0.496241 0.000000
vt 0.488722 0.000000
vt 0.428571 0.000000
vt 0.481203 0.000000
vt 0.436090 0.000000
vt 0.466165 0.000000
vt 0.458647 0.000000
vt 0.443609 0.000000
vt 0.451128 0.000000
vt 0.000000 1.000000
vt 0.250000 1.000000
vt 0.250000 0.000000
vt 0.500000 1.000000
vt 0.500000 0.000000
vt 0.750000 1.000000
vt 0.750000 0.000000
vt 1.000000 1.000000
vt 0.007463 1.000000
vt 0.007463 0.000000
vt 0.014925 1.000000
vt 0.014925 0.000000
vt 0.022388 1.000000
vt 0.022388 0.000000
vt 0.029851 1.000000
vt 0.029851 0.000000
vt 0.037313 1.000000
vt 0.037313 0.000000
vt 0.044776 1.000000
vt 0.044776 0.000000
vt 0.052239 1.000000
vt 0.052239 0.000000
vt 0.059701 1.000000
vt 0.059701 0.000000
vt 0.067164 1.000000
vt 0.067164 0.000000
vt 0.074627 1.000000
vt 0.074627 0.000000
vt 0.082090 1.000000
vt 0.082090 0.000000
vt 0.089552 1.000000
vt 0.089552 0.000000
vt 0.097015 1.000000
vt 0.097015 0.000000
vt 0.104478 1.000000
vt 0.104478 0.000000
vt 0.111940 1.000000
vt 0.111940 0.000000
vt 0.119403 1.000000
vt 0.119403 0.000000
vt 0.126866 1.000000
vt 0.126866 0.000000
vt 0.134328 1.000000
vt 0.134328 0.000000
vt 0.141791 1.000000
vt 0.141791 0.000000
vt 0.149254 1.000000
vt 0.149254 0.000000
vt 0.156716 1.000000
vt 0.156716 0.000000
vt 0.164179 1.000000
vt 0.164179 0.000000
vt 0.171642 1.000000
vt 0.171642 0.000000
vt 0.179104 1.000000
vt 0.179104 0.000000
vt 0.186567 1.000000
vt 0.186567 0.000000
vt 0.194030 1.000000
vt 0.194030 0.000000
vt 0.201493 1.000000
vt 0.201493 0.000000
vt 0.208955 1.000000
vt 0.208955 0.000000
vt 0.216418 1.000000
vt 0.216418 0.000000
vt 0.223881 1.000000
vt 0.223881 0.000000
vt 0.231343 1.000000
vt 0.231343 0.000000
vt 0.238806 1.000000
vt 0.238806 0.000000
vt 0.246269 1.000000
vt 0.246269 0.000000
vt 0.253731 1.000000
vt 0.253731 0.000000
vt 0.261194 1.000000
vt 0.261194 0.000000
vt 0.268657 1.000000
vt 0.268657 0.000000
vt 0.276119 1.000000
vt 0.276119 0.000000
vt 0.283582 1.000000
vt 0.283582 0.000000
vt 0.291045 1.000000
vt 0.291045 0.000000
vt 0.298507 1.000000
vt 0.298507 0.000000
vt 0.305970 1.000000
vt 0.305970 0.000000
vt 0.313433 1.000000
vt 0.313433 0.000000
vt 0.320896 1.000000
vt 0.320896 0.000000
vt 0.328358 1.000000
vt 0.328358 0.000000
vt 0.335821 1.000000
vt 0.335821 0.000000
vt 0.343284 1.000000
vt 0.343284 0.000000
vt 0.350746 1.000000
vt 0.350746 0.000000
vt 0.358209 1.000000
vt 0.358209 0.000000
vt 0.365672 1.000000
vt 0.365672 0.000000
vt 0.373134 1.000000
vt 0.373134 0.000000
vt 0.380597 1.000000
vt 0.380597 0.000000
vt 0.388060 1.000000
vt 0.388060 0.000000
vt 0.395522 1.000000
vt 0.395522 0.000000
vt 0.402985 1.000000
vt 0.402985 0.000000
vt 0.410448 1.000000
vt 0.410448 0.000000
vt 0.417910 1.000000
vt 0.417910 0.000000
vt 0.425373 1.000000
vt 0.425373 0.000000
vt 0.432836 1.000000
vt 0.432836 0.000000
vt 0.440298 1.000000
vt 0.440298 0.000000
vt 0.447761 1.000000
vt 0.447761 0.000000
vt 0.455224 1.000000
vt 0.455224 0.000000
vt 0.462687 1.000000
vt 0.462687 0.000000
vt 0.470149 1.000000
vt 0.470149 0.000000
vt 0.477612 1.000000
vt 0.477612 0.000000
vt 0.485075 1.000000
vt 0.485075 0.000000
vt 0.492537 1.000000
vt 0.492537 0.000000
vt 0.507463 1.000000
vt 0.507463 0.000000
vt 0.514925 1.000000
vt 0.514925 0.000000
vt 0.522388 1.000000
vt 0.522388 0.000000
vt 0.529851 1.000000
vt 0.529851 0.000000
vt 0.537313 1.000000
vt 0.537313 0.000000
vt 0.544776 1.000000
vt 0.544776 0.000000
vt 0.552239 1.000000
vt 0.552239 0.000000
vt 0.559702 1.000000
vt 0.559702 0.000000
vt 0.567164 1.000000
vt 0.567164 0.000000
vt 0.574627 1.000000
vt 0.574627 0.000000
vt 0.582090 1.000000
vt 0.582090 0.000000
vt 0.589552 1.000000
vt 0.589552 0.000000
vt 0.597015 1.000000
vt 0.597015 0.000000
vt 0.604478 1.000000
vt 0.604478 0.000000
vt 0.611940 1.000000
vt 0.611940 0.000000
vt 0.619403 1.000000
vt 0.619403 0.000000
vt 0.626866 1.000000
vt 0.626866 0.000000
vt 0.634328 1.000000
vt 0.634328 0.000000
vt 0.641791 1.000000
vt 0.641791 0.000000
vt 0.649254 1.000000
vt 0.649254 0.000000
vt 0.656716 1.000000
vt 0.656716 0.000000
vt 0.664179 1.000000
vt 0.664179 0.000000
vt 0.671642 1.000000
vt 0.671642 0.000000
vt 0.679105 1.000000
vt 0.679105 0.000000
vt 0.686567 1.000000
vt 0.686567 0.000000
vt 0.694030 1.000000
vt 0.694030 0.000000
vt 0.701493 1.000000
vt 0.701493 0.000000
vt 0.708955 1.000000
vt 0.708955 0.000000
vt 0.716418 1.000000
vt 0.716418 0.000000
vt 0.723881 1.000000
vt 0.723881 0.000000
vt 0.731343 1.000000
vt 0.731343 0.000000
vt 0.738806 1.000000
vt 0.738806 0.000000
vt 0.746269 1.000000
vt 0.746269 0.000000
vt 0.753731 1.000000
vt 0.753731 0.000000
vt 0.761194 1.000000
vt 0.761194 0.000000
vt 0.768657 1.000000
vt 0.768657 0.000000
vt 0.776119 1.000000
vt 0.776119 0.000000
vt 0.783582 1.000000
vt 0.783582 0.000000
vt 0.791045 1.000000
vt 0.791045 0.000000
vt 0.798507 1.000000
vt 0.798507 0.000000
vt 0.805970 1.000000
vt 0.805970 0.000000
vt 0.813433 1.000000
vt 0.813433 0.000000
vt 0.820895 1.000000
vt 0.820895 0.000000
vt 0.828358 1.000000
vt 0.828358 0.000000
vt 0.835821 1.000000
vt 0.835821 0.000000
vt 0.843284 1.000000
vt 0.843284 0.000000
vt 0.850746 1.000000
vt 0.850746 0.000000
vt 0.858209 1.000000
vt 0.858209 0.000000
vt 0.865672 1.000000
vt 0.865672 0.000000
vt 0.873134 1.000000
vt 0.873134 0.000000
vt 0.880597 1.000000
vt 0.880597 0.000000
vt 0.888060 1.000000
vt 0.888060 0.000000
vt 0.895522 1.000000
vt 0.895522 0.000000
vt 0.902985 1.000000
vt 0.902985 0.000000
vt 0.910448 1.000000
vt 0.910448 0.000000
vt 0.917910 1.000000
vt 0.917910 0.000000
vt 0.925373 1.000000
vt 0.925373 0.000000
vt 0.932836 1.000000
vt 0.932836 0.000000
vt 0.940298 1.000000
vt 0.940298 0.000000
vt 0.947761 1.000000
vt 0.947761 0.000000
vt 0.955224 1.000000
vt 0.955224 0.000000
vt 0.962687 1.000000
vt 0.962687 0.000000
vt 0.970149 1.000000
vt 0.970149 0.000000
vt 0.977612 1.000000
vt 0.977612 0.000000
vt 0.985075 1.000000
vt 0.985075 0.000000
vt 0.992537 1.000000
vt 0.992537 0.000000
vt 0.017241 1.000000
vt 0.017241 0.000000
vt 0.034483 1.000000
vt 0.034483 0.000000
vt 0.051724 1.000000
vt 0.051724 0.000000
vt 0.068966 1.000000
vt 0.068966 0.000000
vt 0.086207 1.000000
vt 0.086207 0.000000
vt 0.103448 1.000000
vt 0.103448 0.000000
vt 0.120690 1.000000
vt 0.120690 0.000000
vt 0.137931 1.000000
vt 0.137931 0.000000
vt 0.155172 1.000000
vt 0.155172 0.000000
vt 0.172414 1.000000
vt 0.172414 0.000000
vt 0.189655 1.000000
vt 0.189655 0.000000
vt 0.206897 1.000000
vt 0.206897 0.000000
vt 0.224138 1.000000
vt 0.224138 0.000000
vt 0.241379 1.000000
vt 0.241379 0.000000
vt 0.258621 1.000000
vt 0.258621 0.000000
vt 0.275862 1.000000
vt 0.275862 0.000000
vt 0.293103 1.000000
vt 0.293103 0.000000
vt 0.310345 1.000000
vt 0.310345 0.000000
vt 0.327586 1.000000
vt 0.327586 0.000000
vt 0.344828 1.000000
vt 0.344828 0.000000
vt 0.362069 1.000000
vt 0.362069 0.000000
vt 0.379310 1.000000
vt 0.379310 0.000000
vt 0.396552 1.000000
vt 0.396552 0.000000
vt 0.413793 1.000000
vt 0.413793 0.000000
vt 0.431034 1.000000
vt 0.431034 0.000000
vt 0.448276 1.000000
vt 0.448276 0.000000
vt 0.465517 1.000000
vt 0.465517 0.000000
vt 0.482759 1.000000
vt 0.482759 0.000000
vt 0.517241 1.000000
vt 0.517241 0.000000
vt 0.534483 1.000000
vt 0.534483 0.000000
vt 0.551724 1.000000
vt 0.551724 0.000000
vt 0.568965 1.000000
vt 0.568965 0.000000
vt 0.586207 1.000000
vt 0.586207 0.000000
vt 0.603448 1.000000
vt 0.603448 0.000000
vt 0.620690 1.000000
vt 0.620690 0.000000
vt 0.637931 1.000000
vt 0.637931 0.000000
vt 0.655172 1.000000
vt 0.655172 0.000000
vt 0.672414 1.000000
vt 0.672414 0.000000
vt 0.689655 1.000000
vt 0.689655 0.000000
vt 0.706897 1.000000
vt 0.706897 0.000000
vt 0.724138 1.000000
vt 0.724138 0.000000
vt 0.741379 1.000000
vt 0.741379 0.000000
vt 0.758621 1.000000
vt 0.758621 0.000000
vt 0.775862 1.000000
vt 0.775862 0.000000
vt 0.793103 1.000000
vt 0.793103 0.000000
vt 0.810345 1.000000
vt 0.810345 0.000000
vt 0.827586 1.000000
vt 0.827586 0.000000
vt 0.844828 1.000000
vt 0.844828 0.000000
vt 0.862069 1.000000
vt 0.862069 0.000000
vt 0.879310 1.000000
vt 0.879310 0.000000
vt 0.896552 1.000000
vt 0.896552 0.000000
vt 0.913793 1.000000
vt 0.913793 0.000000
vt 0.931035 1.000000
vt 0.931035 0.000000
vt 0.948276 1.000000
vt 0.948276 0.000000
vt 0.965517 1.000000
vt 0.965517 0.000000
vt 0.982759 1.000000
vt 0.982759 0.000000
s 0
usemtl Material.002
f 1/1/1 2/2/1 4/3/1 3/4/1
f 3/5/2 4/6/2 8/7/2 7/8/2
f 7/9/3 8/10/3 6/11/3 5/12/3
f 5/13/4 6/14/4 2/15/4 1/16/4
f 3/17/5 7/18/5 5/13/5 1/19/5
f 8/20/6 4/21/6 2/22/6 6/23/6
usemtl マテリアル.001
f 64/24/7 66/25/7 65/26/7
f 64/24/7 9/27/7 66/25/7
f 64/24/7 10/28/7 9/27/7
f 63/29/7 10/28/7 64/24/7
f 62/30/6 10/28/6 63/29/6
f 61/31/7 11/32/7 62/30/7
f 11/32/5 10/28/5 62/30/5
f 61/31/7 12/33/7 11/32/7
f 61/31/7 13/34/7 12/33/7
f 60/35/7 13/34/7 61/31/7
f 60/35/7 14/36/7 13/34/7
f 60/35/7 15/37/7 14/36/7
f 59/38/7 15/37/7 60/35/7
f 59/38/7 16/39/7 15/37/7
f 35/40/7 37/41/7 36/42/7
f 34/43/7 37/41/7 35/40/7
f 59/38/7 17/44/7 16/39/7
f 33/45/7 37/41/7 34/43/7
f 58/46/7 17/44/7 59/38/7
f 58/46/7 18/47/7 17/44/7
f 32/48/7 37/41/7 33/45/7
f 31/49/8 37/41/8 32/48/8
f 58/46/7 19/50/7 18/47/7
f 30/51/7 37/41/7 31/49/7
f 58/46/7 20/52/7 19/50/7
f 29/53/7 37/41/7 30/51/7
f 58/46/7 21/54/7 20/52/7
f 28/55/8 37/41/8 29/53/8
f 57/56/7 21/54/7 58/46/7
f 27/57/7 37/41/7 28/55/7
f 57/56/7 22/58/7 21/54/7
f 26/59/7 37/41/7 27/57/7
f 57/56/7 23/60/7 22/58/7
f 25/61/7 37/41/7 26/59/7
f 57/56/7 24/62/7 23/60/7
f 24/62/8 37/41/8 25/61/8
f 57/56/7 37/41/7 24/62/7
f 56/63/7 37/41/7 57/56/7
f 55/64/7 37/41/7 56/63/7
f 54/65/7 37/41/7 55/64/7
f 54/65/7 38/66/7 37/41/7
f 53/67/7 38/66/7 54/65/7
f 53/67/7 39/68/7 38/66/7
f 53/67/7 40/69/7 39/68/7
f 52/70/7 40/69/7 53/67/7
f 52/70/7 41/71/7 40/69/7
f 52/70/7 42/72/7 41/71/7
f 52/70/7 43/73/7 42/72/7
f 51/74/7 43/73/7 52/70/7
f 51/74/7 44/75/7 43/73/7
f 51/74/7 45/76/7 44/75/7
f 50/77/7 45/76/7 51/74/7
f 50/77/7 46/78/7 45/76/7
f 50/77/9 47/79/9 46/78/9
f 49/80/9 47/79/9 50/77/9
f 49/80/7 48/81/7 47/79/7
f 186/35/7 188/82/7 187/83/7
f 186/35/9 189/84/9 188/82/9
f 185/85/7 189/84/7 186/35/7
f 185/85/7 190/86/7 189/84/7
f 185/85/7 191/87/7 190/86/7
f 184/88/7 191/87/7 185/85/7
f 184/88/7 192/89/7 191/87/7
f 184/88/7 193/29/7 192/89/7
f 183/90/7 193/29/7 184/88/7
f 183/90/7 194/91/7 193/29/7
f 183/90/7 195/92/7 194/91/7
f 182/93/7 195/92/7 183/90/7
f 182/93/7 196/94/7 195/92/7
f 182/93/7 197/95/7 196/94/7
f 181/96/7 197/95/7 182/93/7
f 181/96/7 198/97/7 197/95/7
f 181/96/7 199/98/7 198/97/7
f 180/99/7 199/98/7 181/96/7
f 180/99/7 74/33/7 199/98/7
f 74/33/7 73/100/7 199/98/7
f 73/100/7 72/101/7 199/98/7
f 72/101/7 71/102/7 199/98/7
f 71/102/7 70/103/7 199/98/7
f 70/103/7 69/104/7 199/98/7
f 69/104/7 68/105/7 199/98/7
f 68/105/7 67/27/7 199/98/7
f 67/27/7 200/25/7 199/98/7
f 179/56/7 76/106/7 180/99/7
f 76/106/10 75/107/10 180/99/10
f 75/107/8 74/33/8 180/99/8
f 178/108/7 77/109/7 179/56/7
f 77/109/11 76/106/11 179/56/11
f 177/110/7 79/111/7 178/108/7
f 79/111/9 78/112/9 178/108/9
f 78/112/12 77/109/12 178/108/12
f 177/110/9 80/113/9 79/111/9
f 177/110/7 81/37/7 80/113/7
f 177/110/7 82/114/7 81/37/7
f 177/110/7 83/115/7 82/114/7
f 177/110/7 84/116/7 83/115/7
f 176/117/7 84/116/7 177/110/7
f 176/117/9 85/118/9 84/116/9
f 176/117/7 86/119/7 85/118/7
f 176/117/7 87/120/7 86/119/7
f 176/117/7 88/47/7 87/120/7
f 175/121/7 88/47/7 176/117/7
f 175/121/7 89/122/7 88/47/7
f 175/121/7 90/123/7 89/122/7
f 175/121/7 91/124/7 90/123/7
f 174/125/7 91/124/7 175/121/7
f 174/125/7 92/126/7 91/124/7
f 174/125/7 93/127/7 92/126/7
f 174/125/7 94/128/7 93/127/7
f 174/125/7 95/54/7 94/128/7
f 174/125/7 96/129/7 95/54/7
f 173/130/7 96/129/7 174/125/7
f 173/130/7 97/131/7 96/129/7
f 173/130/7 98/132/7 97/131/7
f 173/130/7 99/133/7 98/132/7
f 172/65/7 99/133/7 173/130/7
f 172/65/7 100/134/7 99/133/7
f 172/65/7 101/135/7 100/134/7
f 172/65/7 102/62/7 101/135/7
f 171/136/7 102/62/7 172/65/7
f 171/136/7 103/137/7 102/62/7
f 170/138/7 103/137/7 171/136/7
f 170/138/7 104/139/7 103/137/7
f 170/138/7 105/140/7 104/139/7
f 169/141/7 105/140/7 170/138/7
f 169/141/7 106/142/7 105/140/7
f 168/143/7 106/142/7 169/141/7
f 168/143/7 107/144/7 106/142/7
f 168/143/7 108/145/7 107/144/7
f 167/146/7 108/145/7 168/143/7
f 167/146/7 109/57/7 108/145/7
f 166/147/7 109/57/7 167/146/7
f 166/147/7 110/148/7 109/57/7
f 166/147/7 111/149/7 110/148/7
f 165/74/7 111/149/7 166/147/7
f 165/74/7 112/150/7 111/149/7
f 164/151/7 112/150/7 165/74/7
f 164/151/7 113/152/7 112/150/7
f 163/153/7 113/152/7 164/151/7
f 163/153/7 114/154/7 113/152/7
f 138/155/7 140/156/7 139/157/7
f 163/153/7 115/158/7 114/154/7
f 162/159/7 115/158/7 163/153/7
f 138/155/7 141/160/7 140/156/7
f 161/161/7 115/158/7 162/159/7
f 138/155/7 142/162/7 141/160/7
f 160/163/7 115/158/7 161/161/7
f 160/163/7 116/51/7 115/158/7
f 138/155/7 143/164/7 142/162/7
f 159/165/7 116/51/7 160/163/7
f 138/155/7 144/72/7 143/164/7
f 158/81/7 116/51/7 159/165/7
f 138/155/7 145/166/7 144/72/7
f 157/167/7 116/51/7 158/81/7
f 157/167/7 117/168/7 116/51/7
f 138/155/7 146/169/7 145/166/7
f 156/170/7 117/168/7 157/167/7
f 155/171/7 117/168/7 156/170/7
f 138/155/7 147/172/7 146/169/7
f 154/173/7 117/168/7 155/171/7
f 138/155/7 148/174/7 147/172/7
f 153/175/7 117/168/7 154/173/7
f 138/155/7 149/176/7 148/174/7
f 152/177/7 117/168/7 153/175/7
f 138/155/7 150/178/7 149/176/7
f 151/76/7 117/168/7 152/177/7
f 138/155/7 151/76/7 150/178/7
f 151/76/7 118/179/7 117/168/7
f 138/155/7 118/179/7 151/76/7
f 138/155/7 119/180/7 118/179/7
f 138/155/7 120/181/7 119/180/7
f 137/68/7 120/181/7 138/155/7
f 137/68/7 121/182/7 120/181/7
f 136/183/7 121/182/7 137/68/7
f 135/184/7 121/182/7 136/183/7
f 135/184/7 122/185/7 121/182/7
f 134/186/7 122/185/7 135/184/7
f 133/187/7 122/185/7 134/186/7
f 133/187/7 123/45/7 122/185/7
f 132/188/7 123/45/7 133/187/7
f 132/188/7 124/189/7 123/45/7
f 131/190/7 124/189/7 132/188/7
f 130/42/7 124/189/7 131/190/7
f 130/42/7 125/191/7 124/189/7
f 129/192/7 125/191/7 130/42/7
f 128/193/9 125/191/9 129/192/9
f 128/193/7 126/194/7 125/191/7
f 127/195/11 126/194/11 128/193/11
f 201/27/7 203/79/7 202/55/7
f 201/27/7 204/25/7 203/79/7
f 260/24/13 261/26/13 262/25/13
f 260/24/13 262/25/13 205/27/13
f 260/24/13 205/27/13 206/28/13
f 259/29/13 260/24/13 206/28/13
f 258/30/14 259/29/14 206/28/14
f 257/31/13 258/30/13 207/32/13
f 207/32/6 258/30/6 206/28/6
f 257/31/13 207/32/13 208/33/13
f 257/31/13 208/33/13 209/34/13
f 256/35/13 257/31/13 209/34/13
f 256/35/13 209/34/13 210/36/13
f 256/35/13 210/36/13 211/37/13
f 255/38/13 256/35/13 211/37/13
f 255/38/13 211/37/13 212/39/13
f 231/40/13 232/42/13 233/41/13
f 230/43/13 231/40/13 233/41/13
f 255/38/13 212/39/13 213/44/13
f 229/45/13 230/43/13 233/41/13
f 254/46/13 255/38/13 213/44/13
f 254/46/13 213/44/13 214/47/13
f 228/48/13 229/45/13 233/41/13
f 227/49/13 228/48/13 233/41/13
f 254/46/13 214/47/13 215/50/13
f 226/51/13 227/49/13 233/41/13
f 254/46/13 215/50/13 216/52/13
f 225/53/13 226/51/13 233/41/13
f 254/46/13 216/52/13 217/54/13
f 224/55/13 225/53/13 233/41/13
f 253/56/13 254/46/13 217/54/13
f 223/57/13 224/55/13 233/41/13
f 253/56/13 217/54/13 218/58/13
f 222/59/15 223/57/15 233/41/15
f 253/56/13 218/58/13 219/60/13
f 221/61/13 222/59/13 233/41/13
f 253/56/13 219/60/13 220/62/13
f 220/62/13 221/61/13 233/41/13
f 253/56/13 220/62/13 233/41/13
f 252/63/13 253/56/13 233/41/13
f 251/64/13 252/63/13 233/41/13
f 250/65/13 251/64/13 233/41/13
f 250/65/13 233/41/13 234/66/13
f 249/67/13 250/65/13 234/66/13
f 249/67/13 234/66/13 235/68/13
f 249/67/13 235/68/13 236/69/13
f 248/70/13 249/67/13 236/69/13
f 248/70/13 236/69/13 237/71/13
f 248/70/13 237/71/13 238/72/13
f 248/70/13 238/72/13 239/73/13
f 247/74/13 248/70/13 239/73/13
f 247/74/13 239/73/13 240/75/13
f 247/74/13 240/75/13 241/76/13
f 246/77/13 247/74/13 241/76/13
f 246/77/13 241/76/13 242/78/13
f 246/77/16 242/78/16 243/79/16
f 245/80/16 246/77/16 243/79/16
f 245/80/15 243/79/15 244/81/15
f 382/35/13 383/83/13 384/82/13
f 382/35/16 384/82/16 385/84/16
f 381/85/13 382/35/13 385/84/13
f 381/85/13 385/84/13 386/86/13
f 381/85/13 386/86/13 387/87/13
f 380/88/13 381/85/13 387/87/13
f 380/88/13 387/87/13 388/89/13
f 380/88/13 388/89/13 389/29/13
f 379/90/13 380/88/13 389/29/13
f 379/90/13 389/29/13 390/91/13
f 379/90/13 390/91/13 391/92/13
f 378/93/13 379/90/13 391/92/13
f 378/93/13 391/92/13 392/94/13
f 378/93/13 392/94/13 393/95/13
f 377/96/13 378/93/13 393/95/13
f 377/96/13 393/95/13 394/97/13
f 377/96/13 394/97/13 395/98/13
f 376/99/13 377/96/13 395/98/13
f 376/99/13 395/98/13 270/33/13
f 270/33/13 395/98/13 269/100/13
f 269/100/13 395/98/13 268/101/13
f 268/101/13 395/98/13 267/102/13
f 267/102/13 395/98/13 266/103/13
f 266/103/13 395/98/13 265/104/13
f 265/104/13 395/98/13 264/105/13
f 264/105/13 395/98/13 263/27/13
f 263/27/13 395/98/13 396/25/13
f 375/56/13 376/99/13 272/106/13
f 272/106/15 376/99/15 271/107/15
f 271/107/15 376/99/15 270/33/15
f 374/108/13 375/56/13 273/109/13
f 273/109/17 375/56/17 272/106/17
f 373/110/13 374/108/13 275/111/13
f 275/111/16 374/108/16 274/112/16
f 274/112/18 374/108/18 273/109/18
f 373/110/16 275/111/16 276/113/16
f 373/110/13 276/113/13 277/37/13
f 373/110/13 277/37/13 278/114/13
f 373/110/13 278/114/13 279/115/13
f 373/110/13 279/115/13 280/116/13
f 372/117/13 373/110/13 280/116/13
f 372/117/16 280/116/16 281/118/16
f 372/117/13 281/118/13 282/119/13
f 372/117/13 282/119/13 283/120/13
f 372/117/13 283/120/13 284/47/13
f 371/121/13 372/117/13 284/47/13
f 371/121/13 284/47/13 285/122/13
f 371/121/13 285/122/13 286/123/13
f 371/121/13 286/123/13 287/124/13
f 370/125/13 371/121/13 287/124/13
f 370/125/13 287/124/13 288/126/13
f 370/125/13 288/126/13 289/127/13
f 370/125/13 289/127/13 290/128/13
f 370/125/13 290/128/13 291/54/13
f 370/125/13 291/54/13 292/129/13
f 369/130/13 370/125/13 292/129/13
f 369/130/13 292/129/13 293/131/13
f 369/130/13 293/131/13 294/132/13
f 369/130/13 294/132/13 295/133/13
f 368/65/13 369/130/13 295/133/13
f 368/65/13 295/133/13 296/134/13
f 368/65/13 296/134/13 297/135/13
f 368/65/13 297/135/13 298/62/13
f 367/136/13 368/65/13 298/62/13
f 367/136/13 298/62/13 299/137/13
f 366/138/13 367/136/13 299/137/13
f 366/138/13 299/137/13 300/139/13
f 366/138/13 300/139/13 301/140/13
f 365/141/13 366/138/13 301/140/13
f 365/141/13 301/140/13 302/142/13
f 364/143/13 365/141/13 302/142/13
f 364/143/13 302/142/13 303/144/13
f 364/143/13 303/144/13 304/145/13
f 363/146/13 364/143/13 304/145/13
f 363/146/13 304/145/13 305/57/13
f 362/147/13 363/146/13 305/57/13
f 362/147/13 305/57/13 306/148/13
f 362/147/13 306/148/13 307/149/13
f 361/74/13 362/147/13 307/149/13
f 361/74/13 307/149/13 308/150/13
f 360/151/13 361/74/13 308/150/13
f 360/151/13 308/150/13 309/152/13
f 359/153/13 360/151/13 309/152/13
f 359/153/13 309/152/13 310/154/13
f 334/155/13 335/157/13 336/156/13
f 359/153/13 310/154/13 311/158/13
f 358/159/13 359/153/13 311/158/13
f 334/155/13 336/156/13 337/160/13
f 357/161/13 358/159/13 311/158/13
f 334/155/13 337/160/13 338/162/13
f 356/163/13 357/161/13 311/158/13
f 356/163/13 311/158/13 312/51/13
f 334/155/13 338/162/13 339/164/13
f 355/165/13 356/163/13 312/51/13
f 334/155/13 339/164/13 340/72/13
f 354/81/13 355/165/13 312/51/13
f 334/155/13 340/72/13 341/166/13
f 353/167/13 354/81/13 312/51/13
f 353/167/13 312/51/13 313/168/13
f 334/155/13 341/166/13 342/169/13
f 352/170/13 353/167/13 313/168/13
f 351/171/13 352/170/13 313/168/13
f 334/155/13 342/169/13 343/172/13
f 350/173/13 351/171/13 313/168/13
f 334/155/13 343/172/13 344/174/13
f 349/175/13 350/173/13 313/168/13
f 334/155/13 344/174/13 345/176/13
f 348/177/13 349/175/13 313/168/13
f 334/155/13 345/176/13 346/178/13
f 347/76/13 348/177/13 313/168/13
f 334/155/13 346/178/13 347/76/13
f 347/76/13 313/168/13 314/179/13
f 334/155/13 347/76/13 314/179/13
f 334/155/13 314/179/13 315/180/13
f 334/155/13 315/180/13 316/181/13
f 333/68/13 334/155/13 316/181/13
f 333/68/13 316/181/13 317/182/13
f 332/183/13 333/68/13 317/182/13
f 331/184/13 332/183/13 317/182/13
f 331/184/13 317/182/13 318/185/13
f 330/186/13 331/184/13 318/185/13
f 329/187/13 330/186/13 318/185/13
f 329/187/13 318/185/13 319/45/13
f 328/188/13 329/187/13 319/45/13
f 328/188/13 319/45/13 320/189/13
f 327/190/13 328/188/13 320/189/13
f 326/42/13 327/190/13 320/189/13
f 326/42/13 320/189/13 321/191/13
f 325/192/13 326/42/13 321/191/13
f 324/193/16 325/192/16 321/191/16
f 324/193/13 321/191/13 322/194/13
f 323/195/19 324/193/19 322/194/19
f 397/27/13 398/55/13 399/79/13
f 397/27/13 399/79/13 400/25/13
s 1
f 402/196/20 404/197/21 403/198/21 401/27/20
f 404/197/21 406/199/22 405/200/22 403/198/21
f 406/199/22 408/201/23 407/202/23 405/200/22
f 408/201/23 402/203/20 401/25/20 407/202/23
f 410/196/24 412/204/25 411/205/25 409/27/24
f 412/204/25 414/206/26 413/207/26 411/205/25
f 414/206/26 416/208/27 415/209/27 413/207/26
f 416/208/27 418/210/28 417/211/28 415/209/27
f 418/210/28 420/212/29 419/213/29 417/211/28
f 420/212/29 422/214/30 421/215/30 419/213/29
f 422/214/30 424/216/31 423/217/31 421/215/30
f 424/216/31 426/218/32 425/219/32 423/217/31
f 426/218/32 428/220/33 427/221/33 425/219/32
f 428/220/33 430/222/34 429/223/34 427/221/33
f 430/222/34 432/224/35 431/225/35 429/223/34
f 432/224/35 434/226/36 433/227/36 431/225/35
f 434/226/36 436/228/37 435/229/37 433/227/36
f 436/228/37 438/230/38 437/231/38 435/229/37
f 438/230/38 440/232/39 439/233/39 437/231/38
f 440/232/39 442/234/40 441/235/40 439/233/39
f 442/234/40 444/236/41 443/237/41 441/235/40
f 444/236/41 446/238/42 445/239/42 443/237/41
f 446/238/42 448/240/43 447/241/43 445/239/42
f 448/240/43 450/242/44 449/243/44 447/241/43
f 450/242/44 452/244/45 451/245/45 449/243/44
f 452/244/45 454/246/46 453/247/46 451/245/45
f 454/246/46 456/248/47 455/249/47 453/247/46
f 456/248/47 458/250/48 457/251/48 455/249/47
f 458/250/48 460/252/49 459/253/49 457/251/48
f 460/252/49 462/254/50 461/255/50 459/253/49
f 462/254/50 464/256/51 463/257/51 461/255/50
f 464/256/51 466/258/52 465/259/52 463/257/51
f 466/258/52 468/260/53 467/261/53 465/259/52
f 468/260/53 470/262/54 469/263/54 467/261/53
f 470/262/54 472/264/55 471/265/55 469/263/54
f 472/264/55 474/266/56 473/267/56 471/265/55
f 474/266/56 476/268/57 475/269/57 473/267/56
f 476/268/57 478/270/58 477/271/58 475/269/57
f 478/270/58 480/272/59 479/273/59 477/271/58
f 480/272/59 482/274/60 481/275/60 479/273/59
f 482/274/60 484/276/61 483/277/61 481/275/60
f 484/276/61 486/278/62 485/279/62 483/277/61
f 486/278/62 488/280/63 487/281/63 485/279/62
f 488/280/63 490/282/64 489/283/64 487/281/63
f 490/282/64 492/284/65 491/285/65 489/283/64
f 492/284/65 494/286/66 493/287/66 491/285/65
f 494/286/66 496/288/67 495/289/67 493/287/66
f 496/288/67 498/290/68 497/291/68 495/289/67
f 498/290/68 500/292/69 499/293/69 497/291/68
f 500/292/69 502/294/70 501/295/70 499/293/69
f 502/294/70 504/296/71 503/297/71 501/295/70
f 504/296/71 506/298/72 505/299/72 503/297/71
f 506/298/72 508/300/73 507/301/73 505/299/72
f 508/300/73 510/302/74 509/303/74 507/301/73
f 510/302/74 512/304/75 511/305/75 509/303/74
f 512/304/75 514/306/76 513/307/76 511/305/75
f 514/306/76 516/308/77 515/309/77 513/307/76
f 516/308/77 518/310/78 517/311/78 515/309/77
f 518/310/78 520/312/79 519/313/79 517/311/78
f 520/312/79 522/314/80 521/315/80 519/313/79
f 522/314/80 524/316/81 523/317/81 521/315/80
f 524/316/81 526/318/82 525/319/82 523/317/81
f 526/318/82 528/320/83 527/321/83 525/319/82
f 528/320/83 530/322/84 529/323/84 527/321/83
f 530/322/84 532/324/85 531/325/85 529/323/84
f 532/324/85 534/326/86 533/327/86 531/325/85
f 534/326/86 536/328/87 535/329/87 533/327/86
f 536/328/87 538/330/88 537/331/88 535/329/87
f 538/330/88 540/332/89 539/333/89 537/331/88
f 540/332/89 542/334/90 541/335/90 539/333/89
f 542/334/90 544/199/91 543/200/91 541/335/90
f 544/199/91 546/336/92 545/337/92 543/200/91
f 546/336/92 548/338/93 547/339/93 545/337/92
f 548/338/93 550/340/94 549/341/94 547/339/93
f 550/340/94 552/342/95 551/343/95 549/341/94
f 552/342/95 554/344/96 553/345/96 551/343/95
f 554/344/96 556/346/97 555/347/97 553/345/96
f 556/346/97 558/348/98 557/349/98 555/347/97
f 558/348/98 560/350/99 559/351/99 557/349/98
f 560/350/99 562/352/100 561/353/100 559/351/99
f 562/352/100 564/354/101 563/355/101 561/353/100
f 564/354/101 566/356/102 565/357/102 563/355/101
f 566/356/102 568/358/103 567/359/103 565/357/102
f 568/358/103 570/360/104 569/361/104 567/359/103
f 570/360/104 572/362/105 571/363/105 569/361/104
f 572/362/105 574/364/106 573/365/106 571/363/105
f 574/364/106 576/366/107 575/367/107 573/365/106
f 576/366/107 578/368/108 577/369/108 575/367/107
f 578/368/108 580/370/109 579/371/109 577/369/108
f 580/370/109 582/372/110 581/373/110 579/371/109
f 582/372/110 584/374/111 583/375/111 581/373/110
f 584/374/111 586/376/112 585/377/112 583/375/111
f 586/376/112 588/378/113 587/379/113 585/377/112
f 588/378/113 590/380/114 589/381/114 587/379/113
f 590/380/114 592/382/115 591/383/115 589/381/114
f 592/382/115 594/384/116 593/385/116 591/383/115
f 594/384/116 596/386/117 595/387/117 593/385/116
f 596/386/117 598/388/118 597/389/118 595/387/117
f 598/388/118 600/390/119 599/391/119 597/389/118
f 600/390/119 602/392/120 601/393/120 599/391/119
f 602/392/120 604/394/121 603/395/121 601/393/120
f 604/394/121 606/396/122 605/397/122 603/395/121
f 606/396/122 608/398/123 607/399/123 605/397/122
f 608/398/123 610/400/124 609/401/124 607/399/123
f 610/400/124 612/402/125 611/403/125 609/401/124
f 612/402/125 614/404/126 613/405/126 611/403/125
f 614/404/126 616/406/127 615/407/127 613/405/126
f 616/406/127 618/408/128 617/409/128 615/407/127
f 618/408/128 620/410/129 619/411/129 617/409/128
f 620/410/129 622/412/130 621/413/130 619/411/129
f 622/412/130 624/414/131 623/415/131 621/413/130
f 624/414/131 626/416/132 625/417/132 623/415/131
f 626/416/132 628/418/133 627/419/133 625/417/132
f 628/418/133 630/420/134 629/421/134 627/419/133
f 630/420/134 632/422/135 631/423/135 629/421/134
f 632/422/135 634/424/136 633/425/136 631/423/135
f 634/424/136 636/426/137 635/427/137 633/425/136
f 636/426/137 638/428/138 637/429/138 635/427/137
f 638/428/138 640/430/139 639/431/139 637/429/138
f 640/430/139 642/432/140 641/433/140 639/431/139
f 642/432/140 644/434/141 643/435/141 641/433/140
f 644/434/141 646/436/142 645/437/142 643/435/141
f 646/436/142 648/438/143 647/439/143 645/437/142
f 648/438/143 650/440/144 649/441/144 647/439/143
f 650/440/144 652/442/145 651/443/145 649/441/144
f 652/442/145 654/444/146 653/445/146 651/443/145
f 654/444/146 656/446/147 655/447/147 653/445/146
f 656/446/147 658/448/148 657/449/148 655/447/147
f 658/448/148 660/450/149 659/451/149 657/449/148
f 660/450/149 662/452/150 661/453/150 659/451/149
f 662/452/150 664/454/151 663/455/151 661/453/150
f 664/454/151 666/456/152 665/457/152 663/455/151
f 666/456/152 668/458/153 667/459/153 665/457/152
f 668/458/153 670/460/154 669/461/154 667/459/153
f 670/460/154 672/462/155 671/463/155 669/461/154
f 672/462/155 674/464/156 673/465/156 671/463/155
f 674/464/156 676/466/157 675/467/157 673/465/156
f 676/466/157 410/203/24 409/25/24 675/467/157
f 678/196/22 680/468/23 679/469/23 677/27/22
f 680/468/23 682/470/23 681/471/23 679/469/23
f 682/470/23 684/472/158 683/473/158 681/471/23
f 684/472/158 686/474/159 685/475/159 683/473/158
f 686/474/159 688/476/160 687/477/160 685/475/159
f 688/476/160 690/478/161 689/479/161 687/477/160
f 690/478/161 692/480/162 691/481/162 689/479/161
f 692/480/162 694/482/163 693/483/163 691/481/162
f 694/482/163 696/484/164 695/485/164 693/483/163
f 696/484/164 698/486/165 697/487/165 695/485/164
f 698/486/165 700/488/166 699/489/166 697/487/165
f 700/488/166 702/490/167 701/491/167 699/489/166
f 702/490/167 704/492/168 703/493/168 701/491/167
f 704/492/168 706/494/169 705/495/169 703/493/168
f 706/494/169 708/496/170 707/497/170 705/495/169
f 708/496/170 710/498/171 709/499/171 707/497/170
f 710/498/171 712/500/172 711/501/172 709/499/171
f 712/500/172 714/502/173 713/503/173 711/501/172
f 714/502/173 716/504/174 715/505/174 713/503/173
f 716/504/174 718/506/175 717/507/175 715/505/174
f 718/506/175 720/508/176 719/509/176 717/507/175
f 720/508/176 722/510/177 721/511/177 719/509/176
f 722/510/177 724/512/178 723/513/178 721/511/177
f 724/512/178 726/514/179 725/515/179 723/513/178
f 726/514/179 728/516/180 727/517/180 725/515/179
f 728/516/180 730/518/181 729/519/181 727/517/180
f 730/518/181 732/520/182 731/521/183 729/519/181
f 732/520/182 734/522/184 733/523/184 731/521/183
f 734/522/184 736/199/185 735/200/185 733/523/184
f 736/199/185 738/524/186 737/525/186 735/200/185
f 738/524/186 740/526/187 739/527/187 737/525/186
f 740/526/187 742/528/188 741/529/188 739/527/187
f 742/528/188 744/530/189 743/531/189 741/529/188
f 744/530/189 746/532/190 745/533/190 743/531/189
f 746/532/190 748/534/191 747/535/191 745/533/190
f 748/534/191 750/536/192 749/537/192 747/535/191
f 750/536/192 752/538/193 751/539/193 749/537/192
f 752/538/193 754/540/194 753/541/194 751/539/193
f 754/540/194 756/542/195 755/543/195 753/541/194
f 756/542/195 758/544/196 757/545/196 755/543/195
f 758/544/196 760/546/197 759/547/197 757/545/196
f 760/546/197 762/548/198 761/549/198 759/547/197
f 762/548/198 764/550/199 763/551/199 761/549/198
f 764/550/199 766/552/200 765/553/200 763/551/199
f 766/552/200 768/554/201 767/555/201 765/553/200
f 768/554/201 770/556/202 769/557/202 767/555/201
f 770/556/202 772/558/203 771/559/203 769/557/202
f 772/558/203 774/560/204 773/561/204 771/559/203
f 774/560/204 776/562/205 775/563/205 773/561/204
f 776/562/205 778/564/206 777/565/206 775/563/205
f 778/564/206 780/566/207 779/567/207 777/565/206
f 780/566/207 782/568/208 781/569/208 779/567/207
f 782/568/208 784/570/20 783/571/20 781/569/208
f 784/570/20 786/572/20 785/573/20 783/571/20
f 786/572/20 788/574/209 787/575/209 785/573/20
f 788/574/209 790/576/210 789/577/210 787/575/209
f 790/576/210 792/578/22 791/579/22 789/577/210
f 792/578/22 678/203/22 677/25/22 791/579/22
