# Blender 4.1.1
# www.blender.org
mtllib stage_2_Cube.mtl
o 立方体
v -1.181049 -0.794871 1.000000
v -1.181049 1.205129 1.000000
v -1.181049 -0.794871 -1.000000
v -1.181049 1.205129 -1.000000
v 0.818951 -0.794871 1.000000
v 0.818951 1.205129 1.000000
v 0.818951 -0.794871 -1.000000
v 0.818951 1.205129 -1.000000
vn -1.0000 -0.0000 -0.0000
vn -0.0000 -0.0000 -1.0000
vn 1.0000 -0.0000 -0.0000
vn -0.0000 -0.0000 1.0000
vn -0.0000 -1.0000 -0.0000
vn -0.0000 1.0000 -0.0000
vt 0.312500 0.526749
vt 0.218750 0.526749
vt 0.218750 0.000000
vt 0.312500 0.000000
vt 0.406250 0.526749
vt 0.312500 0.526749
vt 0.312500 0.000000
vt 0.406250 0.000000
vt 0.500000 0.526749
vt 0.406250 0.526749
vt 0.406250 0.000000
vt 0.500000 0.000000
vt 0.593750 0.526749
vt 0.500000 0.526749
vt 0.500000 0.000000
vt 0.593750 0.000000
vt 0.687500 0.000000
vt 0.687500 0.526749
vt 0.593750 0.000000
vt 0.781250 0.000000
vt 0.781250 0.526749
vt 0.687500 0.526749
vt 0.687500 0.000000
s 0
usemtl Material.002
f 1/1/1 2/2/1 4/3/1 3/4/1
f 3/5/2 4/6/2 8/7/2 7/8/2
f 7/9/3 8/10/3 6/11/3 5/12/3
f 5/13/4 6/14/4 2/15/4 1/16/4
f 3/17/5 7/18/5 5/13/5 1/19/5
f 8/20/6 4/21/6 2/22/6 6/23/6
