# Blender 4.1.1
# www.blender.org
mtllib stage_1_Text.mtl
o テキスト
v 1.194000 0.838909 1.090732
v 1.194000 0.758960 1.093611
v 1.052000 0.758960 1.093611
v 1.052000 0.529109 1.101885
v 1.052763 0.516646 1.102334
v 1.054935 0.505685 1.102729
v 1.058344 0.496146 1.103072
v 1.062815 0.487951 1.103367
v 1.068175 0.481018 1.103617
v 1.074250 0.475269 1.103824
v 1.080867 0.470623 1.103991
v 1.087852 0.467001 1.104121
v 1.095031 0.464323 1.104218
v 1.102232 0.462509 1.104283
v 1.109279 0.461479 1.104320
v 1.116000 0.461153 1.104332
v 1.124022 0.461382 1.104323
v 1.132092 0.462069 1.104299
v 1.140218 0.463214 1.104257
v 1.148407 0.464818 1.104200
v 1.156665 0.466879 1.104126
v 1.165000 0.469398 1.104035
v 1.173418 0.472375 1.103928
v 1.181926 0.475810 1.103804
v 1.190531 0.479704 1.103664
v 1.199241 0.484055 1.103507
v 1.208061 0.488864 1.103334
v 1.217000 0.494132 1.103144
v 1.217000 0.411186 1.106130
v 1.208917 0.407027 1.106280
v 1.200250 0.403066 1.106423
v 1.191125 0.399334 1.106557
v 1.181667 0.395862 1.106682
v 1.172000 0.392682 1.106797
v 1.162250 0.389824 1.106899
v 1.152542 0.387321 1.106990
v 1.143000 0.385202 1.107066
v 1.133750 0.383500 1.107127
v 1.124917 0.382246 1.107172
v 1.116625 0.381471 1.107200
v 1.109000 0.381205 1.107210
v 1.085750 0.382432 1.107166
v 1.064505 0.386021 1.107036
v 1.045266 0.391839 1.106827
v 1.028037 0.399749 1.106542
v 1.012822 0.409615 1.106187
v 0.999625 0.421304 1.105766
v 0.988448 0.434679 1.105285
v 0.979296 0.449605 1.104747
v 0.972172 0.465947 1.104159
v 0.967079 0.483569 1.103525
v 0.964020 0.502337 1.102849
v 0.963000 0.522114 1.102137
v 0.963000 0.758960 1.093611
v 0.885000 0.758960 1.093611
v 0.885000 0.768954 1.093251
v 1.052000 0.931848 1.087387
v 1.052000 0.838909 1.090732
v 0.811569 0.730836 1.094623
v 0.799301 0.737914 1.094368
v 0.787234 0.744236 1.094141
v 0.775407 0.749818 1.093940
v 0.763858 0.754679 1.093765
v 0.752625 0.758835 1.093615
v 0.741746 0.762305 1.093490
v 0.731259 0.765105 1.093389
v 0.721203 0.767252 1.093312
v 0.711616 0.768764 1.093258
v 0.702535 0.769659 1.093225
v 0.694000 0.769953 1.093215
v 0.685277 0.769605 1.093227
v 0.677130 0.768584 1.093264
v 0.669594 0.766924 1.093324
v 0.662704 0.764660 1.093405
v 0.656494 0.761828 1.093507
v 0.651000 0.758461 1.093629
v 0.646256 0.754594 1.093768
v 0.642296 0.750262 1.093924
v 0.639156 0.745500 1.094095
v 0.636870 0.740343 1.094281
v 0.635473 0.734824 1.094480
v 0.635000 0.728980 1.094690
v 0.635636 0.723889 1.094873
v 0.637588 0.718570 1.095065
v 0.640922 0.712959 1.095267
v 0.645704 0.706994 1.095481
v 0.651999 0.700613 1.095711
v 0.659875 0.693753 1.095958
v 0.669396 0.686351 1.096225
v 0.680630 0.678346 1.096513
v 0.693641 0.669674 1.096825
v 0.708495 0.660274 1.097163
v 0.725260 0.650083 1.097530
v 0.744000 0.639038 1.097928
v 0.761532 0.627152 1.098356
v 0.777176 0.615900 1.098761
v 0.791000 0.605169 1.099147
v 0.803074 0.594844 1.099519
v 0.813468 0.584811 1.099880
v 0.822250 0.574955 1.100235
v 0.829491 0.565161 1.100587
v 0.835259 0.555315 1.100942
v 0.839625 0.545302 1.101302
v 0.842657 0.535008 1.101673
v 0.844426 0.524319 1.102058
v 0.845000 0.513120 1.102461
v 0.843711 0.493939 1.103151
v 0.839940 0.475935 1.103800
v 0.833828 0.459201 1.104402
v 0.825519 0.443831 1.104955
v 0.815153 0.429918 1.105456
v 0.802875 0.417556 1.105901
v 0.788826 0.406839 1.106287
v 0.773148 0.397861 1.106610
v 0.755984 0.390715 1.106867
v 0.737477 0.385494 1.107055
v 0.717768 0.382293 1.107171
v 0.697000 0.381205 1.107210
v 0.683484 0.381439 1.107201
v 0.670375 0.382158 1.107175
v 0.657578 0.383391 1.107131
v 0.645000 0.385165 1.107067
v 0.632547 0.387509 1.106983
v 0.620125 0.390449 1.106877
v 0.607641 0.394014 1.106749
v 0.595000 0.398231 1.106597
v 0.582109 0.403128 1.106421
v 0.568875 0.408734 1.106219
v 0.555203 0.415074 1.105991
v 0.541000 0.422179 1.105735
v 0.541000 0.518116 1.102281
v 0.555389 0.508559 1.102625
v 0.569528 0.499869 1.102938
v 0.583375 0.492040 1.103220
v 0.596889 0.485064 1.103471
v 0.610028 0.478935 1.103692
v 0.622750 0.473645 1.103882
v 0.635014 0.469189 1.104042
v 0.646778 0.465558 1.104173
v 0.658000 0.462746 1.104274
v 0.668639 0.460746 1.104346
v 0.678653 0.459551 1.104389
v 0.688000 0.459155 1.104404
v 0.696861 0.459967 1.104374
v 0.705389 0.461403 1.104323
v 0.713500 0.463464 1.104249
v 0.721111 0.466150 1.104152
v 0.728139 0.469460 1.104033
v 0.734500 0.473395 1.103891
v 0.740111 0.477955 1.103727
v 0.744889 0.483139 1.103540
v 0.748750 0.488948 1.103331
v 0.751611 0.495381 1.103099
v 0.753389 0.502439 1.102845
v 0.754000 0.510122 1.102569
v 0.749868 0.525075 1.102031
v 0.738444 0.539228 1.101521
v 0.721187 0.552984 1.101026
v 0.699556 0.566752 1.100530
v 0.675007 0.580935 1.100020
v 0.649000 0.595941 1.099479
v 0.622993 0.612175 1.098895
v 0.598444 0.630044 1.098252
v 0.576813 0.649953 1.097535
v 0.559556 0.672308 1.096730
v 0.548132 0.697516 1.095823
v 0.544000 0.725982 1.094798
v 0.545193 0.744336 1.094137
v 0.548713 0.761385 1.093523
v 0.554469 0.777074 1.092959
v 0.562370 0.791347 1.092445
v 0.572327 0.804149 1.091984
v 0.584250 0.815424 1.091578
v 0.598047 0.825117 1.091229
v 0.613630 0.833172 1.090939
v 0.630906 0.839533 1.090710
v 0.649787 0.844146 1.090544
v 0.670182 0.846954 1.090443
v 0.692000 0.847903 1.090409
v 0.702523 0.847652 1.090418
v 0.713097 0.846899 1.090445
v 0.723734 0.845639 1.090490
v 0.734444 0.843868 1.090554
v 0.745238 0.841585 1.090636
v 0.756125 0.838784 1.090737
v 0.767116 0.835462 1.090857
v 0.778222 0.831617 1.090995
v 0.789453 0.827244 1.091152
v 0.800819 0.822341 1.091329
v 0.812332 0.816903 1.091525
v 0.824000 0.810927 1.091740
v 0.824000 0.722984 1.094906
v 0.202000 0.390199 1.106886
v 0.202000 1.071758 1.082350
v 0.300000 1.071758 1.082350
v 0.300000 0.390199 1.106886
v 1.194000 0.749521 -1.392259
v 1.194000 0.669573 -1.389381
v 1.052000 0.669573 -1.389381
v 1.052000 0.439722 -1.381106
v 1.052763 0.427258 -1.380658
v 1.054935 0.416297 -1.380263
v 1.058344 0.406758 -1.379920
v 1.062815 0.398563 -1.379624
v 1.068175 0.391631 -1.379375
v 1.074250 0.385881 -1.379168
v 1.080867 0.381236 -1.379001
v 1.087852 0.377614 -1.378870
v 1.095031 0.374935 -1.378774
v 1.102232 0.373121 -1.378709
v 1.109279 0.372091 -1.378672
v 1.116000 0.371766 -1.378660
v 1.124022 0.371995 -1.378668
v 1.132092 0.372682 -1.378693
v 1.140218 0.373827 -1.378734
v 1.148407 0.375430 -1.378792
v 1.156665 0.377491 -1.378866
v 1.165000 0.380010 -1.378957
v 1.173418 0.382987 -1.379064
v 1.181926 0.386423 -1.379187
v 1.190531 0.390316 -1.379328
v 1.199241 0.394667 -1.379484
v 1.208061 0.399477 -1.379657
v 1.217000 0.404744 -1.379847
v 1.217000 0.321798 -1.376861
v 1.208917 0.317639 -1.376711
v 1.200250 0.313678 -1.376569
v 1.191125 0.309946 -1.376434
v 1.181667 0.306474 -1.376309
v 1.172000 0.303294 -1.376195
v 1.162250 0.300437 -1.376092
v 1.152542 0.297933 -1.376002
v 1.143000 0.295815 -1.375926
v 1.133750 0.294113 -1.375864
v 1.124917 0.292858 -1.375819
v 1.116625 0.292083 -1.375791
v 1.109000 0.291817 -1.375782
v 1.085750 0.293044 -1.375826
v 1.064505 0.296634 -1.375955
v 1.045266 0.302451 -1.376164
v 1.028037 0.310361 -1.376449
v 1.012822 0.320228 -1.376804
v 0.999625 0.331916 -1.377225
v 0.988448 0.345291 -1.377707
v 0.979296 0.360217 -1.378244
v 0.972172 0.376559 -1.378832
v 0.967079 0.394182 -1.379467
v 0.964020 0.412949 -1.380142
v 0.963000 0.432726 -1.380854
v 0.963000 0.669573 -1.389381
v 0.885000 0.669573 -1.389381
v 0.885000 0.679566 -1.389741
v 1.052000 0.842461 -1.395605
v 1.052000 0.749521 -1.392259
v 0.811569 0.641448 -1.388368
v 0.799301 0.648526 -1.388623
v 0.787234 0.654848 -1.388851
v 0.775407 0.660430 -1.389052
v 0.763858 0.665291 -1.389227
v 0.752625 0.669448 -1.389376
v 0.741746 0.672917 -1.389501
v 0.731259 0.675717 -1.389602
v 0.721203 0.677864 -1.389679
v 0.711616 0.679376 -1.389734
v 0.702535 0.680271 -1.389766
v 0.694000 0.680566 -1.389777
v 0.685277 0.680217 -1.389764
v 0.677130 0.679196 -1.389727
v 0.669594 0.677536 -1.389668
v 0.662704 0.675273 -1.389586
v 0.656494 0.672440 -1.389484
v 0.651000 0.669073 -1.389363
v 0.646256 0.665206 -1.389224
v 0.642296 0.660875 -1.389068
v 0.639156 0.656113 -1.388896
v 0.636870 0.650955 -1.388711
v 0.635473 0.645437 -1.388512
v 0.635000 0.639592 -1.388301
v 0.635636 0.634502 -1.388118
v 0.637588 0.629182 -1.387927
v 0.640922 0.623571 -1.387725
v 0.645704 0.617606 -1.387510
v 0.651999 0.611225 -1.387280
v 0.659875 0.604365 -1.387033
v 0.669396 0.596963 -1.386767
v 0.680630 0.588958 -1.386479
v 0.693641 0.580287 -1.386167
v 0.708495 0.570887 -1.385828
v 0.725260 0.560695 -1.385461
v 0.744000 0.549650 -1.385064
v 0.761532 0.537764 -1.384636
v 0.777176 0.526513 -1.384231
v 0.791000 0.515782 -1.383844
v 0.803074 0.505457 -1.383473
v 0.813468 0.495423 -1.383111
v 0.822250 0.485567 -1.382757
v 0.829491 0.475773 -1.382404
v 0.835259 0.465927 -1.382050
v 0.839625 0.455914 -1.381689
v 0.842657 0.445620 -1.381319
v 0.844426 0.434931 -1.380934
v 0.845000 0.423732 -1.380531
v 0.843711 0.404552 -1.379840
v 0.839940 0.386548 -1.379192
v 0.833828 0.369814 -1.378590
v 0.825519 0.354443 -1.378036
v 0.815153 0.340531 -1.377535
v 0.802875 0.328169 -1.377090
v 0.788826 0.317452 -1.376704
v 0.773148 0.308473 -1.376381
v 0.755984 0.301327 -1.376124
v 0.737477 0.296106 -1.375936
v 0.717768 0.292905 -1.375821
v 0.697000 0.291817 -1.375782
v 0.683484 0.292051 -1.375790
v 0.670375 0.292770 -1.375816
v 0.657578 0.294003 -1.375860
v 0.645000 0.295778 -1.375924
v 0.632547 0.298121 -1.376009
v 0.620125 0.301061 -1.376114
v 0.607641 0.304626 -1.376243
v 0.595000 0.308843 -1.376395
v 0.582109 0.313741 -1.376571
v 0.568875 0.319346 -1.376773
v 0.555203 0.325687 -1.377001
v 0.541000 0.332791 -1.377257
v 0.541000 0.428729 -1.380710
v 0.555389 0.419171 -1.380366
v 0.569528 0.410481 -1.380054
v 0.583375 0.402652 -1.379772
v 0.596889 0.395676 -1.379521
v 0.610028 0.389547 -1.379300
v 0.622750 0.384257 -1.379110
v 0.635014 0.379801 -1.378949
v 0.646778 0.376170 -1.378818
v 0.658000 0.373358 -1.378717
v 0.668639 0.371358 -1.378645
v 0.678653 0.370164 -1.378602
v 0.688000 0.369767 -1.378588
v 0.696861 0.370579 -1.378617
v 0.705389 0.372015 -1.378669
v 0.713500 0.374077 -1.378743
v 0.721111 0.376762 -1.378840
v 0.728139 0.380073 -1.378959
v 0.734500 0.384008 -1.379100
v 0.740111 0.388567 -1.379265
v 0.744889 0.393751 -1.379451
v 0.748750 0.399560 -1.379660
v 0.751611 0.405993 -1.379892
v 0.753389 0.413051 -1.380146
v 0.754000 0.420734 -1.380423
v 0.749868 0.435688 -1.380961
v 0.738444 0.449840 -1.381470
v 0.721187 0.463597 -1.381966
v 0.699556 0.477364 -1.382461
v 0.675007 0.491547 -1.382972
v 0.649000 0.506553 -1.383512
v 0.622993 0.522788 -1.384097
v 0.598444 0.540656 -1.384740
v 0.576813 0.560565 -1.385457
v 0.559556 0.582920 -1.386261
v 0.548132 0.608128 -1.387169
v 0.544000 0.636594 -1.388194
v 0.545193 0.654948 -1.388854
v 0.548713 0.671997 -1.389468
v 0.554469 0.687686 -1.390033
v 0.562370 0.701959 -1.390547
v 0.572327 0.714761 -1.391008
v 0.584250 0.726036 -1.391414
v 0.598047 0.735729 -1.391762
v 0.613630 0.743784 -1.392052
v 0.630906 0.750145 -1.392281
v 0.649787 0.754758 -1.392447
v 0.670182 0.757567 -1.392549
v 0.692000 0.758515 -1.392583
v 0.702523 0.758265 -1.392574
v 0.713097 0.757511 -1.392547
v 0.723734 0.756251 -1.392501
v 0.734444 0.754481 -1.392438
v 0.745238 0.752197 -1.392355
v 0.756125 0.749396 -1.392254
v 0.767116 0.746075 -1.392135
v 0.778222 0.742229 -1.391997
v 0.789453 0.737857 -1.391839
v 0.800819 0.732953 -1.391662
v 0.812332 0.727515 -1.391467
v 0.824000 0.721539 -1.391252
v 0.824000 0.633596 -1.388086
v 0.202000 0.300811 -1.376105
v 0.202000 0.982370 -1.400642
v 0.300000 0.982370 -1.400642
v 0.300000 0.300811 -1.376105
v 0.202000 0.300811 -1.376105
v 0.202000 0.390199 1.106886
v 0.202000 0.982370 -1.400642
v 0.202000 1.071758 1.082350
v 0.300000 0.982370 -1.400642
v 0.300000 1.071758 1.082350
v 0.300000 0.300811 -1.376105
v 0.300000 0.390199 1.106886
v 0.811569 0.641448 -1.388368
v 0.811569 0.730836 1.094623
v 0.799301 0.648526 -1.388623
v 0.799301 0.737914 1.094368
v 0.787234 0.654848 -1.388851
v 0.787234 0.744236 1.094141
v 0.775407 0.660430 -1.389052
v 0.775407 0.749818 1.093940
v 0.763858 0.665291 -1.389227
v 0.763858 0.754679 1.093765
v 0.752625 0.669448 -1.389376
v 0.752625 0.758835 1.093615
v 0.741746 0.672917 -1.389501
v 0.741746 0.762305 1.093490
v 0.731259 0.675717 -1.389602
v 0.731259 0.765105 1.093389
v 0.721203 0.677864 -1.389679
v 0.721203 0.767252 1.093312
v 0.711616 0.679376 -1.389734
v 0.711616 0.768764 1.093258
v 0.702535 0.680271 -1.389766
v 0.702535 0.769659 1.093225
v 0.694000 0.680566 -1.389777
v 0.694000 0.769953 1.093215
v 0.685277 0.680217 -1.389764
v 0.685277 0.769605 1.093227
v 0.677130 0.679196 -1.389727
v 0.677130 0.768584 1.093264
v 0.669594 0.677536 -1.389668
v 0.669594 0.766924 1.093324
v 0.662704 0.675273 -1.389586
v 0.662704 0.764660 1.093405
v 0.656494 0.672440 -1.389484
v 0.656494 0.761828 1.093507
v 0.651000 0.669073 -1.389363
v 0.651000 0.758461 1.093629
v 0.646256 0.665206 -1.389224
v 0.646256 0.754594 1.093768
v 0.642296 0.660875 -1.389068
v 0.642296 0.750262 1.093924
v 0.639156 0.656113 -1.388896
v 0.639156 0.745500 1.094095
v 0.636870 0.650955 -1.388711
v 0.636870 0.740343 1.094281
v 0.635473 0.645437 -1.388512
v 0.635473 0.734824 1.094480
v 0.635000 0.639592 -1.388301
v 0.635000 0.728980 1.094690
v 0.635636 0.634502 -1.388118
v 0.635636 0.723889 1.094873
v 0.637588 0.629182 -1.387927
v 0.637588 0.718570 1.095065
v 0.640922 0.623571 -1.387725
v 0.640922 0.712959 1.095267
v 0.645704 0.617606 -1.387510
v 0.645704 0.706994 1.095481
v 0.651999 0.611225 -1.387280
v 0.651999 0.700613 1.095711
v 0.659875 0.604365 -1.387033
v 0.659875 0.693753 1.095958
v 0.669396 0.596963 -1.386767
v 0.669396 0.686351 1.096225
v 0.680630 0.588958 -1.386479
v 0.680630 0.678346 1.096513
v 0.693641 0.580287 -1.386167
v 0.693641 0.669674 1.096825
v 0.708495 0.570887 -1.385828
v 0.708495 0.660274 1.097163
v 0.725260 0.560695 -1.385461
v 0.725260 0.650083 1.097530
v 0.744000 0.549650 -1.385064
v 0.744000 0.639038 1.097928
v 0.761532 0.537764 -1.384636
v 0.761532 0.627152 1.098356
v 0.777176 0.526513 -1.384231
v 0.777176 0.615900 1.098761
v 0.791000 0.515782 -1.383844
v 0.791000 0.605169 1.099147
v 0.803074 0.505457 -1.383473
v 0.803074 0.594844 1.099519
v 0.813468 0.495423 -1.383111
v 0.813468 0.584811 1.099880
v 0.822250 0.485567 -1.382757
v 0.822250 0.574955 1.100235
v 0.829491 0.475773 -1.382404
v 0.829491 0.565161 1.100587
v 0.835259 0.465927 -1.382050
v 0.835259 0.555315 1.100942
v 0.839625 0.455914 -1.381689
v 0.839625 0.545302 1.101302
v 0.842657 0.445620 -1.381319
v 0.842657 0.535008 1.101673
v 0.844426 0.434931 -1.380934
v 0.844426 0.524319 1.102058
v 0.845000 0.423732 -1.380531
v 0.845000 0.513120 1.102461
v 0.843711 0.404552 -1.379840
v 0.843711 0.493939 1.103151
v 0.839940 0.386548 -1.379192
v 0.839940 0.475935 1.103800
v 0.833828 0.369814 -1.378590
v 0.833828 0.459201 1.104402
v 0.825519 0.354443 -1.378036
v 0.825519 0.443831 1.104955
v 0.815153 0.340531 -1.377535
v 0.815153 0.429918 1.105456
v 0.802875 0.328169 -1.377090
v 0.802875 0.417556 1.105901
v 0.788826 0.317452 -1.376704
v 0.788826 0.406839 1.106287
v 0.773148 0.308473 -1.376381
v 0.773148 0.397861 1.106610
v 0.755984 0.301327 -1.376124
v 0.755984 0.390715 1.106867
v 0.737477 0.296106 -1.375936
v 0.737477 0.385494 1.107055
v 0.717768 0.292905 -1.375821
v 0.717768 0.382293 1.107171
v 0.697000 0.291817 -1.375782
v 0.697000 0.381205 1.107210
v 0.683484 0.292051 -1.375790
v 0.683484 0.381439 1.107201
v 0.670375 0.292770 -1.375816
v 0.670375 0.382158 1.107175
v 0.657578 0.294003 -1.375860
v 0.657578 0.383391 1.107131
v 0.645000 0.295778 -1.375924
v 0.645000 0.385165 1.107067
v 0.632547 0.298121 -1.376009
v 0.632547 0.387509 1.106983
v 0.620125 0.301061 -1.376114
v 0.620125 0.390449 1.106877
v 0.607641 0.304626 -1.376243
v 0.607641 0.394014 1.106749
v 0.595000 0.308843 -1.376395
v 0.595000 0.398231 1.106597
v 0.582109 0.313741 -1.376571
v 0.582109 0.403128 1.106421
v 0.568875 0.319346 -1.376773
v 0.568875 0.408734 1.106219
v 0.555203 0.325687 -1.377001
v 0.555203 0.415074 1.105991
v 0.541000 0.332791 -1.377257
v 0.541000 0.422179 1.105735
v 0.541000 0.428729 -1.380710
v 0.541000 0.518116 1.102281
v 0.555389 0.419171 -1.380366
v 0.555389 0.508559 1.102625
v 0.569528 0.410481 -1.380054
v 0.569528 0.499869 1.102938
v 0.583375 0.402652 -1.379772
v 0.583375 0.492040 1.103220
v 0.596889 0.395676 -1.379521
v 0.596889 0.485064 1.103471
v 0.610028 0.389547 -1.379300
v 0.610028 0.478935 1.103692
v 0.622750 0.384257 -1.379110
v 0.622750 0.473645 1.103882
v 0.635014 0.379801 -1.378949
v 0.635014 0.469189 1.104042
v 0.646778 0.376170 -1.378818
v 0.646778 0.465558 1.104173
v 0.658000 0.373358 -1.378717
v 0.658000 0.462746 1.104274
v 0.668639 0.371358 -1.378645
v 0.668639 0.460746 1.104346
v 0.678653 0.370164 -1.378602
v 0.678653 0.459551 1.104389
v 0.688000 0.369767 -1.378588
v 0.688000 0.459155 1.104404
v 0.696861 0.370579 -1.378617
v 0.696861 0.459967 1.104374
v 0.705389 0.372015 -1.378669
v 0.705389 0.461403 1.104323
v 0.713500 0.374077 -1.378743
v 0.713500 0.463464 1.104249
v 0.721111 0.376762 -1.378840
v 0.721111 0.466150 1.104152
v 0.728139 0.380073 -1.378959
v 0.728139 0.469460 1.104033
v 0.734500 0.384008 -1.379100
v 0.734500 0.473395 1.103891
v 0.740111 0.388567 -1.379265
v 0.740111 0.477955 1.103727
v 0.744889 0.393751 -1.379451
v 0.744889 0.483139 1.103540
v 0.748750 0.399560 -1.379660
v 0.748750 0.488948 1.103331
v 0.751611 0.405993 -1.379892
v 0.751611 0.495381 1.103099
v 0.753389 0.413051 -1.380146
v 0.753389 0.502439 1.102845
v 0.754000 0.420734 -1.380423
v 0.754000 0.510122 1.102569
v 0.749868 0.435688 -1.380961
v 0.749868 0.525075 1.102031
v 0.738444 0.449840 -1.381470
v 0.738444 0.539228 1.101521
v 0.721187 0.463597 -1.381966
v 0.721187 0.552984 1.101026
v 0.699556 0.477364 -1.382461
v 0.699556 0.566752 1.100530
v 0.675007 0.491547 -1.382972
v 0.675007 0.580935 1.100020
v 0.649000 0.506553 -1.383512
v 0.649000 0.595941 1.099479
v 0.622993 0.522788 -1.384097
v 0.622993 0.612175 1.098895
v 0.598444 0.540656 -1.384740
v 0.598444 0.630044 1.098252
v 0.576813 0.560565 -1.385457
v 0.576813 0.649953 1.097535
v 0.559556 0.582920 -1.386261
v 0.559556 0.672308 1.096730
v 0.548132 0.608128 -1.387169
v 0.548132 0.697516 1.095823
v 0.544000 0.636594 -1.388194
v 0.544000 0.725982 1.094798
v 0.545193 0.654948 -1.388854
v 0.545193 0.744336 1.094137
v 0.548713 0.671997 -1.389468
v 0.548713 0.761385 1.093523
v 0.554469 0.687686 -1.390033
v 0.554469 0.777074 1.092959
v 0.562370 0.701959 -1.390547
v 0.562370 0.791347 1.092445
v 0.572327 0.714761 -1.391008
v 0.572327 0.804149 1.091984
v 0.584250 0.726036 -1.391414
v 0.584250 0.815424 1.091578
v 0.598047 0.735729 -1.391762
v 0.598047 0.825117 1.091229
v 0.613630 0.743784 -1.392052
v 0.613630 0.833172 1.090939
v 0.630906 0.750145 -1.392281
v 0.630906 0.839533 1.090710
v 0.649787 0.754758 -1.392447
v 0.649787 0.844146 1.090544
v 0.670182 0.757567 -1.392549
v 0.670182 0.846954 1.090443
v 0.692000 0.758515 -1.392583
v 0.692000 0.847903 1.090409
v 0.702523 0.758265 -1.392574
v 0.702523 0.847652 1.090418
v 0.713097 0.757511 -1.392547
v 0.713097 0.846899 1.090445
v 0.723734 0.756251 -1.392501
v 0.723734 0.845639 1.090490
v 0.734444 0.754481 -1.392438
v 0.734444 0.843868 1.090554
v 0.745238 0.752197 -1.392355
v 0.745238 0.841585 1.090636
v 0.756125 0.749396 -1.392254
v 0.756125 0.838784 1.090737
v 0.767116 0.746075 -1.392135
v 0.767116 0.835462 1.090857
v 0.778222 0.742229 -1.391997
v 0.778222 0.831617 1.090995
v 0.789453 0.737857 -1.391839
v 0.789453 0.827244 1.091152
v 0.800819 0.732953 -1.391662
v 0.800819 0.822341 1.091329
v 0.812332 0.727515 -1.391467
v 0.812332 0.816903 1.091525
v 0.824000 0.721539 -1.391252
v 0.824000 0.810927 1.091740
v 0.824000 0.633596 -1.388086
v 0.824000 0.722984 1.094906
v 1.194000 0.749521 -1.392259
v 1.194000 0.838909 1.090732
v 1.194000 0.669573 -1.389381
v 1.194000 0.758960 1.093611
v 1.052000 0.669573 -1.389381
v 1.052000 0.758960 1.093611
v 1.052000 0.439722 -1.381106
v 1.052000 0.529109 1.101885
v 1.052763 0.427258 -1.380658
v 1.052763 0.516646 1.102334
v 1.054935 0.416297 -1.380263
v 1.054935 0.505685 1.102729
v 1.058344 0.406758 -1.379920
v 1.058344 0.496146 1.103072
v 1.062815 0.398563 -1.379624
v 1.062815 0.487951 1.103367
v 1.068175 0.391631 -1.379375
v 1.068175 0.481018 1.103617
v 1.074250 0.385881 -1.379168
v 1.074250 0.475269 1.103824
v 1.080867 0.381236 -1.379001
v 1.080867 0.470623 1.103991
v 1.087852 0.377614 -1.378870
v 1.087852 0.467001 1.104121
v 1.095031 0.374935 -1.378774
v 1.095031 0.464323 1.104218
v 1.102232 0.373121 -1.378709
v 1.102232 0.462509 1.104283
v 1.109279 0.372091 -1.378672
v 1.109279 0.461479 1.104320
v 1.116000 0.371766 -1.378660
v 1.116000 0.461153 1.104332
v 1.124022 0.371995 -1.378668
v 1.124022 0.461382 1.104323
v 1.132092 0.372682 -1.378693
v 1.132092 0.462069 1.104299
v 1.140218 0.373827 -1.378734
v 1.140218 0.463214 1.104257
v 1.148407 0.375430 -1.378792
v 1.148407 0.464818 1.104200
v 1.156665 0.377491 -1.378866
v 1.156665 0.466879 1.104126
v 1.165000 0.380010 -1.378957
v 1.165000 0.469398 1.104035
v 1.173418 0.382987 -1.379064
v 1.173418 0.472375 1.103928
v 1.181926 0.386423 -1.379187
v 1.181926 0.475810 1.103804
v 1.190531 0.390316 -1.379328
v 1.190531 0.479704 1.103664
v 1.199241 0.394667 -1.379484
v 1.199241 0.484055 1.103507
v 1.208061 0.399477 -1.379657
v 1.208061 0.488864 1.103334
v 1.217000 0.404744 -1.379847
v 1.217000 0.494132 1.103144
v 1.217000 0.321798 -1.376861
v 1.217000 0.411186 1.106130
v 1.208917 0.317639 -1.376711
v 1.208917 0.407027 1.106280
v 1.200250 0.313678 -1.376569
v 1.200250 0.403066 1.106423
v 1.191125 0.309946 -1.376434
v 1.191125 0.399334 1.106557
v 1.181667 0.306474 -1.376309
v 1.181667 0.395862 1.106682
v 1.172000 0.303294 -1.376195
v 1.172000 0.392682 1.106797
v 1.162250 0.300437 -1.376092
v 1.162250 0.389824 1.106899
v 1.152542 0.297933 -1.376002
v 1.152542 0.387321 1.106990
v 1.143000 0.295815 -1.375926
v 1.143000 0.385202 1.107066
v 1.133750 0.294113 -1.375864
v 1.133750 0.383500 1.107127
v 1.124917 0.292858 -1.375819
v 1.124917 0.382246 1.107172
v 1.116625 0.292083 -1.375791
v 1.116625 0.381471 1.107200
v 1.109000 0.291817 -1.375782
v 1.109000 0.381205 1.107210
v 1.085750 0.293044 -1.375826
v 1.085750 0.382432 1.107166
v 1.064505 0.296634 -1.375955
v 1.064505 0.386021 1.107036
v 1.045266 0.302451 -1.376164
v 1.045266 0.391839 1.106827
v 1.028037 0.310361 -1.376449
v 1.028037 0.399749 1.106542
v 1.012822 0.320228 -1.376804
v 1.012822 0.409615 1.106187
v 0.999625 0.331916 -1.377225
v 0.999625 0.421304 1.105766
v 0.988448 0.345291 -1.377707
v 0.988448 0.434679 1.105285
v 0.979296 0.360217 -1.378244
v 0.979296 0.449605 1.104747
v 0.972172 0.376559 -1.378832
v 0.972172 0.465947 1.104159
v 0.967079 0.394182 -1.379467
v 0.967079 0.483569 1.103525
v 0.964020 0.412949 -1.380142
v 0.964020 0.502337 1.102849
v 0.963000 0.432726 -1.380854
v 0.963000 0.522114 1.102137
v 0.963000 0.669573 -1.389381
v 0.963000 0.758960 1.093611
v 0.885000 0.669573 -1.389381
v 0.885000 0.758960 1.093611
v 0.885000 0.679566 -1.389741
v 0.885000 0.768954 1.093251
v 1.052000 0.842461 -1.395605
v 1.052000 0.931848 1.087387
v 1.052000 0.749521 -1.392259
v 1.052000 0.838909 1.090732
vn -0.0000 0.0360 0.9994
vn -0.0000 -0.0360 -0.9994
vn -0.7071 -0.7066 0.0254
vn -0.7071 0.7066 -0.0254
vn 0.7071 0.7066 -0.0254
vn 0.7071 -0.7066 0.0254
vn -0.5172 -0.8553 0.0308
vn -0.4823 -0.8755 0.0315
vn -0.4458 -0.8946 0.0322
vn -0.4077 -0.9125 0.0329
vn -0.3678 -0.9293 0.0335
vn -0.3257 -0.9449 0.0340
vn -0.2811 -0.9590 0.0345
vn -0.2336 -0.9717 0.0350
vn -0.1825 -0.9826 0.0354
vn -0.1271 -0.9913 0.0357
vn -0.0663 -0.9972 0.0359
vn 0.0027 -0.9993 0.0360
vn 0.0823 -0.9960 0.0359
vn 0.1700 -0.9848 0.0355
vn 0.2641 -0.9639 0.0347
vn 0.3643 -0.9307 0.0335
vn 0.4699 -0.8822 0.0318
vn 0.5787 -0.8150 0.0293
vn 0.6870 -0.7262 0.0261
vn 0.7891 -0.6139 0.0221
vn 0.8777 -0.4789 0.0172
vn 0.9453 -0.3261 0.0117
vn 0.9865 -0.1634 0.0059
vn 0.9998 0.0217 -0.0008
vn 0.9718 0.2355 -0.0085
vn 0.9032 0.4290 -0.0154
vn 0.8221 0.5689 -0.0205
vn 0.7473 0.6641 -0.0239
vn 0.6851 0.7280 -0.0262
vn 0.6358 0.7714 -0.0278
vn 0.5974 0.8014 -0.0289
vn 0.5678 0.8226 -0.0296
vn 0.5449 0.8379 -0.0302
vn 0.5274 0.8491 -0.0306
vn 0.5139 0.8573 -0.0309
vn 0.5350 0.8443 -0.0304
vn 0.5728 0.8191 -0.0295
vn 0.5989 0.8003 -0.0288
vn 0.6320 0.7745 -0.0279
vn 0.6728 0.7394 -0.0266
vn 0.7213 0.6922 -0.0249
vn 0.7764 0.6299 -0.0227
vn 0.8348 0.5502 -0.0198
vn 0.8914 0.4529 -0.0163
vn 0.9398 0.3414 -0.0123
vn 0.9748 0.2230 -0.0080
vn 0.9942 0.1072 -0.0039
vn 1.0000 -0.0079 0.0003
vn 0.9907 -0.1362 0.0049
vn 0.9616 -0.2744 0.0099
vn 0.9120 -0.4099 0.0148
vn 0.8432 -0.5373 0.0193
vn 0.7578 -0.6520 0.0235
vn 0.6598 -0.7510 0.0270
vn 0.5532 -0.8325 0.0300
vn 0.4418 -0.8965 0.0323
vn 0.3287 -0.9438 0.0340
vn 0.2164 -0.9757 0.0351
vn 0.1065 -0.9937 0.0358
vn 0.0175 -0.9992 0.0360
vn -0.0361 -0.9987 0.0360
vn -0.0754 -0.9965 0.0359
vn -0.1179 -0.9924 0.0357
vn -0.1625 -0.9861 0.0355
vn -0.2078 -0.9775 0.0352
vn -0.2527 -0.9669 0.0348
vn -0.2958 -0.9546 0.0344
vn -0.3361 -0.9412 0.0339
vn -0.3728 -0.9273 0.0334
vn -0.4056 -0.9134 0.0329
vn -0.4343 -0.9002 0.0324
vn -0.8508 -0.5252 0.0189
vn -0.4725 0.8808 -0.0317
vn 0.5388 0.8419 -0.0303
vn 0.5082 0.8607 -0.0310
vn 0.4758 0.8790 -0.0316
vn 0.4410 0.8969 -0.0323
vn 0.4036 0.9143 -0.0329
vn 0.3630 0.9312 -0.0335
vn 0.3185 0.9473 -0.0341
vn 0.2692 0.9625 -0.0346
vn 0.2141 0.9762 -0.0351
vn 0.1518 0.9878 -0.0356
vn 0.0806 0.9961 -0.0359
vn -0.0245 0.9991 -0.0360
vn -0.1289 0.9910 -0.0357
vn -0.2065 0.9778 -0.0352
vn -0.2900 0.9564 -0.0344
vn -0.3801 0.9243 -0.0333
vn -0.4771 0.8783 -0.0316
vn -0.5798 0.8142 -0.0293
vn -0.6850 0.7281 -0.0262
vn -0.7867 0.6169 -0.0222
vn -0.8765 0.4811 -0.0173
vn -0.9453 0.3261 -0.0117
vn -0.9868 0.1621 -0.0058
vn -0.9955 -0.0948 0.0034
vn -0.8897 -0.4563 0.0164
vn -0.7052 -0.7086 0.0255
vn -0.5812 -0.8132 0.0293
vn -0.5190 -0.8542 0.0308
vn -0.5003 -0.8653 0.0312
vn -0.5150 -0.8567 0.0308
vn -0.5596 -0.8282 0.0298
vn -0.6341 -0.7727 0.0278
vn -0.7373 -0.6752 0.0243
vn -0.8571 -0.5148 0.0185
vn -0.9598 -0.2806 0.0101
vn -0.9992 -0.0396 0.0014
vn -0.9910 0.1337 -0.0048
vn -0.9618 0.2737 -0.0099
vn -0.9096 0.4151 -0.0149
vn -0.8348 0.5502 -0.0198
vn -0.7406 0.6715 -0.0242
vn -0.6329 0.7737 -0.0279
vn -0.5185 0.8546 -0.0308
vn -0.4034 0.9144 -0.0329
vn -0.2921 0.9558 -0.0344
vn -0.1872 0.9817 -0.0353
vn -0.0901 0.9953 -0.0358
vn -0.0098 0.9993 -0.0360
vn 0.0475 0.9982 -0.0359
vn 0.0945 0.9949 -0.0358
vn 0.1405 0.9894 -0.0356
vn 0.1852 0.9821 -0.0354
vn 0.2283 0.9730 -0.0350
vn 0.2694 0.9624 -0.0346
vn 0.3085 0.9506 -0.0342
vn 0.3453 0.9379 -0.0338
vn 0.3797 0.9245 -0.0333
vn 0.4119 0.9106 -0.0328
vn 0.4418 0.8966 -0.0323
vn 0.8533 0.5212 -0.0188
vn 0.4826 -0.8753 0.0315
vn 0.9995 0.0305 -0.0011
vn 0.9918 0.1279 -0.0046
vn 0.9640 0.2659 -0.0096
vn 0.9126 0.4085 -0.0147
vn 0.8373 0.5464 -0.0197
vn 0.7417 0.6703 -0.0241
vn 0.6329 0.7737 -0.0279
vn 0.5189 0.8543 -0.0308
vn 0.4059 0.9133 -0.0329
vn 0.2976 0.9541 -0.0343
vn 0.1948 0.9802 -0.0353
vn 0.0967 0.9947 -0.0358
vn 0.0099 0.9993 -0.0360
vn -0.0567 0.9977 -0.0359
vn -0.1123 0.9930 -0.0357
vn -0.1660 0.9855 -0.0355
vn -0.2174 0.9755 -0.0351
vn -0.2660 0.9634 -0.0347
vn -0.3117 0.9496 -0.0342
vn -0.3542 0.9346 -0.0336
vn -0.3936 0.9187 -0.0331
vn -0.4299 0.9023 -0.0325
vn -0.4631 0.8857 -0.0319
vn -0.4935 0.8692 -0.0313
vn 0.4960 0.8678 -0.0312
vn 0.8537 -0.5204 0.0187
vn 0.4369 -0.8989 0.0324
vn 0.3974 -0.9170 0.0330
vn 0.3618 -0.9316 0.0335
vn 0.3288 -0.9438 0.0340
vn 0.2971 -0.9542 0.0344
vn 0.2657 -0.9634 0.0347
vn 0.2334 -0.9718 0.0350
vn 0.1990 -0.9794 0.0353
vn 0.1609 -0.9863 0.0355
vn 0.1170 -0.9925 0.0357
vn 0.0640 -0.9973 0.0359
vn -0.0090 -0.9993 0.0360
vn -0.1099 -0.9933 0.0358
vn -0.2286 -0.9729 0.0350
vn -0.3544 -0.9345 0.0336
vn -0.4822 -0.8755 0.0315
vn -0.6055 -0.7953 0.0286
vn -0.7174 -0.6962 0.0251
vn -0.8123 -0.5829 0.0210
vn -0.8868 -0.4618 0.0166
vn -0.9407 -0.3389 0.0122
vn -0.9756 -0.2194 0.0079
vn -0.9943 -0.1062 0.0038
vn -0.9997 -0.0257 0.0009
vn -0.9215 0.3880 -0.0140
vn 0.3883 0.9209 -0.0332
vt 0.964912 0.000000
vt 1.000000 0.000000
vt 0.982456 0.000000
vt 0.000000 0.000000
vt 0.017544 0.000000
vt 0.947368 0.000000
vt 0.929825 0.000000
vt 0.912281 0.000000
vt 0.035088 0.000000
vt 0.052632 0.000000
vt 0.070175 0.000000
vt 0.894737 0.000000
vt 0.087719 0.000000
vt 0.105263 0.000000
vt 0.877193 0.000000
vt 0.122807 0.000000
vt 0.456140 0.000000
vt 0.491228 0.000000
vt 0.473684 0.000000
vt 0.438596 0.000000
vt 0.140351 0.000000
vt 0.421053 0.000000
vt 0.859649 0.000000
vt 0.157895 0.000000
vt 0.403509 0.000000
vt 0.385965 0.000000
vt 0.175439 0.000000
vt 0.368421 0.000000
vt 0.192982 0.000000
vt 0.350877 0.000000
vt 0.210526 0.000000
vt 0.333333 0.000000
vt 0.842105 0.000000
vt 0.315789 0.000000
vt 0.228070 0.000000
vt 0.298246 0.000000
vt 0.245614 0.000000
vt 0.280702 0.000000
vt 0.263158 0.000000
vt 0.824561 0.000000
vt 0.807018 0.000000
vt 0.789474 0.000000
vt 0.508772 0.000000
vt 0.771930 0.000000
vt 0.526316 0.000000
vt 0.543860 0.000000
vt 0.754386 0.000000
vt 0.561404 0.000000
vt 0.578947 0.000000
vt 0.596491 0.000000
vt 0.736842 0.000000
vt 0.614035 0.000000
vt 0.631579 0.000000
vt 0.719298 0.000000
vt 0.649123 0.000000
vt 0.666667 0.000000
vt 0.701754 0.000000
vt 0.684211 0.000000
vt 0.909774 0.000000
vt 0.902256 0.000000
vt 0.917293 0.000000
vt 0.887218 0.000000
vt 0.924812 0.000000
vt 0.932331 0.000000
vt 0.879699 0.000000
vt 0.939850 0.000000
vt 0.872180 0.000000
vt 0.954887 0.000000
vt 0.962406 0.000000
vt 0.864662 0.000000
vt 0.969925 0.000000
vt 0.977444 0.000000
vt 0.857143 0.000000
vt 0.984962 0.000000
vt 0.992481 0.000000
vt 0.849624 0.000000
vt 0.045113 0.000000
vt 0.037594 0.000000
vt 0.030075 0.000000
vt 0.022556 0.000000
vt 0.015038 0.000000
vt 0.007519 0.000000
vt 0.067669 0.000000
vt 0.060150 0.000000
vt 0.834586 0.000000
vt 0.075188 0.000000
vt 0.827068 0.000000
vt 0.090226 0.000000
vt 0.082707 0.000000
vt 0.097744 0.000000
vt 0.112782 0.000000
vt 0.120301 0.000000
vt 0.127820 0.000000
vt 0.819549 0.000000
vt 0.135338 0.000000
vt 0.142857 0.000000
vt 0.150376 0.000000
vt 0.812030 0.000000
vt 0.165414 0.000000
vt 0.172932 0.000000
vt 0.180451 0.000000
vt 0.804511 0.000000
vt 0.187970 0.000000
vt 0.195489 0.000000
vt 0.203008 0.000000
vt 0.218045 0.000000
vt 0.796992 0.000000
vt 0.225564 0.000000
vt 0.233083 0.000000
vt 0.240602 0.000000
vt 0.248120 0.000000
vt 0.255639 0.000000
vt 0.781955 0.000000
vt 0.270677 0.000000
vt 0.774436 0.000000
vt 0.278196 0.000000
vt 0.285714 0.000000
vt 0.766917 0.000000
vt 0.293233 0.000000
vt 0.759399 0.000000
vt 0.300752 0.000000
vt 0.308271 0.000000
vt 0.751880 0.000000
vt 0.744361 0.000000
vt 0.323308 0.000000
vt 0.330827 0.000000
vt 0.338346 0.000000
vt 0.729323 0.000000
vt 0.345865 0.000000
vt 0.721804 0.000000
vt 0.353383 0.000000
vt 0.533835 0.000000
vt 0.548872 0.000000
vt 0.541353 0.000000
vt 0.360902 0.000000
vt 0.714286 0.000000
vt 0.556391 0.000000
vt 0.706767 0.000000
vt 0.563910 0.000000
vt 0.699248 0.000000
vt 0.571429 0.000000
vt 0.691729 0.000000
vt 0.586466 0.000000
vt 0.676692 0.000000
vt 0.375940 0.000000
vt 0.593985 0.000000
vt 0.669173 0.000000
vt 0.661654 0.000000
vt 0.601504 0.000000
vt 0.654135 0.000000
vt 0.609023 0.000000
vt 0.646617 0.000000
vt 0.616541 0.000000
vt 0.639098 0.000000
vt 0.624060 0.000000
vt 0.383459 0.000000
vt 0.390977 0.000000
vt 0.398496 0.000000
vt 0.406015 0.000000
vt 0.518797 0.000000
vt 0.511278 0.000000
vt 0.413534 0.000000
vt 0.503759 0.000000
vt 0.496241 0.000000
vt 0.488722 0.000000
vt 0.428571 0.000000
vt 0.481203 0.000000
vt 0.436090 0.000000
vt 0.466165 0.000000
vt 0.458647 0.000000
vt 0.443609 0.000000
vt 0.451128 0.000000
vt 0.000000 1.000000
vt 0.250000 1.000000
vt 0.250000 0.000000
vt 0.500000 1.000000
vt 0.500000 0.000000
vt 0.750000 1.000000
vt 0.750000 0.000000
vt 1.000000 1.000000
vt 0.007463 1.000000
vt 0.007463 0.000000
vt 0.014925 1.000000
vt 0.014925 0.000000
vt 0.022388 1.000000
vt 0.022388 0.000000
vt 0.029851 1.000000
vt 0.029851 0.000000
vt 0.037313 1.000000
vt 0.037313 0.000000
vt 0.044776 1.000000
vt 0.044776 0.000000
vt 0.052239 1.000000
vt 0.052239 0.000000
vt 0.059701 1.000000
vt 0.059701 0.000000
vt 0.067164 1.000000
vt 0.067164 0.000000
vt 0.074627 1.000000
vt 0.074627 0.000000
vt 0.082090 1.000000
vt 0.082090 0.000000
vt 0.089552 1.000000
vt 0.089552 0.000000
vt 0.097015 1.000000
vt 0.097015 0.000000
vt 0.104478 1.000000
vt 0.104478 0.000000
vt 0.111940 1.000000
vt 0.111940 0.000000
vt 0.119403 1.000000
vt 0.119403 0.000000
vt 0.126866 1.000000
vt 0.126866 0.000000
vt 0.134328 1.000000
vt 0.134328 0.000000
vt 0.141791 1.000000
vt 0.141791 0.000000
vt 0.149254 1.000000
vt 0.149254 0.000000
vt 0.156716 1.000000
vt 0.156716 0.000000
vt 0.164179 1.000000
vt 0.164179 0.000000
vt 0.171642 1.000000
vt 0.171642 0.000000
vt 0.179104 1.000000
vt 0.179104 0.000000
vt 0.186567 1.000000
vt 0.186567 0.000000
vt 0.194030 1.000000
vt 0.194030 0.000000
vt 0.201493 1.000000
vt 0.201493 0.000000
vt 0.208955 1.000000
vt 0.208955 0.000000
vt 0.216418 1.000000
vt 0.216418 0.000000
vt 0.223881 1.000000
vt 0.223881 0.000000
vt 0.231343 1.000000
vt 0.231343 0.000000
vt 0.238806 1.000000
vt 0.238806 0.000000
vt 0.246269 1.000000
vt 0.246269 0.000000
vt 0.253731 1.000000
vt 0.253731 0.000000
vt 0.261194 1.000000
vt 0.261194 0.000000
vt 0.268657 1.000000
vt 0.268657 0.000000
vt 0.276119 1.000000
vt 0.276119 0.000000
vt 0.283582 1.000000
vt 0.283582 0.000000
vt 0.291045 1.000000
vt 0.291045 0.000000
vt 0.298507 1.000000
vt 0.298507 0.000000
vt 0.305970 1.000000
vt 0.305970 0.000000
vt 0.313433 1.000000
vt 0.313433 0.000000
vt 0.320896 1.000000
vt 0.320896 0.000000
vt 0.328358 1.000000
vt 0.328358 0.000000
vt 0.335821 1.000000
vt 0.335821 0.000000
vt 0.343284 1.000000
vt 0.343284 0.000000
vt 0.350746 1.000000
vt 0.350746 0.000000
vt 0.358209 1.000000
vt 0.358209 0.000000
vt 0.365672 1.000000
vt 0.365672 0.000000
vt 0.373134 1.000000
vt 0.373134 0.000000
vt 0.380597 1.000000
vt 0.380597 0.000000
vt 0.388060 1.000000
vt 0.388060 0.000000
vt 0.395522 1.000000
vt 0.395522 0.000000
vt 0.402985 1.000000
vt 0.402985 0.000000
vt 0.410448 1.000000
vt 0.410448 0.000000
vt 0.417910 1.000000
vt 0.417910 0.000000
vt 0.425373 1.000000
vt 0.425373 0.000000
vt 0.432836 1.000000
vt 0.432836 0.000000
vt 0.440298 1.000000
vt 0.440298 0.000000
vt 0.447761 1.000000
vt 0.447761 0.000000
vt 0.455224 1.000000
vt 0.455224 0.000000
vt 0.462687 1.000000
vt 0.462687 0.000000
vt 0.470149 1.000000
vt 0.470149 0.000000
vt 0.477612 1.000000
vt 0.477612 0.000000
vt 0.485075 1.000000
vt 0.485075 0.000000
vt 0.492537 1.000000
vt 0.492537 0.000000
vt 0.507463 1.000000
vt 0.507463 0.000000
vt 0.514925 1.000000
vt 0.514925 0.000000
vt 0.522388 1.000000
vt 0.522388 0.000000
vt 0.529851 1.000000
vt 0.529851 0.000000
vt 0.537313 1.000000
vt 0.537313 0.000000
vt 0.544776 1.000000
vt 0.544776 0.000000
vt 0.552239 1.000000
vt 0.552239 0.000000
vt 0.559702 1.000000
vt 0.559702 0.000000
vt 0.567164 1.000000
vt 0.567164 0.000000
vt 0.574627 1.000000
vt 0.574627 0.000000
vt 0.582090 1.000000
vt 0.582090 0.000000
vt 0.589552 1.000000
vt 0.589552 0.000000
vt 0.597015 1.000000
vt 0.597015 0.000000
vt 0.604478 1.000000
vt 0.604478 0.000000
vt 0.611940 1.000000
vt 0.611940 0.000000
vt 0.619403 1.000000
vt 0.619403 0.000000
vt 0.626866 1.000000
vt 0.626866 0.000000
vt 0.634328 1.000000
vt 0.634328 0.000000
vt 0.641791 1.000000
vt 0.641791 0.000000
vt 0.649254 1.000000
vt 0.649254 0.000000
vt 0.656716 1.000000
vt 0.656716 0.000000
vt 0.664179 1.000000
vt 0.664179 0.000000
vt 0.671642 1.000000
vt 0.671642 0.000000
vt 0.679105 1.000000
vt 0.679105 0.000000
vt 0.686567 1.000000
vt 0.686567 0.000000
vt 0.694030 1.000000
vt 0.694030 0.000000
vt 0.701493 1.000000
vt 0.701493 0.000000
vt 0.708955 1.000000
vt 0.708955 0.000000
vt 0.716418 1.000000
vt 0.716418 0.000000
vt 0.723881 1.000000
vt 0.723881 0.000000
vt 0.731343 1.000000
vt 0.731343 0.000000
vt 0.738806 1.000000
vt 0.738806 0.000000
vt 0.746269 1.000000
vt 0.746269 0.000000
vt 0.753731 1.000000
vt 0.753731 0.000000
vt 0.761194 1.000000
vt 0.761194 0.000000
vt 0.768657 1.000000
vt 0.768657 0.000000
vt 0.776119 1.000000
vt 0.776119 0.000000
vt 0.783582 1.000000
vt 0.783582 0.000000
vt 0.791045 1.000000
vt 0.791045 0.000000
vt 0.798507 1.000000
vt 0.798507 0.000000
vt 0.805970 1.000000
vt 0.805970 0.000000
vt 0.813433 1.000000
vt 0.813433 0.000000
vt 0.820895 1.000000
vt 0.820895 0.000000
vt 0.828358 1.000000
vt 0.828358 0.000000
vt 0.835821 1.000000
vt 0.835821 0.000000
vt 0.843284 1.000000
vt 0.843284 0.000000
vt 0.850746 1.000000
vt 0.850746 0.000000
vt 0.858209 1.000000
vt 0.858209 0.000000
vt 0.865672 1.000000
vt 0.865672 0.000000
vt 0.873134 1.000000
vt 0.873134 0.000000
vt 0.880597 1.000000
vt 0.880597 0.000000
vt 0.888060 1.000000
vt 0.888060 0.000000
vt 0.895522 1.000000
vt 0.895522 0.000000
vt 0.902985 1.000000
vt 0.902985 0.000000
vt 0.910448 1.000000
vt 0.910448 0.000000
vt 0.917910 1.000000
vt 0.917910 0.000000
vt 0.925373 1.000000
vt 0.925373 0.000000
vt 0.932836 1.000000
vt 0.932836 0.000000
vt 0.940298 1.000000
vt 0.940298 0.000000
vt 0.947761 1.000000
vt 0.947761 0.000000
vt 0.955224 1.000000
vt 0.955224 0.000000
vt 0.962687 1.000000
vt 0.962687 0.000000
vt 0.970149 1.000000
vt 0.970149 0.000000
vt 0.977612 1.000000
vt 0.977612 0.000000
vt 0.985075 1.000000
vt 0.985075 0.000000
vt 0.992537 1.000000
vt 0.992537 0.000000
vt 0.017241 1.000000
vt 0.017241 0.000000
vt 0.034483 1.000000
vt 0.034483 0.000000
vt 0.051724 1.000000
vt 0.051724 0.000000
vt 0.068966 1.000000
vt 0.068966 0.000000
vt 0.086207 1.000000
vt 0.086207 0.000000
vt 0.103448 1.000000
vt 0.103448 0.000000
vt 0.120690 1.000000
vt 0.120690 0.000000
vt 0.137931 1.000000
vt 0.137931 0.000000
vt 0.155172 1.000000
vt 0.155172 0.000000
vt 0.172414 1.000000
vt 0.172414 0.000000
vt 0.189655 1.000000
vt 0.189655 0.000000
vt 0.206897 1.000000
vt 0.206897 0.000000
vt 0.224138 1.000000
vt 0.224138 0.000000
vt 0.241379 1.000000
vt 0.241379 0.000000
vt 0.258621 1.000000
vt 0.258621 0.000000
vt 0.275862 1.000000
vt 0.275862 0.000000
vt 0.293103 1.000000
vt 0.293103 0.000000
vt 0.310345 1.000000
vt 0.310345 0.000000
vt 0.327586 1.000000
vt 0.327586 0.000000
vt 0.344828 1.000000
vt 0.344828 0.000000
vt 0.362069 1.000000
vt 0.362069 0.000000
vt 0.379310 1.000000
vt 0.379310 0.000000
vt 0.396552 1.000000
vt 0.396552 0.000000
vt 0.413793 1.000000
vt 0.413793 0.000000
vt 0.431034 1.000000
vt 0.431034 0.000000
vt 0.448276 1.000000
vt 0.448276 0.000000
vt 0.465517 1.000000
vt 0.465517 0.000000
vt 0.482759 1.000000
vt 0.482759 0.000000
vt 0.517241 1.000000
vt 0.517241 0.000000
vt 0.534483 1.000000
vt 0.534483 0.000000
vt 0.551724 1.000000
vt 0.551724 0.000000
vt 0.568965 1.000000
vt 0.568965 0.000000
vt 0.586207 1.000000
vt 0.586207 0.000000
vt 0.603448 1.000000
vt 0.603448 0.000000
vt 0.620690 1.000000
vt 0.620690 0.000000
vt 0.637931 1.000000
vt 0.637931 0.000000
vt 0.655172 1.000000
vt 0.655172 0.000000
vt 0.672414 1.000000
vt 0.672414 0.000000
vt 0.689655 1.000000
vt 0.689655 0.000000
vt 0.706897 1.000000
vt 0.706897 0.000000
vt 0.724138 1.000000
vt 0.724138 0.000000
vt 0.741379 1.000000
vt 0.741379 0.000000
vt 0.758621 1.000000
vt 0.758621 0.000000
vt 0.775862 1.000000
vt 0.775862 0.000000
vt 0.793103 1.000000
vt 0.793103 0.000000
vt 0.810345 1.000000
vt 0.810345 0.000000
vt 0.827586 1.000000
vt 0.827586 0.000000
vt 0.844828 1.000000
vt 0.844828 0.000000
vt 0.862069 1.000000
vt 0.862069 0.000000
vt 0.879310 1.000000
vt 0.879310 0.000000
vt 0.896552 1.000000
vt 0.896552 0.000000
vt 0.913793 1.000000
vt 0.913793 0.000000
vt 0.931035 1.000000
vt 0.931035 0.000000
vt 0.948276 1.000000
vt 0.948276 0.000000
vt 0.965517 1.000000
vt 0.965517 0.000000
vt 0.982759 1.000000
vt 0.982759 0.000000
s 0
usemtl マテリアル.001
f 56/1/1 58/2/1 57/3/1
f 56/1/1 1/4/1 58/2/1
f 56/1/1 2/5/1 1/4/1
f 55/6/1 2/5/1 56/1/1
f 54/7/1 2/5/1 55/6/1
f 53/8/1 3/9/1 54/7/1
f 3/9/1 2/5/1 54/7/1
f 53/8/1 4/10/1 3/9/1
f 53/8/1 5/11/1 4/10/1
f 52/12/1 5/11/1 53/8/1
f 52/12/1 6/13/1 5/11/1
f 52/12/1 7/14/1 6/13/1
f 51/15/1 7/14/1 52/12/1
f 51/15/1 8/16/1 7/14/1
f 27/17/1 29/18/1 28/19/1
f 26/20/1 29/18/1 27/17/1
f 51/15/1 9/21/1 8/16/1
f 25/22/1 29/18/1 26/20/1
f 50/23/1 9/21/1 51/15/1
f 50/23/1 10/24/1 9/21/1
f 24/25/1 29/18/1 25/22/1
f 23/26/1 29/18/1 24/25/1
f 50/23/1 11/27/1 10/24/1
f 22/28/1 29/18/1 23/26/1
f 50/23/1 12/29/1 11/27/1
f 21/30/1 29/18/1 22/28/1
f 50/23/1 13/31/1 12/29/1
f 20/32/1 29/18/1 21/30/1
f 49/33/1 13/31/1 50/23/1
f 19/34/1 29/18/1 20/32/1
f 49/33/1 14/35/1 13/31/1
f 18/36/1 29/18/1 19/34/1
f 49/33/1 15/37/1 14/35/1
f 17/38/1 29/18/1 18/36/1
f 49/33/1 16/39/1 15/37/1
f 16/39/1 29/18/1 17/38/1
f 49/33/1 29/18/1 16/39/1
f 48/40/1 29/18/1 49/33/1
f 47/41/1 29/18/1 48/40/1
f 46/42/1 29/18/1 47/41/1
f 46/42/1 30/43/1 29/18/1
f 45/44/1 30/43/1 46/42/1
f 45/44/1 31/45/1 30/43/1
f 45/44/1 32/46/1 31/45/1
f 44/47/1 32/46/1 45/44/1
f 44/47/1 33/48/1 32/46/1
f 44/47/1 34/49/1 33/48/1
f 44/47/1 35/50/1 34/49/1
f 43/51/1 35/50/1 44/47/1
f 43/51/1 36/52/1 35/50/1
f 43/51/1 37/53/1 36/52/1
f 42/54/1 37/53/1 43/51/1
f 42/54/1 38/55/1 37/53/1
f 42/54/1 39/56/1 38/55/1
f 41/57/1 39/56/1 42/54/1
f 41/57/1 40/58/1 39/56/1
f 178/12/1 180/59/1 179/60/1
f 178/12/1 181/61/1 180/59/1
f 177/62/1 181/61/1 178/12/1
f 177/62/1 182/63/1 181/61/1
f 177/62/1 183/64/1 182/63/1
f 176/65/1 183/64/1 177/62/1
f 176/65/1 184/66/1 183/64/1
f 176/65/1 185/6/1 184/66/1
f 175/67/1 185/6/1 176/65/1
f 175/67/1 186/68/1 185/6/1
f 175/67/1 187/69/1 186/68/1
f 174/70/1 187/69/1 175/67/1
f 174/70/1 188/71/1 187/69/1
f 174/70/1 189/72/1 188/71/1
f 173/73/1 189/72/1 174/70/1
f 173/73/1 190/74/1 189/72/1
f 173/73/1 191/75/1 190/74/1
f 172/76/1 191/75/1 173/73/1
f 172/76/1 66/10/1 191/75/1
f 66/10/1 65/77/1 191/75/1
f 65/77/1 64/78/1 191/75/1
f 64/78/1 63/79/1 191/75/1
f 63/79/1 62/80/1 191/75/1
f 62/80/1 61/81/1 191/75/1
f 61/81/1 60/82/1 191/75/1
f 60/82/1 59/4/1 191/75/1
f 59/4/1 192/2/1 191/75/1
f 171/33/1 68/83/1 172/76/1
f 68/83/1 67/84/1 172/76/1
f 67/84/1 66/10/1 172/76/1
f 170/85/1 69/86/1 171/33/1
f 69/86/1 68/83/1 171/33/1
f 169/87/1 71/88/1 170/85/1
f 71/88/1 70/89/1 170/85/1
f 70/89/1 69/86/1 170/85/1
f 169/87/1 72/90/1 71/88/1
f 169/87/1 73/14/1 72/90/1
f 169/87/1 74/91/1 73/14/1
f 169/87/1 75/92/1 74/91/1
f 169/87/1 76/93/1 75/92/1
f 168/94/1 76/93/1 169/87/1
f 168/94/1 77/95/1 76/93/1
f 168/94/1 78/96/1 77/95/1
f 168/94/1 79/97/1 78/96/1
f 168/94/1 80/24/1 79/97/1
f 167/98/1 80/24/1 168/94/1
f 167/98/1 81/99/1 80/24/1
f 167/98/1 82/100/1 81/99/1
f 167/98/1 83/101/1 82/100/1
f 166/102/1 83/101/1 167/98/1
f 166/102/1 84/103/1 83/101/1
f 166/102/1 85/104/1 84/103/1
f 166/102/1 86/105/1 85/104/1
f 166/102/1 87/31/1 86/105/1
f 166/102/1 88/106/1 87/31/1
f 165/107/1 88/106/1 166/102/1
f 165/107/1 89/108/1 88/106/1
f 165/107/1 90/109/1 89/108/1
f 165/107/1 91/110/1 90/109/1
f 164/42/1 91/110/1 165/107/1
f 164/42/1 92/111/1 91/110/1
f 164/42/1 93/112/1 92/111/1
f 164/42/1 94/39/1 93/112/1
f 163/113/1 94/39/1 164/42/1
f 163/113/1 95/114/1 94/39/1
f 162/115/1 95/114/1 163/113/1
f 162/115/1 96/116/1 95/114/1
f 162/115/1 97/117/1 96/116/1
f 161/118/1 97/117/1 162/115/1
f 161/118/1 98/119/1 97/117/1
f 160/120/1 98/119/1 161/118/1
f 160/120/1 99/121/1 98/119/1
f 160/120/1 100/122/1 99/121/1
f 159/123/1 100/122/1 160/120/1
f 159/123/1 101/34/1 100/122/1
f 158/124/1 101/34/1 159/123/1
f 158/124/1 102/125/1 101/34/1
f 158/124/1 103/126/1 102/125/1
f 157/51/1 103/126/1 158/124/1
f 157/51/1 104/127/1 103/126/1
f 156/128/1 104/127/1 157/51/1
f 156/128/1 105/129/1 104/127/1
f 155/130/1 105/129/1 156/128/1
f 155/130/1 106/131/1 105/129/1
f 130/132/1 132/133/1 131/134/1
f 155/130/1 107/135/1 106/131/1
f 154/136/1 107/135/1 155/130/1
f 130/132/1 133/137/1 132/133/1
f 153/138/1 107/135/1 154/136/1
f 130/132/1 134/139/1 133/137/1
f 152/140/1 107/135/1 153/138/1
f 152/140/1 108/28/1 107/135/1
f 130/132/1 135/141/1 134/139/1
f 151/142/1 108/28/1 152/140/1
f 130/132/1 136/49/1 135/141/1
f 150/58/1 108/28/1 151/142/1
f 130/132/1 137/143/1 136/49/1
f 149/144/1 108/28/1 150/58/1
f 149/144/1 109/145/1 108/28/1
f 130/132/1 138/146/1 137/143/1
f 148/147/1 109/145/1 149/144/1
f 147/148/1 109/145/1 148/147/1
f 130/132/1 139/149/1 138/146/1
f 146/150/1 109/145/1 147/148/1
f 130/132/1 140/151/1 139/149/1
f 145/152/1 109/145/1 146/150/1
f 130/132/1 141/153/1 140/151/1
f 144/154/1 109/145/1 145/152/1
f 130/132/1 142/155/1 141/153/1
f 143/53/1 109/145/1 144/154/1
f 130/132/1 143/53/1 142/155/1
f 143/53/1 110/156/1 109/145/1
f 130/132/1 110/156/1 143/53/1
f 130/132/1 111/157/1 110/156/1
f 130/132/1 112/158/1 111/157/1
f 129/45/1 112/158/1 130/132/1
f 129/45/1 113/159/1 112/158/1
f 128/160/1 113/159/1 129/45/1
f 127/161/1 113/159/1 128/160/1
f 127/161/1 114/162/1 113/159/1
f 126/163/1 114/162/1 127/161/1
f 125/164/1 114/162/1 126/163/1
f 125/164/1 115/22/1 114/162/1
f 124/165/1 115/22/1 125/164/1
f 124/165/1 116/166/1 115/22/1
f 123/167/1 116/166/1 124/165/1
f 122/19/1 116/166/1 123/167/1
f 122/19/1 117/168/1 116/166/1
f 121/169/1 117/168/1 122/19/1
f 120/170/1 117/168/1 121/169/1
f 120/170/1 118/171/1 117/168/1
f 119/172/1 118/171/1 120/170/1
f 193/4/1 195/56/1 194/32/1
f 193/4/1 196/2/1 195/56/1
f 252/1/2 253/3/2 254/2/2
f 252/1/2 254/2/2 197/4/2
f 252/1/2 197/4/2 198/5/2
f 251/6/2 252/1/2 198/5/2
f 250/7/1 251/6/1 198/5/1
f 249/8/2 250/7/2 199/9/2
f 199/9/1 250/7/1 198/5/1
f 249/8/2 199/9/2 200/10/2
f 249/8/2 200/10/2 201/11/2
f 248/12/2 249/8/2 201/11/2
f 248/12/2 201/11/2 202/13/2
f 248/12/2 202/13/2 203/14/2
f 247/15/2 248/12/2 203/14/2
f 247/15/2 203/14/2 204/16/2
f 223/17/2 224/19/2 225/18/2
f 222/20/2 223/17/2 225/18/2
f 247/15/2 204/16/2 205/21/2
f 221/22/2 222/20/2 225/18/2
f 246/23/2 247/15/2 205/21/2
f 246/23/2 205/21/2 206/24/2
f 220/25/2 221/22/2 225/18/2
f 219/26/2 220/25/2 225/18/2
f 246/23/2 206/24/2 207/27/2
f 218/28/2 219/26/2 225/18/2
f 246/23/2 207/27/2 208/29/2
f 217/30/2 218/28/2 225/18/2
f 246/23/2 208/29/2 209/31/2
f 216/32/2 217/30/2 225/18/2
f 245/33/2 246/23/2 209/31/2
f 215/34/2 216/32/2 225/18/2
f 245/33/2 209/31/2 210/35/2
f 214/36/2 215/34/2 225/18/2
f 245/33/2 210/35/2 211/37/2
f 213/38/2 214/36/2 225/18/2
f 245/33/2 211/37/2 212/39/2
f 212/39/2 213/38/2 225/18/2
f 245/33/2 212/39/2 225/18/2
f 244/40/2 245/33/2 225/18/2
f 243/41/2 244/40/2 225/18/2
f 242/42/2 243/41/2 225/18/2
f 242/42/2 225/18/2 226/43/2
f 241/44/2 242/42/2 226/43/2
f 241/44/2 226/43/2 227/45/2
f 241/44/2 227/45/2 228/46/2
f 240/47/2 241/44/2 228/46/2
f 240/47/2 228/46/2 229/48/2
f 240/47/2 229/48/2 230/49/2
f 240/47/2 230/49/2 231/50/2
f 239/51/2 240/47/2 231/50/2
f 239/51/2 231/50/2 232/52/2
f 239/51/2 232/52/2 233/53/2
f 238/54/2 239/51/2 233/53/2
f 238/54/2 233/53/2 234/55/2
f 238/54/2 234/55/2 235/56/2
f 237/57/2 238/54/2 235/56/2
f 237/57/2 235/56/2 236/58/2
f 374/12/2 375/60/2 376/59/2
f 374/12/2 376/59/2 377/61/2
f 373/62/2 374/12/2 377/61/2
f 373/62/2 377/61/2 378/63/2
f 373/62/2 378/63/2 379/64/2
f 372/65/2 373/62/2 379/64/2
f 372/65/2 379/64/2 380/66/2
f 372/65/2 380/66/2 381/6/2
f 371/67/2 372/65/2 381/6/2
f 371/67/2 381/6/2 382/68/2
f 371/67/2 382/68/2 383/69/2
f 370/70/2 371/67/2 383/69/2
f 370/70/2 383/69/2 384/71/2
f 370/70/2 384/71/2 385/72/2
f 369/73/2 370/70/2 385/72/2
f 369/73/2 385/72/2 386/74/2
f 369/73/2 386/74/2 387/75/2
f 368/76/2 369/73/2 387/75/2
f 368/76/2 387/75/2 262/10/2
f 262/10/2 387/75/2 261/77/2
f 261/77/2 387/75/2 260/78/2
f 260/78/2 387/75/2 259/79/2
f 259/79/2 387/75/2 258/80/2
f 258/80/2 387/75/2 257/81/2
f 257/81/2 387/75/2 256/82/2
f 256/82/2 387/75/2 255/4/2
f 255/4/2 387/75/2 388/2/2
f 367/33/2 368/76/2 264/83/2
f 264/83/2 368/76/2 263/84/2
f 263/84/2 368/76/2 262/10/2
f 366/85/2 367/33/2 265/86/2
f 265/86/2 367/33/2 264/83/2
f 365/87/2 366/85/2 267/88/2
f 267/88/2 366/85/2 266/89/2
f 266/89/2 366/85/2 265/86/2
f 365/87/2 267/88/2 268/90/2
f 365/87/2 268/90/2 269/14/2
f 365/87/2 269/14/2 270/91/2
f 365/87/2 270/91/2 271/92/2
f 365/87/2 271/92/2 272/93/2
f 364/94/2 365/87/2 272/93/2
f 364/94/2 272/93/2 273/95/2
f 364/94/2 273/95/2 274/96/2
f 364/94/2 274/96/2 275/97/2
f 364/94/2 275/97/2 276/24/2
f 363/98/2 364/94/2 276/24/2
f 363/98/2 276/24/2 277/99/2
f 363/98/2 277/99/2 278/100/2
f 363/98/2 278/100/2 279/101/2
f 362/102/2 363/98/2 279/101/2
f 362/102/2 279/101/2 280/103/2
f 362/102/2 280/103/2 281/104/2
f 362/102/2 281/104/2 282/105/2
f 362/102/2 282/105/2 283/31/2
f 362/102/2 283/31/2 284/106/2
f 361/107/2 362/102/2 284/106/2
f 361/107/2 284/106/2 285/108/2
f 361/107/2 285/108/2 286/109/2
f 361/107/2 286/109/2 287/110/2
f 360/42/2 361/107/2 287/110/2
f 360/42/2 287/110/2 288/111/2
f 360/42/2 288/111/2 289/112/2
f 360/42/2 289/112/2 290/39/2
f 359/113/2 360/42/2 290/39/2
f 359/113/2 290/39/2 291/114/2
f 358/115/2 359/113/2 291/114/2
f 358/115/2 291/114/2 292/116/2
f 358/115/2 292/116/2 293/117/2
f 357/118/2 358/115/2 293/117/2
f 357/118/2 293/117/2 294/119/2
f 356/120/2 357/118/2 294/119/2
f 356/120/2 294/119/2 295/121/2
f 356/120/2 295/121/2 296/122/2
f 355/123/2 356/120/2 296/122/2
f 355/123/2 296/122/2 297/34/2
f 354/124/2 355/123/2 297/34/2
f 354/124/2 297/34/2 298/125/2
f 354/124/2 298/125/2 299/126/2
f 353/51/2 354/124/2 299/126/2
f 353/51/2 299/126/2 300/127/2
f 352/128/2 353/51/2 300/127/2
f 352/128/2 300/127/2 301/129/2
f 351/130/2 352/128/2 301/129/2
f 351/130/2 301/129/2 302/131/2
f 326/132/2 327/134/2 328/133/2
f 351/130/2 302/131/2 303/135/2
f 350/136/2 351/130/2 303/135/2
f 326/132/2 328/133/2 329/137/2
f 349/138/2 350/136/2 303/135/2
f 326/132/2 329/137/2 330/139/2
f 348/140/2 349/138/2 303/135/2
f 348/140/2 303/135/2 304/28/2
f 326/132/2 330/139/2 331/141/2
f 347/142/2 348/140/2 304/28/2
f 326/132/2 331/141/2 332/49/2
f 346/58/2 347/142/2 304/28/2
f 326/132/2 332/49/2 333/143/2
f 345/144/2 346/58/2 304/28/2
f 345/144/2 304/28/2 305/145/2
f 326/132/2 333/143/2 334/146/2
f 344/147/2 345/144/2 305/145/2
f 343/148/2 344/147/2 305/145/2
f 326/132/2 334/146/2 335/149/2
f 342/150/2 343/148/2 305/145/2
f 326/132/2 335/149/2 336/151/2
f 341/152/2 342/150/2 305/145/2
f 326/132/2 336/151/2 337/153/2
f 340/154/2 341/152/2 305/145/2
f 326/132/2 337/153/2 338/155/2
f 339/53/2 340/154/2 305/145/2
f 326/132/2 338/155/2 339/53/2
f 339/53/2 305/145/2 306/156/2
f 326/132/2 339/53/2 306/156/2
f 326/132/2 306/156/2 307/157/2
f 326/132/2 307/157/2 308/158/2
f 325/45/2 326/132/2 308/158/2
f 325/45/2 308/158/2 309/159/2
f 324/160/2 325/45/2 309/159/2
f 323/161/2 324/160/2 309/159/2
f 323/161/2 309/159/2 310/162/2
f 322/163/2 323/161/2 310/162/2
f 321/164/2 322/163/2 310/162/2
f 321/164/2 310/162/2 311/22/2
f 320/165/2 321/164/2 311/22/2
f 320/165/2 311/22/2 312/166/2
f 319/167/2 320/165/2 312/166/2
f 318/19/2 319/167/2 312/166/2
f 318/19/2 312/166/2 313/168/2
f 317/169/2 318/19/2 313/168/2
f 316/170/2 317/169/2 313/168/2
f 316/170/2 313/168/2 314/171/2
f 315/172/2 316/170/2 314/171/2
f 389/4/2 390/32/2 391/56/2
f 389/4/2 391/56/2 392/2/2
s 1
f 394/173/3 396/174/4 395/175/4 393/4/3
f 396/174/4 398/176/5 397/177/5 395/175/4
f 398/176/5 400/178/6 399/179/6 397/177/5
f 400/178/6 394/180/3 393/2/3 399/179/6
f 402/173/7 404/181/8 403/182/8 401/4/7
f 404/181/8 406/183/9 405/184/9 403/182/8
f 406/183/9 408/185/10 407/186/10 405/184/9
f 408/185/10 410/187/11 409/188/11 407/186/10
f 410/187/11 412/189/12 411/190/12 409/188/11
f 412/189/12 414/191/13 413/192/13 411/190/12
f 414/191/13 416/193/14 415/194/14 413/192/13
f 416/193/14 418/195/15 417/196/15 415/194/14
f 418/195/15 420/197/16 419/198/16 417/196/15
f 420/197/16 422/199/17 421/200/17 419/198/16
f 422/199/17 424/201/18 423/202/18 421/200/17
f 424/201/18 426/203/19 425/204/19 423/202/18
f 426/203/19 428/205/20 427/206/20 425/204/19
f 428/205/20 430/207/21 429/208/21 427/206/20
f 430/207/21 432/209/22 431/210/22 429/208/21
f 432/209/22 434/211/23 433/212/23 431/210/22
f 434/211/23 436/213/24 435/214/24 433/212/23
f 436/213/24 438/215/25 437/216/25 435/214/24
f 438/215/25 440/217/26 439/218/26 437/216/25
f 440/217/26 442/219/27 441/220/27 439/218/26
f 442/219/27 444/221/28 443/222/28 441/220/27
f 444/221/28 446/223/29 445/224/29 443/222/28
f 446/223/29 448/225/30 447/226/30 445/224/29
f 448/225/30 450/227/31 449/228/31 447/226/30
f 450/227/31 452/229/32 451/230/32 449/228/31
f 452/229/32 454/231/33 453/232/33 451/230/32
f 454/231/33 456/233/34 455/234/34 453/232/33
f 456/233/34 458/235/35 457/236/35 455/234/34
f 458/235/35 460/237/36 459/238/36 457/236/35
f 460/237/36 462/239/37 461/240/37 459/238/36
f 462/239/37 464/241/38 463/242/38 461/240/37
f 464/241/38 466/243/39 465/244/39 463/242/38
f 466/243/39 468/245/40 467/246/40 465/244/39
f 468/245/40 470/247/41 469/248/41 467/246/40
f 470/247/41 472/249/42 471/250/42 469/248/41
f 472/249/42 474/251/43 473/252/43 471/250/42
f 474/251/43 476/253/44 475/254/44 473/252/43
f 476/253/44 478/255/45 477/256/45 475/254/44
f 478/255/45 480/257/46 479/258/46 477/256/45
f 480/257/46 482/259/47 481/260/47 479/258/46
f 482/259/47 484/261/48 483/262/48 481/260/47
f 484/261/48 486/263/49 485/264/49 483/262/48
f 486/263/49 488/265/50 487/266/50 485/264/49
f 488/265/50 490/267/51 489/268/51 487/266/50
f 490/267/51 492/269/52 491/270/52 489/268/51
f 492/269/52 494/271/53 493/272/53 491/270/52
f 494/271/53 496/273/54 495/274/54 493/272/53
f 496/273/54 498/275/55 497/276/55 495/274/54
f 498/275/55 500/277/56 499/278/56 497/276/55
f 500/277/56 502/279/57 501/280/57 499/278/56
f 502/279/57 504/281/58 503/282/58 501/280/57
f 504/281/58 506/283/59 505/284/59 503/282/58
f 506/283/59 508/285/60 507/286/60 505/284/59
f 508/285/60 510/287/61 509/288/61 507/286/60
f 510/287/61 512/289/62 511/290/62 509/288/61
f 512/289/62 514/291/63 513/292/63 511/290/62
f 514/291/63 516/293/64 515/294/64 513/292/63
f 516/293/64 518/295/65 517/296/65 515/294/64
f 518/295/65 520/297/66 519/298/66 517/296/65
f 520/297/66 522/299/67 521/300/67 519/298/66
f 522/299/67 524/301/68 523/302/68 521/300/67
f 524/301/68 526/303/69 525/304/69 523/302/68
f 526/303/69 528/305/70 527/306/70 525/304/69
f 528/305/70 530/307/71 529/308/71 527/306/70
f 530/307/71 532/309/72 531/310/72 529/308/71
f 532/309/72 534/311/73 533/312/73 531/310/72
f 534/311/73 536/176/74 535/177/74 533/312/73
f 536/176/74 538/313/75 537/314/75 535/177/74
f 538/313/75 540/315/76 539/316/76 537/314/75
f 540/315/76 542/317/77 541/318/77 539/316/76
f 542/317/77 544/319/78 543/320/78 541/318/77
f 544/319/78 546/321/79 545/322/79 543/320/78
f 546/321/79 548/323/80 547/324/80 545/322/79
f 548/323/80 550/325/81 549/326/81 547/324/80
f 550/325/81 552/327/82 551/328/82 549/326/81
f 552/327/82 554/329/83 553/330/83 551/328/82
f 554/329/83 556/331/84 555/332/84 553/330/83
f 556/331/84 558/333/85 557/334/85 555/332/84
f 558/333/85 560/335/86 559/336/86 557/334/85
f 560/335/86 562/337/87 561/338/87 559/336/86
f 562/337/87 564/339/88 563/340/88 561/338/87
f 564/339/88 566/341/89 565/342/89 563/340/88
f 566/341/89 568/343/90 567/344/90 565/342/89
f 568/343/90 570/345/91 569/346/91 567/344/90
f 570/345/91 572/347/92 571/348/92 569/346/91
f 572/347/92 574/349/93 573/350/93 571/348/92
f 574/349/93 576/351/94 575/352/94 573/350/93
f 576/351/94 578/353/95 577/354/95 575/352/94
f 578/353/95 580/355/96 579/356/96 577/354/95
f 580/355/96 582/357/97 581/358/97 579/356/96
f 582/357/97 584/359/98 583/360/98 581/358/97
f 584/359/98 586/361/99 585/362/99 583/360/98
f 586/361/99 588/363/100 587/364/100 585/362/99
f 588/363/100 590/365/101 589/366/101 587/364/100
f 590/365/101 592/367/102 591/368/102 589/366/101
f 592/367/102 594/369/103 593/370/103 591/368/102
f 594/369/103 596/371/104 595/372/104 593/370/103
f 596/371/104 598/373/105 597/374/105 595/372/104
f 598/373/105 600/375/106 599/376/106 597/374/105
f 600/375/106 602/377/107 601/378/107 599/376/106
f 602/377/107 604/379/108 603/380/108 601/378/107
f 604/379/108 606/381/109 605/382/109 603/380/108
f 606/381/109 608/383/110 607/384/110 605/382/109
f 608/383/110 610/385/111 609/386/111 607/384/110
f 610/385/111 612/387/112 611/388/112 609/386/111
f 612/387/112 614/389/113 613/390/113 611/388/112
f 614/389/113 616/391/114 615/392/114 613/390/113
f 616/391/114 618/393/115 617/394/115 615/392/114
f 618/393/115 620/395/116 619/396/116 617/394/115
f 620/395/116 622/397/117 621/398/117 619/396/116
f 622/397/117 624/399/118 623/400/118 621/398/117
f 624/399/118 626/401/119 625/402/119 623/400/118
f 626/401/119 628/403/120 627/404/120 625/402/119
f 628/403/120 630/405/121 629/406/121 627/404/120
f 630/405/121 632/407/122 631/408/122 629/406/121
f 632/407/122 634/409/123 633/410/123 631/408/122
f 634/409/123 636/411/124 635/412/124 633/410/123
f 636/411/124 638/413/125 637/414/125 635/412/124
f 638/413/125 640/415/126 639/416/126 637/414/125
f 640/415/126 642/417/127 641/418/127 639/416/126
f 642/417/127 644/419/128 643/420/128 641/418/127
f 644/419/128 646/421/129 645/422/129 643/420/128
f 646/421/129 648/423/130 647/424/130 645/422/129
f 648/423/130 650/425/131 649/426/131 647/424/130
f 650/425/131 652/427/132 651/428/132 649/426/131
f 652/427/132 654/429/133 653/430/133 651/428/132
f 654/429/133 656/431/134 655/432/134 653/430/133
f 656/431/134 658/433/135 657/434/135 655/432/134
f 658/433/135 660/435/136 659/436/136 657/434/135
f 660/435/136 662/437/137 661/438/137 659/436/136
f 662/437/137 664/439/138 663/440/138 661/438/137
f 664/439/138 666/441/139 665/442/139 663/440/138
f 666/441/139 668/443/140 667/444/140 665/442/139
f 668/443/140 402/180/7 401/2/7 667/444/140
f 670/173/5 672/445/6 671/446/6 669/4/5
f 672/445/6 674/447/6 673/448/6 671/446/6
f 674/447/6 676/449/141 675/450/141 673/448/6
f 676/449/141 678/451/142 677/452/142 675/450/141
f 678/451/142 680/453/143 679/454/143 677/452/142
f 680/453/143 682/455/144 681/456/144 679/454/143
f 682/455/144 684/457/145 683/458/145 681/456/144
f 684/457/145 686/459/146 685/460/146 683/458/145
f 686/459/146 688/461/147 687/462/147 685/460/146
f 688/461/147 690/463/148 689/464/148 687/462/147
f 690/463/148 692/465/149 691/466/149 689/464/148
f 692/465/149 694/467/150 693/468/150 691/466/149
f 694/467/150 696/469/151 695/470/151 693/468/150
f 696/469/151 698/471/152 697/472/152 695/470/151
f 698/471/152 700/473/153 699/474/153 697/472/152
f 700/473/153 702/475/154 701/476/154 699/474/153
f 702/475/154 704/477/155 703/478/155 701/476/154
f 704/477/155 706/479/156 705/480/156 703/478/155
f 706/479/156 708/481/157 707/482/157 705/480/156
f 708/481/157 710/483/158 709/484/158 707/482/157
f 710/483/158 712/485/159 711/486/159 709/484/158
f 712/485/159 714/487/160 713/488/160 711/486/159
f 714/487/160 716/489/161 715/490/161 713/488/160
f 716/489/161 718/491/162 717/492/162 715/490/161
f 718/491/162 720/493/163 719/494/163 717/492/162
f 720/493/163 722/495/164 721/496/164 719/494/163
f 722/495/164 724/497/165 723/498/165 721/496/164
f 724/497/165 726/499/166 725/500/166 723/498/165
f 726/499/166 728/176/167 727/177/167 725/500/166
f 728/176/167 730/501/168 729/502/168 727/177/167
f 730/501/168 732/503/169 731/504/169 729/502/168
f 732/503/169 734/505/170 733/506/170 731/504/169
f 734/505/170 736/507/171 735/508/171 733/506/170
f 736/507/171 738/509/172 737/510/172 735/508/171
f 738/509/172 740/511/173 739/512/173 737/510/172
f 740/511/173 742/513/174 741/514/174 739/512/173
f 742/513/174 744/515/175 743/516/175 741/514/174
f 744/515/175 746/517/176 745/518/176 743/516/175
f 746/517/176 748/519/177 747/520/177 745/518/176
f 748/519/177 750/521/178 749/522/178 747/520/177
f 750/521/178 752/523/179 751/524/179 749/522/178
f 752/523/179 754/525/180 753/526/180 751/524/179
f 754/525/180 756/527/181 755/528/181 753/526/180
f 756/527/181 758/529/182 757/530/182 755/528/181
f 758/529/182 760/531/183 759/532/183 757/530/182
f 760/531/183 762/533/184 761/534/184 759/532/183
f 762/533/184 764/535/185 763/536/185 761/534/184
f 764/535/185 766/537/186 765/538/186 763/536/185
f 766/537/186 768/539/187 767/540/187 765/538/186
f 768/539/187 770/541/188 769/542/188 767/540/187
f 770/541/188 772/543/189 771/544/189 769/542/188
f 772/543/189 774/545/190 773/546/190 771/544/189
f 774/545/190 776/547/3 775/548/3 773/546/190
f 776/547/3 778/549/3 777/550/3 775/548/3
f 778/549/3 780/551/191 779/552/191 777/550/3
f 780/551/191 782/553/192 781/554/192 779/552/191
f 782/553/192 784/555/5 783/556/5 781/554/192
f 784/555/5 670/180/5 669/2/5 783/556/5
